<?xml version="1.0" encoding="utf-8"?>
<svg xmlns="http://www.w3.org/2000/svg" height="512pt" version="1.1" viewBox="0 0 512 512" width="512pt">
<path d="M 0.00 0.00 L 512.00 0.00 L 512.00 512.00 L 0.00 512.00 L 0.00 0.00 Z" fill="transparent" opacity="1.00" stroke="transparent" stroke-width="0.25"/>
<path d="M 117.86 149.00 C 117.58 145.45 119.97 141.13 123.97 141.45 C 215.28 141.50 306.60 141.50 397.91 141.44 C 400.58 141.63 403.86 140.66 405.90 142.96 C 409.22 146.37 407.77 151.68 407.88 155.97 C 407.81 211.34 407.87 266.71 407.84 322.08 C 408.11 324.68 406.54 327.12 404.24 328.24 C 402.85 328.10 401.46 327.96 400.08 327.82 C 401.13 327.11 402.18 326.41 403.22 325.68 C 406.94 321.97 404.84 316.21 405.36 311.55 C 384.58 311.46 363.79 311.58 343.01 311.51 C 339.11 311.54 335.18 311.20 331.30 311.73 C 332.15 311.18 333.01 310.65 333.88 310.14 C 333.51 309.03 333.13 307.91 332.77 306.82 C 330.17 308.53 328.24 311.85 324.83 311.83 C 325.25 311.35 326.08 310.41 326.49 309.94 C 334.91 301.97 342.36 292.82 347.27 282.26 C 358.66 259.75 359.99 232.53 351.46 208.85 C 348.92 201.60 344.87 195.02 341.55 188.12 C 341.19 190.99 341.03 193.90 340.40 196.73 C 338.05 197.87 335.28 196.69 332.83 196.33 C 333.15 196.17 333.79 195.85 334.11 195.69 C 335.80 195.25 337.52 194.91 339.23 194.56 C 338.98 186.99 340.22 179.13 337.68 171.83 C 340.47 174.39 340.46 178.34 341.47 181.72 C 342.75 184.26 344.78 186.32 346.29 188.72 C 356.11 204.25 361.50 222.59 361.38 240.98 C 361.45 256.96 357.35 272.89 349.87 286.99 C 347.73 290.90 345.24 294.62 343.17 298.57 C 340.13 301.97 336.85 305.17 334.13 308.84 C 336.39 308.83 338.67 308.83 340.94 308.81 C 362.46 308.63 383.99 309.10 405.51 308.62 C 405.16 255.04 405.50 201.46 405.35 147.89 C 405.47 146.00 404.04 144.07 402.09 143.98 C 365.73 144.49 329.35 144.07 292.98 144.20 C 289.10 144.24 285.21 144.10 281.35 143.70 C 274.66 142.35 267.83 142.79 261.06 142.76 C 255.18 142.86 249.17 142.21 243.45 143.93 C 241.65 144.06 239.84 144.18 238.04 144.20 C 208.35 144.16 178.67 144.24 148.98 144.19 C 141.30 144.14 133.62 144.40 125.95 143.94 C 123.85 143.66 121.18 144.53 120.79 146.90 C 120.47 149.22 120.58 151.57 120.58 153.91 C 120.55 205.54 120.50 257.17 120.54 308.80 C 122.78 308.82 125.01 308.87 127.24 308.99 C 126.90 309.67 126.22 311.04 125.88 311.73 C 124.13 311.64 122.39 311.57 120.65 311.52 C 120.65 313.45 120.65 315.38 120.66 317.32 C 122.78 315.45 124.91 313.59 127.07 311.77 C 133.95 311.52 136.54 302.57 143.44 301.97 C 128.08 315.95 112.37 329.53 97.13 343.64 C 96.42 342.20 95.71 340.74 95.49 339.14 C 99.21 337.61 101.59 334.17 104.61 331.68 C 109.10 327.84 113.14 323.50 117.78 319.84 C 117.91 262.89 117.78 205.95 117.86 149.00 Z" fill="#17223c" opacity="1.00" stroke="#17223c" stroke-width="0.25"/>
<path d="M 243.45 143.93 C 249.17 142.21 255.18 142.86 261.06 142.76 C 267.83 142.79 274.66 142.35 281.35 143.70 C 280.40 143.82 278.51 144.05 277.56 144.16 C 284.06 145.76 290.71 146.86 296.98 149.30 C 302.28 151.13 307.21 153.85 312.29 156.19 C 313.10 156.83 313.93 157.43 314.76 158.05 C 314.75 159.11 314.73 161.23 314.72 162.29 C 309.05 159.60 303.70 156.24 297.82 153.99 C 288.50 150.37 278.58 148.18 268.59 147.66 C 249.03 146.07 228.97 151.39 212.53 162.05 C 207.37 165.47 202.37 169.25 198.26 173.91 C 196.68 173.70 195.11 173.43 193.56 173.09 C 193.48 172.64 193.31 171.74 193.23 171.29 C 194.54 170.07 195.84 168.85 197.15 167.63 C 195.19 167.44 193.24 167.27 191.29 167.12 C 190.48 168.42 189.67 169.72 188.87 171.03 C 188.59 170.41 188.03 169.18 187.75 168.56 C 189.72 163.34 196.12 165.09 199.47 167.88 C 201.20 166.00 202.89 164.08 204.69 162.28 C 211.90 157.34 219.53 152.93 227.77 149.95 C 233.69 147.42 240.07 146.35 246.19 144.47 C 245.51 144.33 244.13 144.06 243.45 143.93 Z" fill="#222549" opacity="1.00" stroke="#222549" stroke-width="0.25"/>
<path d="M 120.79 146.90 C 121.18 144.53 123.85 143.66 125.95 143.94 C 133.62 144.40 141.30 144.14 148.98 144.19 C 178.67 144.24 208.35 144.16 238.04 144.20 C 239.84 144.18 241.65 144.06 243.45 143.93 C 244.13 144.06 245.51 144.33 246.19 144.47 C 240.07 146.35 233.69 147.42 227.77 149.95 C 219.53 152.93 211.90 157.34 204.69 162.28 C 199.63 157.78 191.76 156.81 185.71 159.76 C 180.46 162.29 178.81 169.56 181.89 174.35 C 183.43 176.35 185.78 177.49 187.94 178.71 C 187.49 178.76 186.60 178.84 186.16 178.88 C 177.67 189.94 171.08 202.42 167.21 215.84 C 162.45 224.04 159.59 233.11 155.60 241.67 C 146.32 264.18 136.60 286.51 127.24 308.99 C 125.01 308.87 122.78 308.82 120.54 308.80 C 120.50 257.17 120.55 205.54 120.58 153.91 C 120.58 151.57 120.47 149.22 120.79 146.90 Z" fill="#65b89a" opacity="1.00" stroke="#65b89a" stroke-width="0.25"/>
<path d="M 277.56 144.16 C 278.51 144.05 280.40 143.82 281.35 143.70 C 285.21 144.10 289.10 144.24 292.98 144.20 C 329.35 144.07 365.73 144.49 402.09 143.98 C 404.04 144.07 405.47 146.00 405.35 147.89 C 405.50 201.46 405.16 255.04 405.51 308.62 C 383.99 309.10 362.46 308.63 340.94 308.81 C 341.97 305.46 342.62 302.02 343.17 298.57 C 345.24 294.62 347.73 290.90 349.87 286.99 C 357.35 272.89 361.45 256.96 361.38 240.98 C 361.50 222.59 356.11 204.25 346.29 188.72 C 344.78 186.32 342.75 184.26 341.47 181.72 C 340.46 178.34 340.47 174.39 337.68 171.83 C 335.26 168.65 331.34 167.10 327.39 167.53 C 326.20 166.41 325.02 165.28 323.85 164.15 C 323.77 162.70 323.72 161.26 323.58 159.81 C 323.27 159.43 322.64 158.67 322.32 158.28 C 322.02 157.93 321.42 157.23 321.12 156.88 C 318.18 156.54 315.25 156.20 312.29 156.19 C 307.21 153.85 302.28 151.13 296.98 149.30 C 290.71 146.86 284.06 145.76 277.56 144.16 Z" fill="#65b89a" opacity="1.00" stroke="#65b89a" stroke-width="0.25"/>
<path d="M 212.53 162.05 C 228.97 151.39 249.03 146.07 268.59 147.66 C 263.72 148.70 258.75 148.98 253.82 149.60 C 244.50 150.64 235.50 153.50 226.82 156.95 C 222.70 158.56 218.83 160.72 214.88 162.71 C 214.29 162.54 213.12 162.21 212.53 162.05 Z" fill="#f9ffff" opacity="1.00" stroke="#f9ffff" stroke-width="0.25"/>
<path d="M 268.59 147.66 C 278.58 148.18 288.50 150.37 297.82 153.99 C 303.70 156.24 309.05 159.60 314.72 162.29 C 314.55 172.94 314.88 183.60 314.53 194.25 C 314.88 194.57 315.57 195.22 315.92 195.54 C 318.00 197.67 321.12 197.01 323.79 197.11 C 324.48 191.48 323.72 185.79 324.42 180.19 C 324.81 177.88 327.23 177.24 329.25 177.34 C 330.06 177.74 330.89 178.12 331.73 178.49 C 331.87 183.75 331.83 189.01 331.70 194.27 C 332.30 194.63 333.51 195.34 334.11 195.69 C 333.79 195.85 333.15 196.17 332.83 196.33 C 335.28 196.69 338.05 197.87 340.40 196.73 C 341.03 193.90 341.19 190.99 341.55 188.12 C 344.87 195.02 348.92 201.60 351.46 208.85 C 359.99 232.53 358.66 259.75 347.27 282.26 C 342.36 292.82 334.91 301.97 326.49 309.94 C 322.70 309.36 318.87 309.16 315.04 309.21 C 276.28 309.28 237.51 308.98 198.75 309.33 L 198.26 308.89 C 173.34 285.85 161.91 248.27 172.47 215.66 C 173.85 225.52 172.96 235.49 173.38 245.41 C 173.75 245.64 174.49 246.09 174.86 246.32 C 175.22 246.71 175.93 247.51 176.28 247.90 C 184.02 248.24 191.82 248.46 199.55 247.72 C 199.58 245.61 199.61 243.51 199.64 241.40 C 199.19 241.01 198.28 240.23 197.83 239.84 C 197.45 239.52 196.71 238.87 196.34 238.55 C 191.74 238.66 187.15 238.70 182.55 238.67 C 182.56 236.85 182.58 235.02 182.60 233.20 C 186.80 233.21 191.01 233.53 195.21 233.23 C 196.97 231.59 196.06 228.86 196.46 226.73 C 195.98 226.26 195.03 225.31 194.55 224.83 C 190.70 223.11 186.37 223.93 182.29 223.89 C 182.35 222.32 182.40 220.76 182.46 219.20 C 187.65 219.12 192.87 219.54 198.05 219.08 C 200.08 217.86 199.15 215.12 199.28 213.17 C 198.89 212.61 198.12 211.48 197.73 210.91 C 197.57 210.61 197.24 210.00 197.08 209.69 C 189.26 209.60 181.45 209.75 173.63 209.60 C 176.03 203.74 178.86 198.09 181.88 192.54 L 182.55 193.08 C 187.73 198.17 196.16 199.02 202.51 195.73 C 206.17 193.74 207.49 189.50 208.37 185.71 C 209.52 188.93 211.63 191.69 214.20 193.93 C 220.37 200.00 231.62 198.00 236.07 190.77 C 235.57 190.56 234.55 190.14 234.04 189.94 C 232.79 188.20 231.19 186.80 229.20 185.98 C 226.02 189.38 220.04 191.30 216.63 187.16 C 223.54 185.85 230.65 185.86 237.53 184.30 C 237.24 188.12 237.29 192.27 240.91 194.54 C 243.78 198.34 249.13 197.58 253.25 196.83 C 254.80 197.02 256.35 197.21 257.92 197.31 C 259.76 197.34 261.61 197.29 263.46 197.24 C 264.88 192.91 263.25 188.44 263.49 184.03 C 263.56 179.90 263.72 175.22 260.61 172.05 C 254.85 165.23 242.78 166.42 238.13 173.93 C 239.22 175.10 240.32 176.28 241.42 177.46 L 240.35 177.54 C 241.37 178.14 242.36 178.75 243.37 179.38 C 241.41 180.59 239.45 181.82 237.49 183.02 C 237.08 179.54 235.88 176.10 233.40 173.54 C 231.02 170.61 227.92 167.89 223.96 167.67 C 218.00 166.48 211.80 170.00 209.36 175.47 C 208.36 177.96 208.08 180.67 207.71 183.32 C 207.13 182.09 206.50 180.90 205.87 179.71 C 205.86 180.32 205.85 181.54 205.85 182.16 C 205.04 178.09 201.73 175.65 198.26 173.91 C 202.37 169.25 207.37 165.47 212.53 162.05 C 213.12 162.21 214.29 162.54 214.88 162.71 C 218.83 160.72 222.70 158.56 226.82 156.95 C 232.14 160.51 238.88 159.26 244.69 157.82 C 248.54 156.47 254.05 154.59 253.82 149.60 C 258.75 148.98 263.72 148.70 268.59 147.66 Z" fill="#6bbaa1" opacity="1.00" stroke="#6bbaa1" stroke-width="0.25"/>
<path d="M 226.82 156.95 C 235.50 153.50 244.50 150.64 253.82 149.60 C 254.05 154.59 248.54 156.47 244.69 157.82 C 238.88 159.26 232.14 160.51 226.82 156.95 Z" fill="#b5dbd6" opacity="1.00" stroke="#b5dbd6" stroke-width="0.25"/>
<path d="M 312.29 156.19 C 315.25 156.20 318.18 156.54 321.12 156.88 C 321.42 157.23 322.02 157.93 322.32 158.28 C 322.08 162.53 321.92 166.77 321.76 171.02 C 323.61 169.81 325.45 168.59 327.39 167.53 C 331.34 167.10 335.26 168.65 337.68 171.83 C 340.22 179.13 338.98 186.99 339.23 194.56 C 337.52 194.91 335.80 195.25 334.11 195.69 C 333.51 195.34 332.30 194.63 331.70 194.27 C 331.83 189.01 331.87 183.75 331.73 178.49 C 330.89 178.12 330.06 177.74 329.25 177.34 C 329.81 177.01 330.92 176.37 331.47 176.05 C 328.96 174.80 326.26 174.82 323.69 175.76 C 321.06 181.91 322.76 188.74 322.20 195.21 C 320.11 195.31 318.01 195.41 315.92 195.54 C 315.57 195.22 314.88 194.57 314.53 194.25 C 314.88 183.60 314.55 172.94 314.72 162.29 C 314.73 161.23 314.75 159.11 314.76 158.05 C 313.93 157.43 313.10 156.83 312.29 156.19 Z" fill="#fcfefe" opacity="1.00" stroke="#fcfefe" stroke-width="0.25"/>
<path d="M 185.71 159.76 C 191.76 156.81 199.63 157.78 204.69 162.28 C 202.89 164.08 201.20 166.00 199.47 167.88 C 196.12 165.09 189.72 163.34 187.75 168.56 C 188.03 169.18 188.59 170.41 188.87 171.03 C 190.42 171.75 191.96 172.49 193.56 173.09 C 195.11 173.43 196.68 173.70 198.26 173.91 C 201.73 175.65 205.04 178.09 205.85 182.16 C 206.28 186.54 204.88 191.42 200.86 193.74 C 195.19 196.95 188.21 195.59 182.55 193.08 L 181.88 192.54 L 181.23 191.96 C 182.62 190.06 183.97 188.12 185.54 186.36 C 189.40 188.05 193.65 189.44 197.74 187.67 C 197.74 185.94 197.75 184.21 197.66 182.49 L 196.22 181.83 C 193.49 180.70 190.68 179.81 187.94 178.71 C 185.78 177.49 183.43 176.35 181.89 174.35 C 178.81 169.56 180.46 162.29 185.71 159.76 Z" fill="#fdfdfd" opacity="1.00" stroke="#fdfdfd" stroke-width="0.25"/>
<path d="M 322.32 158.28 C 322.64 158.67 323.27 159.43 323.58 159.81 C 323.72 161.26 323.77 162.70 323.85 164.15 C 325.02 165.28 326.20 166.41 327.39 167.53 C 325.45 168.59 323.61 169.81 321.76 171.02 C 321.92 166.77 322.08 162.53 322.32 158.28 Z" fill="#1e233c" opacity="1.00" stroke="#1e233c" stroke-width="0.25"/>
<path d="M 191.29 167.12 C 193.24 167.27 195.19 167.44 197.15 167.63 C 195.84 168.85 194.54 170.07 193.23 171.29 C 193.31 171.74 193.48 172.64 193.56 173.09 C 191.96 172.49 190.42 171.75 188.87 171.03 C 189.67 169.72 190.48 168.42 191.29 167.12 Z" fill="#66a6a1" opacity="1.00" stroke="#66a6a1" stroke-width="0.25"/>
<path d="M 209.36 175.47 C 211.80 170.00 218.00 166.48 223.96 167.67 C 227.92 167.89 231.02 170.61 233.40 173.54 C 234.81 176.25 235.31 179.27 235.49 182.29 C 228.87 183.62 222.15 184.60 215.38 184.57 C 215.79 185.44 216.19 186.31 216.63 187.16 C 220.04 191.30 226.02 189.38 229.20 185.98 C 231.19 186.80 232.79 188.20 234.04 189.94 C 231.80 191.91 229.58 194.14 226.63 194.99 C 222.52 196.29 218.14 195.32 214.20 193.93 C 211.63 191.69 209.52 188.93 208.37 185.71 C 208.15 184.91 207.93 184.11 207.71 183.32 C 208.08 180.67 208.36 177.96 209.36 175.47 Z" fill="#fcfeff" opacity="1.00" stroke="#fcfeff" stroke-width="0.25"/>
<path d="M 238.13 173.93 C 242.78 166.42 254.85 165.23 260.61 172.05 C 262.40 177.19 261.23 182.69 261.88 187.99 C 262.10 190.39 263.28 193.07 261.32 195.07 C 259.63 195.13 257.94 195.19 256.26 195.26 C 256.06 194.72 255.66 193.64 255.47 193.09 C 254.32 192.08 253.15 193.81 252.03 194.05 C 249.27 195.85 245.90 195.53 242.79 195.29 C 242.32 195.10 241.38 194.72 240.91 194.54 C 237.29 192.27 237.24 188.12 237.53 184.30 C 237.52 183.98 237.50 183.34 237.49 183.02 C 239.45 181.82 241.41 180.59 243.37 179.38 C 244.79 179.04 246.20 178.69 247.62 178.36 C 247.61 177.91 247.60 177.02 247.59 176.57 C 249.83 176.52 252.06 176.48 254.30 176.41 C 253.33 174.91 252.11 173.13 250.04 173.51 C 246.40 172.84 244.84 177.44 241.42 177.46 C 240.32 176.28 239.22 175.10 238.13 173.93 Z" fill="#fbfefd" opacity="1.00" stroke="#fbfefd" stroke-width="0.25"/>
<path d="M 265.98 168.19 C 267.85 168.17 269.74 168.17 271.62 168.16 C 271.93 169.45 272.24 170.74 272.55 172.04 C 274.49 170.32 276.21 167.95 278.99 167.65 C 281.34 167.17 283.62 168.14 285.84 168.81 C 285.64 170.16 285.40 171.51 285.13 172.85 C 284.62 174.15 284.12 175.46 283.52 176.72 C 282.03 176.63 280.77 175.73 279.48 175.09 C 276.28 174.98 274.02 177.55 273.52 180.54 C 272.89 185.08 273.58 189.68 273.15 194.23 C 272.11 196.19 269.50 195.07 267.74 195.38 C 265.69 195.66 265.37 193.49 265.61 192.00 C 265.87 184.07 265.42 176.11 265.98 168.19 Z" fill="#fdfeff" opacity="1.00" stroke="#fdfeff" stroke-width="0.25"/>
<path d="M 289.55 172.49 C 293.65 167.44 301.20 166.25 306.87 169.20 C 308.93 170.46 310.37 172.47 311.96 174.24 L 310.91 174.95 C 309.64 175.77 308.40 176.64 307.12 177.45 C 305.99 177.16 304.94 176.70 303.95 176.09 C 302.09 174.78 299.48 173.91 297.42 175.32 C 293.50 177.38 293.55 182.67 295.10 186.26 C 296.46 188.09 298.79 188.93 301.02 188.62 C 303.24 188.60 304.50 186.42 306.09 185.19 C 307.89 186.45 312.41 187.00 311.24 190.02 C 309.31 191.78 307.57 193.99 304.99 194.80 C 301.31 196.15 297.33 195.36 293.67 194.37 C 286.37 189.97 284.15 179.17 289.55 172.49 Z" fill="#fefdfe" opacity="1.00" stroke="#fefdfe" stroke-width="0.25"/>
<path d="M 260.61 172.05 C 263.72 175.22 263.56 179.90 263.49 184.03 C 263.25 188.44 264.88 192.91 263.46 197.24 C 261.61 197.29 259.76 197.34 257.92 197.31 C 258.12 196.92 258.52 196.13 258.73 195.73 C 259.37 195.57 260.67 195.24 261.32 195.07 C 263.28 193.07 262.10 190.39 261.88 187.99 C 261.23 182.69 262.40 177.19 260.61 172.05 Z" fill="#162f33" opacity="1.00" stroke="#162f33" stroke-width="0.25"/>
<path d="M 285.13 172.85 C 285.78 172.38 287.08 171.43 287.73 170.96 C 287.28 173.62 286.37 176.17 285.31 178.64 C 282.99 177.48 280.42 177.19 277.86 177.40 C 273.49 182.35 275.31 189.22 275.14 195.16 C 274.28 198.65 269.66 196.73 267.16 196.60 C 267.30 196.29 267.59 195.68 267.74 195.38 C 269.50 195.07 272.11 196.19 273.15 194.23 C 273.58 189.68 272.89 185.08 273.52 180.54 C 274.02 177.55 276.28 174.98 279.48 175.09 C 280.77 175.73 282.03 176.63 283.52 176.72 C 284.12 175.46 284.62 174.15 285.13 172.85 Z" fill="#09201f" opacity="1.00" stroke="#09201f" stroke-width="0.25"/>
<path d="M 216.56 175.82 C 219.24 172.93 223.90 172.50 226.75 175.43 C 222.53 174.79 218.79 176.73 215.64 179.36 C 215.87 178.47 216.33 176.70 216.56 175.82 Z" fill="#081a28" opacity="1.00" stroke="#081a28" stroke-width="0.25"/>
<path d="M 233.40 173.54 C 235.88 176.10 237.08 179.54 237.49 183.02 C 237.50 183.34 237.52 183.98 237.53 184.30 C 230.65 185.86 223.54 185.85 216.63 187.16 C 216.19 186.31 215.79 185.44 215.38 184.57 C 222.15 184.60 228.87 183.62 235.49 182.29 C 235.31 179.27 234.81 176.25 233.40 173.54 Z" fill="#11272b" opacity="1.00" stroke="#11272b" stroke-width="0.25"/>
<path d="M 241.42 177.46 C 244.84 177.44 246.40 172.84 250.04 173.51 C 252.11 173.13 253.33 174.91 254.30 176.41 C 252.06 176.48 249.83 176.52 247.59 176.57 C 247.60 177.02 247.61 177.91 247.62 178.36 C 246.20 178.69 244.79 179.04 243.37 179.38 C 242.36 178.75 241.37 178.14 240.35 177.54 L 241.42 177.46 Z" fill="#0f2a2d" opacity="1.00" stroke="#0f2a2d" stroke-width="0.25"/>
<path d="M 297.42 175.32 C 299.48 173.91 302.09 174.78 303.95 176.09 L 304.93 176.91 C 303.90 176.78 301.84 176.53 300.81 176.40 C 299.33 177.38 297.41 178.06 296.62 179.77 C 296.01 181.91 295.71 184.12 295.10 186.26 C 293.55 182.67 293.50 177.38 297.42 175.32 Z" fill="#15292c" opacity="1.00" stroke="#15292c" stroke-width="0.25"/>
<path d="M 310.91 174.95 C 311.44 174.75 312.50 174.36 313.03 174.16 C 313.02 176.77 310.85 178.16 308.97 179.52 C 308.42 179.48 307.31 179.39 306.75 179.34 C 306.68 178.97 306.53 178.24 306.46 177.88 L 307.12 177.45 C 308.40 176.64 309.64 175.77 310.91 174.95 Z" fill="#052025" opacity="1.00" stroke="#052025" stroke-width="0.25"/>
<path d="M 226.75 175.43 C 227.44 175.79 228.02 178.31 226.53 178.18 C 222.91 178.65 219.26 178.83 215.64 179.36 C 218.79 176.73 222.53 174.79 226.75 175.43 Z" fill="#82baac" opacity="1.00" stroke="#82baac" stroke-width="0.25"/>
<path d="M 323.69 175.76 C 326.26 174.82 328.96 174.80 331.47 176.05 C 330.92 176.37 329.81 177.01 329.25 177.34 C 327.23 177.24 324.81 177.88 324.42 180.19 C 323.72 185.79 324.48 191.48 323.79 197.11 C 321.12 197.01 318.00 197.67 315.92 195.54 C 318.01 195.41 320.11 195.31 322.20 195.21 C 322.76 188.74 321.06 181.91 323.69 175.76 Z" fill="#0b2229" opacity="1.00" stroke="#0b2229" stroke-width="0.25"/>
<path d="M 167.21 215.84 C 171.08 202.42 177.67 189.94 186.16 178.88 C 186.60 178.84 187.49 178.76 187.94 178.71 C 190.68 179.81 193.49 180.70 196.22 181.83 C 196.39 182.24 196.72 183.06 196.88 183.47 C 194.92 182.69 192.97 181.90 191.01 181.13 C 189.25 182.94 187.40 184.66 185.54 186.36 C 183.97 188.12 182.62 190.06 181.23 191.96 L 181.88 192.54 C 178.86 198.09 176.03 203.74 173.63 209.60 C 173.09 211.58 172.78 213.62 172.47 215.66 C 161.91 248.27 173.34 285.85 198.26 308.89 C 197.19 309.15 196.13 309.41 195.06 309.68 C 194.61 308.48 194.16 307.28 193.71 306.09 C 192.86 307.45 192.15 308.92 191.08 310.12 C 189.11 310.22 186.93 310.25 185.37 308.87 C 187.15 308.96 188.99 309.21 190.74 308.73 C 191.19 307.67 190.87 306.78 189.79 306.06 C 187.82 306.33 186.06 307.28 184.29 308.10 C 183.56 307.56 182.83 307.02 182.11 306.49 C 183.69 305.37 185.30 304.31 186.91 303.25 C 180.56 295.66 175.40 287.09 171.45 278.03 L 171.14 277.16 C 164.82 281.95 158.31 286.61 152.82 292.36 C 152.48 292.59 151.81 293.06 151.48 293.30 C 150.97 293.39 149.94 293.57 149.43 293.66 C 149.00 295.06 148.59 296.48 148.19 297.90 C 146.63 299.29 145.04 300.64 143.44 301.97 C 136.54 302.57 133.95 311.52 127.07 311.77 L 125.88 311.73 C 126.22 311.04 126.90 309.67 127.24 308.99 C 133.01 308.28 136.14 302.66 140.58 299.53 C 144.30 297.10 145.36 292.40 148.91 289.83 C 155.96 284.36 163.08 278.97 169.86 273.17 C 163.14 254.88 162.92 234.71 167.21 215.84 Z" fill="#1f2649" opacity="1.00" stroke="#1f2649" stroke-width="0.25"/>
<path d="M 205.87 179.71 C 206.50 180.90 207.13 182.09 207.71 183.32 C 207.93 184.11 208.15 184.91 208.37 185.71 C 207.49 189.50 206.17 193.74 202.51 195.73 C 196.16 199.02 187.73 198.17 182.55 193.08 C 188.21 195.59 195.19 196.95 200.86 193.74 C 204.88 191.42 206.28 186.54 205.85 182.16 C 205.85 181.54 205.86 180.32 205.87 179.71 Z" fill="#202e37" opacity="1.00" stroke="#202e37" stroke-width="0.25"/>
<path d="M 185.54 186.36 C 187.40 184.66 189.25 182.94 191.01 181.13 C 192.97 181.90 194.92 182.69 196.88 183.47 C 196.72 183.06 196.39 182.24 196.22 181.83 L 197.66 182.49 C 197.75 184.21 197.74 185.94 197.74 187.67 C 193.65 189.44 189.40 188.05 185.54 186.36 Z" fill="#6ab69e" opacity="1.00" stroke="#6ab69e" stroke-width="0.25"/>
<path d="M 249.99 183.74 C 251.65 183.52 253.31 183.32 254.98 183.14 C 254.14 185.32 253.71 188.21 251.26 189.19 C 249.45 189.68 247.55 189.81 245.71 190.11 C 244.97 188.84 244.55 187.44 244.40 186.00 C 244.89 187.06 245.37 188.12 245.85 189.20 C 247.69 185.77 251.88 185.97 254.64 183.78 C 253.09 183.71 251.54 183.69 249.99 183.74 Z" fill="#71a39e" opacity="1.00" stroke="#71a39e" stroke-width="0.25"/>
<path d="M 244.40 186.00 C 246.09 184.89 247.90 183.81 249.99 183.74 C 251.54 183.69 253.09 183.71 254.64 183.78 C 251.88 185.97 247.69 185.77 245.85 189.20 C 245.37 188.12 244.89 187.06 244.40 186.00 Z" fill="#19172e" opacity="1.00" stroke="#19172e" stroke-width="0.25"/>
<path d="M 234.04 189.94 C 234.55 190.14 235.57 190.56 236.07 190.77 C 231.62 198.00 220.37 200.00 214.20 193.93 C 218.14 195.32 222.52 196.29 226.63 194.99 C 229.58 194.14 231.80 191.91 234.04 189.94 Z" fill="#11242b" opacity="1.00" stroke="#11242b" stroke-width="0.25"/>
<path d="M 304.99 194.80 C 307.57 193.99 309.31 191.78 311.24 190.02 C 311.73 189.83 312.71 189.45 313.20 189.26 C 313.25 190.16 313.30 191.06 313.35 191.97 C 308.20 198.24 298.28 199.31 292.08 193.99 L 293.67 194.37 C 297.33 195.36 301.31 196.15 304.99 194.80 Z" fill="#0b2229" opacity="1.00" stroke="#0b2229" stroke-width="0.25"/>
<path d="M 252.03 194.05 C 253.15 193.81 254.32 192.08 255.47 193.09 C 255.36 194.66 254.37 195.83 253.25 196.83 C 249.13 197.58 243.78 198.34 240.91 194.54 C 241.38 194.72 242.32 195.10 242.79 195.29 C 245.90 195.53 249.27 195.85 252.03 194.05 Z" fill="#0b2229" opacity="1.00" stroke="#0b2229" stroke-width="0.25"/>
<path d="M 255.47 193.09 C 255.66 193.64 256.06 194.72 256.26 195.26 C 257.94 195.19 259.63 195.13 261.32 195.07 C 260.67 195.24 259.37 195.57 258.73 195.73 C 258.52 196.13 258.12 196.92 257.92 197.31 C 256.35 197.21 254.80 197.02 253.25 196.83 C 254.37 195.83 255.36 194.66 255.47 193.09 Z" fill="#79a09e" opacity="1.00" stroke="#79a09e" stroke-width="0.25"/>
<path d="M 217.40 208.27 C 219.78 208.25 222.16 208.29 224.54 208.43 C 224.55 208.93 224.57 209.93 224.58 210.43 C 224.50 222.36 224.94 234.31 224.40 246.23 C 222.55 246.36 220.70 246.49 218.86 246.63 C 218.63 245.90 218.18 244.45 217.96 243.73 C 214.58 245.88 210.79 247.33 206.72 246.35 C 204.54 244.50 201.75 243.13 200.43 240.46 C 197.38 234.41 198.44 226.21 203.51 221.55 C 207.29 217.93 213.66 218.58 217.34 222.04 C 217.28 217.45 217.26 212.86 217.40 208.27 Z" fill="#fcfefe" opacity="1.00" stroke="#fcfefe" stroke-width="0.25"/>
<path d="M 325.47 208.24 C 327.78 208.27 330.09 208.36 332.39 208.52 C 332.40 209.05 332.41 210.10 332.42 210.63 C 332.45 214.40 332.45 218.17 332.41 221.94 C 332.88 221.76 333.82 221.40 334.28 221.22 C 334.28 220.79 334.28 219.95 334.28 219.52 C 337.38 219.27 340.49 219.21 343.60 219.41 C 345.22 221.01 346.92 222.57 348.18 224.49 C 349.80 231.58 349.38 239.00 348.78 246.20 C 346.62 246.28 344.48 246.42 342.34 246.58 C 341.07 240.39 342.90 233.80 340.97 227.80 C 340.81 227.43 340.50 226.69 340.35 226.32 C 338.46 226.32 336.57 226.34 334.69 226.40 C 333.71 228.12 332.41 229.84 332.54 231.93 C 332.38 236.72 332.60 241.52 332.40 246.31 C 330.67 246.33 328.94 246.34 327.22 246.35 C 325.87 245.95 325.17 244.65 324.76 243.41 C 324.81 242.84 324.91 241.70 324.97 241.13 C 325.46 237.07 325.68 232.95 325.14 228.89 L 324.94 227.74 C 324.89 227.45 324.78 226.89 324.73 226.60 L 325.21 225.04 C 325.56 219.45 325.28 213.84 325.47 208.24 Z" fill="#fcfeff" opacity="1.00" stroke="#fcfeff" stroke-width="0.25"/>
<path d="M 173.63 209.60 C 181.45 209.75 189.26 209.60 197.08 209.69 C 197.24 210.00 197.57 210.61 197.73 210.91 C 197.61 213.05 197.48 215.19 197.35 217.33 C 191.79 217.32 186.23 217.28 180.67 217.31 C 180.69 219.52 180.70 221.73 180.71 223.94 L 182.29 223.89 C 186.37 223.93 190.70 223.11 194.55 224.83 C 194.42 227.02 194.31 229.22 194.19 231.42 C 189.67 231.48 185.15 231.38 180.63 231.44 C 180.66 233.85 180.67 236.25 180.66 238.66 C 181.13 238.67 182.08 238.67 182.55 238.67 C 187.15 238.70 191.74 238.66 196.34 238.55 C 196.71 238.87 197.45 239.52 197.83 239.84 C 197.71 241.96 197.62 244.10 197.51 246.23 C 189.96 246.29 182.41 246.14 174.86 246.32 C 174.49 246.09 173.75 245.64 173.38 245.41 C 172.96 235.49 173.85 225.52 172.47 215.66 C 172.78 213.62 173.09 211.58 173.63 209.60 Z" fill="#fdfefe" opacity="1.00" stroke="#fdfefe" stroke-width="0.25"/>
<path d="M 332.42 210.63 C 333.01 210.62 333.60 210.61 334.20 210.60 C 334.23 213.57 334.27 216.55 334.28 219.52 C 334.28 219.95 334.28 220.79 334.28 221.22 C 333.82 221.40 332.88 221.76 332.41 221.94 C 332.45 218.17 332.45 214.40 332.42 210.63 Z" fill="#112c27" opacity="1.00" stroke="#112c27" stroke-width="0.25"/>
<path d="M 224.58 210.43 L 226.23 210.75 C 226.82 213.65 226.49 216.65 226.67 219.60 C 226.68 226.14 227.62 232.66 227.11 239.20 C 226.67 241.99 226.46 244.81 226.53 247.63 C 224.01 248.57 221.43 248.11 219.03 247.06 C 214.39 248.60 209.11 249.32 204.93 246.20 L 206.72 246.35 C 210.79 247.33 214.58 245.88 217.96 243.73 C 218.18 244.45 218.63 245.90 218.86 246.63 C 220.70 246.49 222.55 246.36 224.40 246.23 C 224.94 234.31 224.50 222.36 224.58 210.43 Z" fill="#133033" opacity="1.00" stroke="#133033" stroke-width="0.25"/>
<path d="M 197.73 210.91 C 198.12 211.48 198.89 212.61 199.28 213.17 C 199.15 215.12 200.08 217.86 198.05 219.08 C 192.87 219.54 187.65 219.12 182.46 219.20 C 182.40 220.76 182.35 222.32 182.29 223.89 L 180.71 223.94 C 180.70 221.73 180.69 219.52 180.67 217.31 C 186.23 217.28 191.79 217.32 197.35 217.33 C 197.48 215.19 197.61 213.05 197.73 210.91 Z" fill="#0a2228" opacity="1.00" stroke="#0a2228" stroke-width="0.25"/>
<path d="M 155.60 241.67 C 159.59 233.11 162.45 224.04 167.21 215.84 C 162.92 234.71 163.14 254.88 169.86 273.17 C 163.08 278.97 155.96 284.36 148.91 289.83 C 145.36 292.40 144.30 297.10 140.58 299.53 C 136.14 302.66 133.01 308.28 127.24 308.99 C 136.60 286.51 146.32 264.18 155.60 241.67 Z" fill="#3e8d78" opacity="1.00" stroke="#3e8d78" stroke-width="0.25"/>
<path d="M 226.67 219.60 C 229.02 220.00 233.86 217.80 234.38 221.17 C 234.84 226.46 233.79 231.92 235.02 237.12 C 235.61 239.74 238.51 239.89 240.69 239.71 L 241.05 239.33 C 242.14 238.08 243.46 236.73 243.46 234.96 C 243.79 229.84 243.50 224.70 243.62 219.58 C 245.95 219.44 248.30 219.41 250.64 219.44 C 250.66 219.97 250.70 221.03 250.72 221.55 C 250.83 229.86 251.02 238.19 250.54 246.49 C 248.99 246.39 247.44 246.28 245.90 246.17 L 244.60 246.05 C 244.56 245.34 244.48 243.91 244.44 243.20 C 241.41 246.06 237.40 247.33 233.28 246.38 L 232.17 245.70 C 230.16 243.80 228.66 241.46 227.11 239.20 C 227.62 232.66 226.68 226.14 226.67 219.60 Z" fill="#fcfeff" opacity="1.00" stroke="#fcfeff" stroke-width="0.25"/>
<path d="M 280.45 219.36 C 282.36 219.39 284.27 219.44 286.19 219.54 C 286.33 220.89 286.65 222.22 287.09 223.50 C 289.33 218.75 295.17 217.81 299.53 220.06 C 299.87 222.92 298.43 225.46 297.24 227.94 C 294.77 226.88 291.11 225.14 289.33 228.24 C 285.84 233.56 288.32 240.39 287.33 246.37 C 285.51 246.34 283.69 246.35 281.87 246.23 C 281.33 246.08 280.24 245.77 279.70 245.62 C 279.72 240.04 279.37 234.46 279.62 228.89 C 280.09 225.73 280.41 222.55 280.45 219.36 Z" fill="#fdfeff" opacity="1.00" stroke="#fdfeff" stroke-width="0.25"/>
<path d="M 301.48 224.22 C 304.33 221.54 307.79 218.91 311.94 219.19 C 316.22 218.70 320.04 221.02 322.84 224.05 C 322.67 224.60 322.34 225.72 322.17 226.27 C 321.09 226.93 320.07 227.68 319.09 228.47 C 318.25 228.05 317.40 227.63 316.55 227.23 C 314.31 226.04 311.76 226.25 309.32 226.32 C 306.46 229.14 305.07 233.79 307.60 237.28 C 310.20 241.53 315.70 239.43 318.25 236.31 C 320.17 237.57 322.03 238.92 323.86 240.32 C 321.69 242.26 319.79 244.72 316.95 245.72 C 312.81 247.40 308.18 246.44 304.28 244.56 C 302.02 242.20 300.05 239.52 298.84 236.46 C 298.67 235.03 298.53 233.60 298.43 232.17 C 298.78 231.68 299.13 231.20 299.48 230.71 C 299.13 228.31 300.38 226.23 301.48 224.22 Z" fill="#fcfefe" opacity="1.00" stroke="#fcfefe" stroke-width="0.25"/>
<path d="M 254.04 225.00 C 257.97 219.13 265.80 217.78 272.14 220.07 C 274.74 220.94 275.62 223.85 276.64 226.12 C 276.88 229.73 276.83 233.35 277.03 236.96 C 277.18 240.17 278.20 243.52 276.60 246.54 C 275.03 246.50 273.47 246.36 271.92 246.11 C 271.28 245.29 270.68 244.46 270.08 243.62 C 266.43 246.75 261.33 247.45 256.88 245.70 C 255.35 244.45 254.03 242.97 252.69 241.53 C 252.72 239.60 252.74 237.67 252.93 235.75 C 254.99 233.13 257.95 231.64 260.86 230.19 L 261.29 229.84 C 264.19 229.85 267.08 229.76 269.98 229.63 C 269.69 228.15 269.40 226.68 268.99 225.24 C 268.53 225.21 267.62 225.17 267.16 225.14 C 263.93 224.52 261.12 226.04 259.18 228.53 C 257.10 227.92 255.27 226.81 254.04 225.00 Z" fill="#fdfeff" opacity="1.00" stroke="#fdfeff" stroke-width="0.25"/>
<path d="M 299.53 220.06 C 299.87 221.60 301.37 222.62 301.48 224.22 C 300.38 226.23 299.13 228.31 299.48 230.71 C 299.13 231.20 298.78 231.68 298.43 232.17 C 298.53 233.60 298.67 235.03 298.84 236.46 C 298.21 234.06 298.03 231.57 298.19 229.10 C 295.99 229.12 293.22 227.64 291.47 229.58 C 290.27 230.71 289.48 232.30 289.45 233.96 C 289.19 238.61 289.41 243.27 289.26 247.92 C 286.77 247.72 282.72 249.60 281.87 246.23 C 283.69 246.35 285.51 246.34 287.33 246.37 C 288.32 240.39 285.84 233.56 289.33 228.24 C 291.11 225.14 294.77 226.88 297.24 227.94 C 298.43 225.46 299.87 222.92 299.53 220.06 Z" fill="#10232b" opacity="1.00" stroke="#10232b" stroke-width="0.25"/>
<path d="M 234.38 221.17 C 234.87 221.31 235.84 221.59 236.33 221.73 C 236.37 227.45 236.50 233.17 236.34 238.89 C 237.91 239.03 239.48 239.17 241.05 239.33 L 240.69 239.71 C 238.51 239.89 235.61 239.74 235.02 237.12 C 233.79 231.92 234.84 226.46 234.38 221.17 Z" fill="#122e31" opacity="1.00" stroke="#122e31" stroke-width="0.25"/>
<path d="M 250.72 221.55 C 251.18 221.57 252.10 221.60 252.56 221.62 C 252.65 226.33 252.47 231.05 252.93 235.75 C 252.74 237.67 252.72 239.60 252.69 241.53 C 252.66 243.63 252.62 245.73 252.58 247.83 C 250.26 248.12 246.89 249.08 245.90 246.17 C 247.44 246.28 248.99 246.39 250.54 246.49 C 251.02 238.19 250.83 229.86 250.72 221.55 Z" fill="#0f2a2d" opacity="1.00" stroke="#0f2a2d" stroke-width="0.25"/>
<path d="M 276.64 226.12 C 276.73 225.56 276.90 224.45 276.98 223.89 C 277.72 225.63 278.50 227.36 279.62 228.89 C 279.37 234.46 279.72 240.04 279.70 245.62 C 279.69 246.13 279.68 247.14 279.67 247.65 C 277.36 248.30 274.17 249.43 272.61 246.82 C 273.94 246.70 275.27 246.60 276.60 246.54 C 278.20 243.52 277.18 240.17 277.03 236.96 C 276.83 233.35 276.88 229.73 276.64 226.12 Z" fill="#294546" opacity="1.00" stroke="#294546" stroke-width="0.25"/>
<path d="M 348.18 224.49 L 349.11 224.24 C 351.81 231.79 351.18 240.06 350.67 247.93 C 347.78 248.49 344.89 248.01 342.34 246.58 C 344.48 246.42 346.62 246.28 348.78 246.20 C 349.38 239.00 349.80 231.58 348.18 224.49 Z" fill="#0f2a2d" opacity="1.00" stroke="#0f2a2d" stroke-width="0.25"/>
<path d="M 259.18 228.53 C 261.12 226.04 263.93 224.52 267.16 225.14 C 267.55 225.46 268.33 226.09 268.72 226.41 C 265.94 226.83 263.19 227.65 261.29 229.84 L 260.86 230.19 C 260.17 230.05 258.79 229.77 258.10 229.63 C 258.37 229.35 258.91 228.80 259.18 228.53 Z" fill="#0a2228" opacity="1.00" stroke="#0a2228" stroke-width="0.25"/>
<path d="M 267.16 225.14 C 267.62 225.17 268.53 225.21 268.99 225.24 C 269.40 226.68 269.69 228.15 269.98 229.63 C 267.08 229.76 264.19 229.85 261.29 229.84 C 263.19 227.65 265.94 226.83 268.72 226.41 C 268.33 226.09 267.55 225.46 267.16 225.14 Z" fill="#85b2ad" opacity="1.00" stroke="#85b2ad" stroke-width="0.25"/>
<path d="M 194.55 224.83 C 195.03 225.31 195.98 226.26 196.46 226.73 C 196.06 228.86 196.97 231.59 195.21 233.23 C 191.01 233.53 186.80 233.21 182.60 233.20 C 182.58 235.02 182.56 236.85 182.55 238.67 C 182.08 238.67 181.13 238.67 180.66 238.66 C 180.67 236.25 180.66 233.85 180.63 231.44 C 185.15 231.38 189.67 231.48 194.19 231.42 C 194.31 229.22 194.42 227.02 194.55 224.83 Z" fill="#193334" opacity="1.00" stroke="#193334" stroke-width="0.25"/>
<path d="M 208.74 226.56 C 211.41 225.98 214.07 226.30 216.20 228.11 C 213.78 228.49 210.54 227.71 209.04 230.21 C 207.59 232.69 208.25 235.73 208.18 238.47 C 205.40 234.93 205.76 229.85 208.74 226.56 Z" fill="#0b1f24" opacity="1.00" stroke="#0b1f24" stroke-width="0.25"/>
<path d="M 309.32 226.32 C 311.76 226.25 314.31 226.04 316.55 227.23 C 314.08 228.00 310.86 227.87 309.32 230.31 C 308.00 232.07 308.25 234.39 308.01 236.46 C 308.40 236.76 309.17 237.36 309.56 237.66 C 309.07 237.57 308.09 237.38 307.60 237.28 C 305.07 233.79 306.46 229.14 309.32 226.32 Z" fill="#0b1f24" opacity="1.00" stroke="#0b1f24" stroke-width="0.25"/>
<path d="M 319.09 228.47 C 320.07 227.68 321.09 226.93 322.17 226.27 C 322.73 225.99 323.85 225.43 324.41 225.15 L 324.73 226.60 C 324.78 226.89 324.89 227.45 324.94 227.74 C 322.74 229.10 320.41 230.27 317.84 230.70 C 318.23 229.94 318.65 229.20 319.09 228.47 Z" fill="#052025" opacity="1.00" stroke="#052025" stroke-width="0.25"/>
<path d="M 334.69 226.40 C 336.57 226.34 338.46 226.32 340.35 226.32 C 340.50 226.69 340.81 227.43 340.97 227.80 L 340.75 228.36 C 338.23 227.93 335.22 228.35 334.61 231.33 C 333.88 236.66 334.50 242.09 334.46 247.46 C 332.03 247.98 328.69 249.15 327.22 246.35 C 328.94 246.34 330.67 246.33 332.40 246.31 C 332.60 241.52 332.38 236.72 332.54 231.93 C 332.41 229.84 333.71 228.12 334.69 226.40 Z" fill="#0b2229" opacity="1.00" stroke="#0b2229" stroke-width="0.25"/>
<path d="M 316.55 227.23 C 317.40 227.63 318.25 228.05 319.09 228.47 C 318.65 229.20 318.23 229.94 317.84 230.70 C 320.41 230.27 322.74 229.10 324.94 227.74 L 325.14 228.89 C 325.68 232.95 325.46 237.07 324.97 241.13 C 324.69 240.93 324.13 240.53 323.86 240.32 C 322.03 238.92 320.17 237.57 318.25 236.31 C 315.70 239.43 310.20 241.53 307.60 237.28 C 308.09 237.38 309.07 237.57 309.56 237.66 C 309.17 237.36 308.40 236.76 308.01 236.46 C 308.25 234.39 308.00 232.07 309.32 230.31 C 310.86 227.87 314.08 228.00 316.55 227.23 Z" fill="#6abaa2" opacity="1.00" stroke="#6abaa2" stroke-width="0.25"/>
<path d="M 209.04 230.21 C 210.54 227.71 213.78 228.49 216.20 228.11 C 217.31 231.22 218.07 234.94 215.62 237.65 C 214.09 240.47 210.69 239.51 208.19 238.97 L 208.18 238.47 C 208.25 235.73 207.59 232.69 209.04 230.21 Z" fill="#6eb8a4" opacity="1.00" stroke="#6eb8a4" stroke-width="0.25"/>
<path d="M 261.35 236.38 C 263.70 234.55 266.95 234.77 269.77 234.46 C 269.67 235.42 269.57 236.38 269.47 237.35 L 269.03 237.36 C 267.36 237.41 265.70 237.48 264.04 237.56 C 262.94 238.68 261.84 239.80 260.73 240.91 C 260.73 239.45 259.75 237.37 261.35 236.38 Z" fill="#0f2a2d" opacity="1.00" stroke="#0f2a2d" stroke-width="0.25"/>
<path d="M 260.73 240.91 C 261.84 239.80 262.94 238.68 264.04 237.56 C 265.70 237.48 267.36 237.41 269.03 237.36 C 268.21 241.23 263.81 241.08 260.73 240.91 Z" fill="#8ab2ad" opacity="1.00" stroke="#8ab2ad" stroke-width="0.25"/>
<path d="M 197.83 239.84 C 198.28 240.23 199.19 241.01 199.64 241.40 C 199.61 243.51 199.58 245.61 199.55 247.72 C 191.82 248.46 184.02 248.24 176.28 247.90 C 175.93 247.51 175.22 246.71 174.86 246.32 C 182.41 246.14 189.96 246.29 197.51 246.23 C 197.62 244.10 197.71 241.96 197.83 239.84 Z" fill="#122e31" opacity="1.00" stroke="#122e31" stroke-width="0.25"/>
<path d="M 316.95 245.72 C 319.79 244.72 321.69 242.26 323.86 240.32 C 324.13 240.53 324.69 240.93 324.97 241.13 C 324.91 241.70 324.81 242.84 324.76 243.41 C 322.12 245.43 319.55 247.91 316.06 248.21 C 311.97 248.81 306.99 247.94 304.28 244.56 C 308.18 246.44 312.81 247.40 316.95 245.72 Z" fill="#0a2228" opacity="1.00" stroke="#0a2228" stroke-width="0.25"/>
<path d="M 233.28 246.38 C 237.40 247.33 241.41 246.06 244.44 243.20 C 244.48 243.91 244.56 245.34 244.60 246.05 C 244.88 247.39 242.90 247.45 242.09 247.98 C 238.80 248.92 234.27 248.84 232.17 245.70 L 233.28 246.38 Z" fill="#11272b" opacity="1.00" stroke="#11272b" stroke-width="0.25"/>
<path d="M 256.88 245.70 C 261.33 247.45 266.43 246.75 270.08 243.62 C 270.68 244.46 271.28 245.29 271.92 246.11 C 267.41 248.80 260.83 249.93 256.88 245.70 Z" fill="#052025" opacity="1.00" stroke="#052025" stroke-width="0.25"/>
<path d="M 187.37 285.08 C 186.41 278.43 191.21 271.29 197.99 270.36 C 203.27 269.30 208.61 271.74 211.77 275.98 L 210.82 276.79 C 209.68 277.72 208.58 278.69 207.49 279.67 C 204.33 278.59 201.11 275.94 197.66 277.69 C 193.99 280.08 193.21 286.44 196.99 289.12 C 199.12 292.02 203.23 290.34 205.40 288.33 C 207.41 286.38 209.57 289.16 211.57 289.84 C 211.46 290.45 211.25 291.68 211.14 292.29 C 207.92 296.99 202.09 298.26 196.74 297.41 C 192.06 294.90 187.43 290.82 187.37 285.08 Z" fill="#fcfdfe" opacity="1.00" stroke="#fcfdfe" stroke-width="0.25"/>
<path d="M 213.60 277.17 C 216.42 273.10 220.80 269.58 226.06 270.18 C 231.41 269.96 235.42 274.03 237.87 278.36 C 239.15 283.17 239.25 288.82 235.71 292.75 C 232.15 297.91 224.98 298.70 219.49 296.45 C 216.76 293.96 213.49 291.48 212.81 287.59 C 212.60 284.13 212.26 280.45 213.60 277.17 Z" fill="#fdfeff" opacity="1.00" stroke="#fdfeff" stroke-width="0.25"/>
<path d="M 268.47 270.48 C 270.19 270.46 271.91 270.45 273.64 270.44 C 273.96 271.69 274.29 272.95 274.61 274.20 C 276.60 271.95 279.20 270.45 282.02 269.50 C 283.97 270.22 285.90 270.97 287.82 271.77 C 287.66 272.33 287.36 273.46 287.21 274.03 C 286.57 275.70 285.91 277.37 285.25 279.04 C 282.58 277.77 278.57 276.21 276.68 279.53 C 274.14 285.03 275.95 291.41 275.34 297.27 C 273.91 297.29 272.48 297.31 271.05 297.35 C 270.45 297.35 269.24 297.34 268.63 297.34 C 267.68 288.42 268.11 279.42 268.47 270.48 Z" fill="#fcfffd" opacity="1.00" stroke="#fcfffd" stroke-width="0.25"/>
<path d="M 289.09 275.26 C 293.59 268.08 303.82 269.34 310.09 273.35 C 309.93 273.69 309.63 274.38 309.47 274.72 C 308.80 276.16 307.98 277.51 307.16 278.87 C 303.61 276.76 299.46 274.78 295.39 276.79 C 295.61 281.15 300.46 280.37 303.54 280.73 C 305.57 281.81 308.01 282.53 309.36 284.52 C 310.66 287.15 310.80 290.15 310.03 292.95 C 306.08 299.18 297.72 298.23 291.63 296.35 C 290.33 295.50 289.08 294.61 287.81 293.74 C 288.68 291.86 289.70 290.06 290.83 288.32 C 294.70 290.61 299.74 293.34 304.01 290.30 C 301.58 286.59 296.61 287.15 292.98 285.38 C 290.07 283.93 288.81 280.82 288.50 277.76 C 288.64 277.13 288.94 275.89 289.09 275.26 Z" fill="#fcfefd" opacity="1.00" stroke="#fcfefd" stroke-width="0.25"/>
<path d="M 322.03 270.65 C 327.92 268.42 334.70 271.19 338.07 276.34 C 338.83 278.95 339.21 281.63 339.51 284.33 C 332.99 285.62 326.38 286.39 319.76 286.78 C 320.05 287.39 320.63 288.60 320.92 289.21 C 324.32 293.09 330.36 291.62 333.14 287.76 C 333.53 287.76 334.32 287.75 334.72 287.75 C 334.86 287.81 335.14 287.95 335.28 288.01 C 336.65 288.88 337.88 290.14 337.95 291.87 C 333.86 297.79 325.89 298.87 319.52 296.36 C 317.03 294.40 314.30 292.30 313.37 289.13 C 310.88 282.07 314.28 272.55 322.03 270.65 Z" fill="#fcfefe" opacity="1.00" stroke="#fcfefe" stroke-width="0.25"/>
<path d="M 241.46 270.41 C 243.45 270.45 245.45 270.48 247.45 270.50 C 247.59 271.17 247.89 272.51 248.03 273.18 C 248.18 278.55 247.00 284.21 248.75 289.39 C 248.89 289.75 249.19 290.48 249.34 290.84 C 252.07 290.77 255.59 290.80 256.63 287.63 C 258.06 282.05 256.68 276.16 257.53 270.47 C 260.01 270.82 264.90 269.19 264.53 273.31 C 264.23 281.33 264.58 289.36 264.26 297.39 C 262.74 297.39 261.22 297.39 259.70 297.39 L 258.53 297.39 C 258.13 296.43 257.73 295.48 257.34 294.53 C 254.63 297.79 250.37 297.94 246.47 297.47 C 243.54 295.09 240.79 292.06 240.84 288.03 C 240.66 282.17 240.22 276.18 241.46 270.41 Z" fill="#fcfefe" opacity="1.00" stroke="#fcfefe" stroke-width="0.25"/>
<path d="M 265.15 271.73 C 266.95 274.48 266.24 277.87 266.35 280.97 C 266.21 286.64 266.59 292.32 266.19 297.98 C 265.10 300.02 262.55 299.14 260.70 299.48 C 260.45 298.96 259.95 297.91 259.70 297.39 C 261.22 297.39 262.74 297.39 264.26 297.39 C 264.58 289.36 264.23 281.33 264.53 273.31 C 264.69 272.91 265.00 272.12 265.15 271.73 Z" fill="#11272b" opacity="1.00" stroke="#11272b" stroke-width="0.25"/>
<path d="M 248.03 273.18 L 249.33 271.79 C 250.89 277.77 249.56 284.01 250.38 290.09 L 248.75 289.39 C 247.00 284.21 248.18 278.55 248.03 273.18 Z" fill="#2c4448" opacity="1.00" stroke="#2c4448" stroke-width="0.25"/>
<path d="M 287.21 274.03 C 287.62 273.72 288.44 273.10 288.85 272.79 C 288.91 273.41 289.03 274.65 289.09 275.26 C 288.94 275.89 288.64 277.13 288.50 277.76 C 288.19 278.82 287.86 279.87 287.49 280.91 C 286.35 280.63 285.25 280.20 284.24 279.58 C 283.35 279.55 281.56 279.47 280.67 279.43 C 274.39 284.28 279.17 293.11 276.42 299.46 C 274.41 299.39 272.40 299.36 270.39 299.32 C 270.44 298.88 270.54 298.01 270.58 297.57 L 271.05 297.35 C 272.48 297.31 273.91 297.29 275.34 297.27 C 275.95 291.41 274.14 285.03 276.68 279.53 C 278.57 276.21 282.58 277.77 285.25 279.04 C 285.91 277.37 286.57 275.70 287.21 274.03 Z" fill="#17272d" opacity="1.00" stroke="#17272d" stroke-width="0.25"/>
<path d="M 309.47 274.72 C 310.04 274.96 311.17 275.42 311.74 275.65 C 310.40 277.89 309.39 281.19 306.06 280.60 L 306.71 279.57 L 307.16 278.87 C 307.98 277.51 308.80 276.16 309.47 274.72 Z" fill="#052025" opacity="1.00" stroke="#052025" stroke-width="0.25"/>
<path d="M 319.83 281.59 C 320.18 278.01 323.40 274.93 327.10 275.49 C 329.07 275.37 330.22 277.21 331.52 278.37 C 329.72 278.08 327.86 277.35 326.05 277.85 C 323.92 279.01 321.97 280.47 319.83 281.59 Z" fill="#041e23" opacity="1.00" stroke="#041e23" stroke-width="0.25"/>
<path d="M 338.07 276.34 C 337.99 276.03 337.84 275.41 337.76 275.10 C 340.14 278.32 341.36 282.19 341.33 286.19 C 339.30 286.75 337.28 287.35 335.28 288.01 C 335.14 287.95 334.86 287.81 334.72 287.75 C 334.32 287.75 333.53 287.76 333.14 287.76 C 329.04 287.95 324.91 288.21 320.92 289.21 C 320.63 288.60 320.05 287.39 319.76 286.78 C 326.38 286.39 332.99 285.62 339.51 284.33 C 339.21 281.63 338.83 278.95 338.07 276.34 Z" fill="#10222b" opacity="1.00" stroke="#10222b" stroke-width="0.25"/>
<path d="M 210.82 276.79 C 211.77 276.54 212.69 276.96 213.60 277.17 C 212.26 280.45 212.60 284.13 212.81 287.59 C 212.40 284.80 212.04 281.99 212.15 279.16 C 210.73 280.01 209.32 280.88 207.87 281.69 C 205.66 278.96 201.94 278.87 198.79 279.55 C 196.54 282.30 195.82 285.90 197.36 289.06 L 196.99 289.12 C 193.21 286.44 193.99 280.08 197.66 277.69 C 201.11 275.94 204.33 278.59 207.49 279.67 C 208.58 278.69 209.68 277.72 210.82 276.79 Z" fill="#0a2228" opacity="1.00" stroke="#0a2228" stroke-width="0.25"/>
<path d="M 295.39 276.79 C 299.46 274.78 303.61 276.76 307.16 278.87 L 306.71 279.57 C 305.80 280.28 304.63 280.53 303.54 280.73 C 300.46 280.37 295.61 281.15 295.39 276.79 Z" fill="#598683" opacity="1.00" stroke="#598683" stroke-width="0.25"/>
<path d="M 152.82 292.36 C 158.31 286.61 164.82 281.95 171.14 277.16 L 171.45 278.03 C 167.86 282.27 163.16 285.33 159.07 289.03 C 157.61 290.34 156.01 291.51 154.22 292.32 L 152.82 292.36 Z" fill="#d2d8e6" opacity="1.00" stroke="#d2d8e6" stroke-width="0.25"/>
<path d="M 221.69 278.70 C 223.52 276.45 226.59 277.25 229.05 277.59 L 228.75 278.72 C 228.71 278.83 228.64 279.05 228.60 279.16 C 226.65 279.40 224.22 279.14 222.98 281.01 C 221.47 283.32 221.61 286.23 221.30 288.88 C 219.43 285.77 218.95 281.46 221.69 278.70 Z" fill="#11272b" opacity="1.00" stroke="#11272b" stroke-width="0.25"/>
<path d="M 237.61 276.94 C 241.81 282.06 241.68 290.21 237.10 295.06 C 232.50 300.76 223.38 300.83 218.09 296.04 L 219.49 296.45 C 224.98 298.70 232.15 297.91 235.71 292.75 C 239.25 288.82 239.15 283.17 237.87 278.36 C 237.80 278.00 237.68 277.30 237.61 276.94 Z" fill="#0b1f24" opacity="1.00" stroke="#0b1f24" stroke-width="0.25"/>
<path d="M 171.45 278.03 C 175.40 287.09 180.56 295.66 186.91 303.25 C 185.30 304.31 183.69 305.37 182.11 306.49 C 179.00 308.69 176.00 311.05 172.96 313.35 C 166.83 306.23 160.35 299.43 154.22 292.32 C 156.01 291.51 157.61 290.34 159.07 289.03 C 163.16 285.33 167.86 282.27 171.45 278.03 Z" fill="#567d9e" opacity="1.00" stroke="#567d9e" stroke-width="0.25"/>
<path d="M 228.75 278.72 L 229.63 277.60 C 231.29 280.84 232.68 285.04 230.27 288.30 C 228.55 291.38 223.35 291.63 221.30 288.88 C 221.61 286.23 221.47 283.32 222.98 281.01 C 224.22 279.14 226.65 279.40 228.60 279.16 C 228.64 279.05 228.71 278.83 228.75 278.72 Z" fill="#6ab9a2" opacity="1.00" stroke="#6ab9a2" stroke-width="0.25"/>
<path d="M 319.83 281.59 C 321.97 280.47 323.92 279.01 326.05 277.85 C 327.86 277.35 329.72 278.08 331.52 278.37 L 332.45 278.58 C 332.09 278.92 331.36 279.61 331.00 279.96 C 327.29 280.63 323.53 280.92 319.83 281.59 Z" fill="#91b4b1" opacity="1.00" stroke="#91b4b1" stroke-width="0.25"/>
<path d="M 292.98 285.38 C 296.61 287.15 301.58 286.59 304.01 290.30 C 300.45 288.64 294.99 289.31 292.98 285.38 Z" fill="#294546" opacity="1.00" stroke="#294546" stroke-width="0.25"/>
<path d="M 310.03 292.95 C 311.22 291.11 310.78 288.64 311.62 286.62 C 312.86 289.53 313.47 293.48 310.88 295.88 C 305.43 301.51 295.99 300.24 289.99 296.14 L 291.63 296.35 C 297.72 298.23 306.08 299.18 310.03 292.95 Z" fill="#0b1f24" opacity="1.00" stroke="#0b1f24" stroke-width="0.25"/>
<path d="M 320.92 289.21 C 324.91 288.21 329.04 287.95 333.14 287.76 C 330.36 291.62 324.32 293.09 320.92 289.21 Z" fill="#77baa8" opacity="1.00" stroke="#77baa8" stroke-width="0.25"/>
<path d="M 152.82 292.36 L 154.22 292.32 C 160.35 299.43 166.83 306.23 172.96 313.35 C 176.00 311.05 179.00 308.69 182.11 306.49 C 182.83 307.02 183.56 307.56 184.29 308.10 L 185.37 308.87 C 186.93 310.25 189.11 310.22 191.08 310.12 C 192.15 308.92 192.86 307.45 193.71 306.09 C 194.16 307.28 194.61 308.48 195.06 309.68 C 196.13 309.41 197.19 309.15 198.26 308.89 L 198.75 309.33 C 199.74 310.19 200.76 311.01 201.79 311.83 C 209.36 318.18 217.88 323.48 227.18 326.90 C 230.02 328.19 232.94 329.36 236.01 330.01 C 239.29 330.75 242.54 331.69 245.85 332.32 C 247.75 332.68 249.67 332.98 251.59 333.23 C 259.21 334.12 266.93 334.02 274.55 333.16 C 274.97 333.09 275.82 332.94 276.24 332.86 C 280.88 332.05 285.48 331.08 290.05 329.96 C 293.29 329.16 296.36 327.81 299.46 326.58 C 308.44 323.05 316.85 318.04 324.23 311.81 C 324.38 311.81 324.68 311.82 324.83 311.83 C 328.24 311.85 330.17 308.53 332.77 306.82 C 333.13 307.91 333.51 309.03 333.88 310.14 C 333.01 310.65 332.15 311.18 331.30 311.73 C 325.53 316.91 319.35 321.57 312.69 325.55 C 342.86 325.90 373.04 325.63 403.22 325.68 C 402.18 326.41 401.13 327.11 400.08 327.82 C 401.46 327.96 402.85 328.10 404.24 328.24 C 401.21 328.86 398.10 328.63 395.04 328.64 C 366.03 328.60 337.02 328.66 308.01 328.62 C 305.20 328.64 302.79 330.35 300.23 331.31 C 293.46 334.24 286.27 336.12 279.02 337.36 C 279.81 346.38 281.86 355.26 282.78 364.27 C 292.20 364.29 301.62 364.24 311.04 364.28 C 314.48 364.08 317.62 366.82 318.37 370.09 C 318.76 373.14 318.50 376.22 318.56 379.29 C 318.35 379.64 317.95 380.34 317.75 380.69 C 283.83 380.49 249.90 380.76 215.98 380.59 C 212.18 380.55 208.39 380.66 204.61 380.86 C 204.18 380.45 203.74 380.06 203.30 379.68 C 204.16 375.54 202.41 370.71 205.22 367.15 C 206.51 365.31 208.68 364.16 210.95 364.29 C 219.71 364.24 228.48 364.30 237.25 364.26 C 238.32 354.98 239.66 345.70 241.43 336.52 C 234.06 334.52 226.69 332.23 219.92 328.65 C 197.93 328.60 175.93 328.67 153.94 328.64 C 142.63 339.42 131.43 350.33 120.04 361.03 C 116.14 364.66 112.61 368.74 108.24 371.85 C 107.96 375.78 110.14 379.23 111.37 382.82 C 113.57 388.86 115.97 394.83 118.20 400.86 C 122.65 412.25 126.71 423.80 131.32 435.13 C 130.65 436.92 130.09 439.20 128.01 439.84 C 124.36 441.31 120.70 442.75 117.03 444.20 C 114.86 445.13 111.93 444.34 110.84 442.16 C 110.05 440.53 109.47 438.82 108.81 437.14 C 106.66 432.03 104.22 427.05 102.14 421.92 C 97.39 411.76 93.34 401.27 88.40 391.20 C 79.30 400.17 69.97 408.90 60.83 417.83 C 57.31 421.02 54.14 425.37 49.04 425.92 C 39.94 427.54 31.85 420.03 28.77 412.07 C 27.82 407.32 27.69 401.20 32.01 397.99 C 47.33 384.11 62.30 369.83 77.83 356.18 C 76.84 355.14 76.30 353.95 76.20 352.62 L 78.04 352.60 C 78.65 353.33 79.26 354.06 79.88 354.80 C 79.75 354.58 79.51 354.15 79.39 353.94 L 80.79 352.71 C 81.22 352.39 82.08 351.76 82.51 351.44 C 79.94 346.76 78.38 341.63 76.09 336.82 C 74.01 331.39 71.15 326.27 69.54 320.66 C 72.16 319.64 77.11 315.89 78.61 320.11 C 81.46 328.53 85.13 336.64 88.14 345.01 C 88.33 346.85 89.60 345.08 89.83 344.45 C 92.26 344.11 94.69 343.84 97.13 343.64 C 76.51 362.26 56.24 381.27 35.79 400.09 C 36.32 400.32 37.39 400.79 37.92 401.02 C 45.11 405.41 50.78 412.16 53.92 419.97 C 67.89 406.26 82.34 393.03 96.45 379.47 C 114.59 361.57 133.29 344.28 151.60 326.57 C 154.77 323.73 157.67 320.58 160.96 317.87 C 163.44 315.62 167.62 317.46 169.90 314.97 C 170.04 312.83 168.35 311.34 167.08 309.88 C 161.94 304.42 156.99 298.79 151.83 293.35 L 151.48 293.30 C 151.81 293.06 152.48 292.59 152.82 292.36 Z" fill="#212043" opacity="1.00" stroke="#212043" stroke-width="0.25"/>
<path d="M 196.74 297.41 C 202.09 298.26 207.92 296.99 211.14 292.29 C 211.61 292.00 212.55 291.40 213.02 291.10 C 213.52 294.96 210.04 297.30 206.92 298.50 C 203.03 300.22 198.48 299.52 194.91 297.37 L 196.74 297.41 Z" fill="#05131c" opacity="1.00" stroke="#05131c" stroke-width="0.25"/>
<path d="M 319.52 296.36 C 325.89 298.87 333.86 297.79 337.95 291.87 C 340.78 290.38 339.70 294.36 338.39 295.12 C 333.34 300.85 323.67 301.04 318.08 295.98 L 319.52 296.36 Z" fill="#0b2229" opacity="1.00" stroke="#0b2229" stroke-width="0.25"/>
<path d="M 149.43 293.66 C 149.94 293.57 150.97 293.39 151.48 293.30 L 151.83 293.35 C 150.47 296.31 149.45 299.66 146.76 301.74 C 114.93 329.88 83.80 358.81 52.62 387.67 C 47.66 392.05 43.27 397.12 37.92 401.02 C 37.39 400.79 36.32 400.32 35.79 400.09 C 56.24 381.27 76.51 362.26 97.13 343.64 C 112.37 329.53 128.08 315.95 143.44 301.97 C 145.04 300.64 146.63 299.29 148.19 297.90 C 148.59 296.48 149.00 295.06 149.43 293.66 Z" fill="#d2d8e6" opacity="1.00" stroke="#d2d8e6" stroke-width="0.25"/>
<path d="M 151.83 293.35 C 156.99 298.79 161.94 304.42 167.08 309.88 C 168.35 311.34 170.04 312.83 169.90 314.97 C 167.62 317.46 163.44 315.62 160.96 317.87 C 157.67 320.58 154.77 323.73 151.60 326.57 C 133.29 344.28 114.59 361.57 96.45 379.47 C 82.34 393.03 67.89 406.26 53.92 419.97 C 50.78 412.16 45.11 405.41 37.92 401.02 C 43.27 397.12 47.66 392.05 52.62 387.67 C 83.80 358.81 114.93 329.88 146.76 301.74 C 149.45 299.66 150.47 296.31 151.83 293.35 Z" fill="#567c9d" opacity="1.00" stroke="#567c9d" stroke-width="0.25"/>
<path d="M 246.47 297.47 C 250.37 297.94 254.63 297.79 257.34 294.53 C 257.73 295.48 258.13 296.43 258.53 297.39 C 254.55 300.30 249.14 300.12 245.11 297.41 L 246.47 297.47 Z" fill="#052024" opacity="1.00" stroke="#052024" stroke-width="0.25"/>
<path d="M 334.13 308.84 C 336.85 305.17 340.13 301.97 343.17 298.57 C 342.62 302.02 341.97 305.46 340.94 308.81 C 338.67 308.83 336.39 308.83 334.13 308.84 Z" fill="#47867d" opacity="1.00" stroke="#47867d" stroke-width="0.25"/>
<path d="M 184.29 308.10 C 186.06 307.28 187.82 306.33 189.79 306.06 C 190.87 306.78 191.19 307.67 190.74 308.73 C 188.99 309.21 187.15 308.96 185.37 308.87 L 184.29 308.10 Z" fill="#567183" opacity="1.00" stroke="#567183" stroke-width="0.25"/>
<path d="M 198.75 309.33 C 237.51 308.98 276.28 309.28 315.04 309.21 C 318.87 309.16 322.70 309.36 326.49 309.94 C 326.08 310.41 325.25 311.35 324.83 311.83 C 324.68 311.82 324.38 311.81 324.23 311.81 C 317.16 311.18 310.06 311.57 302.97 311.45 C 275.66 311.45 248.34 311.44 221.02 311.45 C 214.61 311.54 208.18 311.22 201.79 311.83 C 200.76 311.01 199.74 310.19 198.75 309.33 Z" fill="#508b8c" opacity="1.00" stroke="#508b8c" stroke-width="0.25"/>
<path d="M 120.65 311.52 C 122.39 311.57 124.13 311.64 125.88 311.73 L 127.07 311.77 C 124.91 313.59 122.78 315.45 120.66 317.32 C 120.65 315.38 120.65 313.45 120.65 311.52 Z" fill="#d2d8e6" opacity="1.00" stroke="#d2d8e6" stroke-width="0.25"/>
<path d="M 181.40 311.47 C 185.77 311.44 190.18 311.30 194.52 311.65 C 200.21 317.00 206.64 321.43 213.17 325.69 C 194.68 325.80 176.19 325.61 157.70 325.76 C 159.44 323.39 161.66 321.47 163.95 319.66 C 164.74 319.94 166.32 320.49 167.11 320.77 C 172.20 318.17 176.37 314.12 181.40 311.47 Z" fill="#cbced3" opacity="1.00" stroke="#cbced3" stroke-width="0.25"/>
<path d="M 201.79 311.83 C 208.18 311.22 214.61 311.54 221.02 311.45 C 248.34 311.44 275.66 311.45 302.97 311.45 C 310.06 311.57 317.16 311.18 324.23 311.81 C 316.85 318.04 308.44 323.05 299.46 326.58 C 279.66 326.07 259.84 326.40 240.03 326.26 C 235.73 326.07 231.43 326.25 227.18 326.90 C 217.88 323.48 209.36 318.18 201.79 311.83 Z" fill="#c3e0df" opacity="1.00" stroke="#c3e0df" stroke-width="0.25"/>
<path d="M 312.69 325.55 C 319.35 321.57 325.53 316.91 331.30 311.73 C 335.18 311.20 339.11 311.54 343.01 311.51 C 363.79 311.58 384.58 311.46 405.36 311.55 C 404.84 316.21 406.94 321.97 403.22 325.68 C 373.04 325.63 342.86 325.90 312.69 325.55 Z" fill="#cccfd4" opacity="1.00" stroke="#cccfd4" stroke-width="0.25"/>
<path d="M 241.62 317.60 C 243.85 317.41 246.69 316.60 248.10 318.97 C 249.91 322.13 245.93 326.04 242.86 324.10 C 240.27 322.94 241.55 319.75 241.62 317.60 Z" fill="#5897a1" opacity="1.00" stroke="#5897a1" stroke-width="0.25"/>
<path d="M 280.30 317.33 C 281.64 317.03 283.07 317.10 284.39 317.53 C 286.98 319.55 285.50 324.90 282.00 324.54 C 278.04 325.15 276.71 318.47 280.30 317.33 Z" fill="#5597a5" opacity="1.00" stroke="#5597a5" stroke-width="0.25"/>
<path d="M 73.15 321.51 C 74.42 321.43 75.70 321.36 76.97 321.29 C 77.24 322.99 77.50 324.69 77.74 326.40 C 76.39 326.44 75.05 326.49 73.71 326.53 C 73.51 324.85 73.32 323.18 73.15 321.51 Z" fill="#ecbd5d" opacity="1.00" stroke="#ecbd5d" stroke-width="0.25"/>
<path d="M 84.69 327.96 C 83.53 323.76 88.87 324.33 91.35 323.43 C 93.01 328.58 94.43 333.83 95.49 339.14 C 95.71 340.74 96.42 342.20 97.13 343.64 C 94.69 343.84 92.26 344.11 89.83 344.45 C 87.93 339.01 86.63 333.38 84.69 327.96 Z" fill="#21171b" opacity="1.00" stroke="#21171b" stroke-width="0.25"/>
<path d="M 227.18 326.90 C 231.43 326.25 235.73 326.07 240.03 326.26 C 259.84 326.40 279.66 326.07 299.46 326.58 C 296.36 327.81 293.29 329.16 290.05 329.96 C 285.77 328.03 281.00 328.37 276.48 329.07 C 276.42 330.02 276.30 331.91 276.24 332.86 C 275.82 332.94 274.97 333.09 274.55 333.16 C 274.23 331.63 273.92 330.10 273.61 328.57 C 266.61 328.51 259.61 328.60 252.61 328.54 C 252.27 330.10 251.93 331.66 251.59 333.23 C 249.67 332.98 247.75 332.68 245.85 332.32 C 247.30 332.37 248.75 332.40 250.21 332.42 C 249.89 331.13 249.57 329.85 249.26 328.58 C 244.82 328.63 240.19 328.20 236.01 330.01 C 232.94 329.36 230.02 328.19 227.18 326.90 Z" fill="#619499" opacity="1.00" stroke="#619499" stroke-width="0.25"/>
<path d="M 87.55 326.81 C 88.20 326.66 89.51 326.37 90.16 326.23 C 90.99 331.74 93.55 336.88 93.78 342.49 C 93.23 342.54 92.12 342.65 91.57 342.71 C 90.54 337.33 87.75 332.34 87.55 326.81 Z" fill="#eec169" opacity="1.00" stroke="#eec169" stroke-width="0.25"/>
<path d="M 76.16 328.40 C 76.90 328.31 78.38 328.12 79.13 328.03 C 81.49 335.19 85.13 341.95 86.70 349.35 C 85.71 349.42 84.72 349.49 83.73 349.56 C 81.69 343.95 79.39 338.44 77.03 332.96 C 76.35 331.53 76.30 329.94 76.16 328.40 Z" fill="#ba5e7c" opacity="1.00" stroke="#ba5e7c" stroke-width="0.25"/>
<path d="M 236.01 330.01 C 240.19 328.20 244.82 328.63 249.26 328.58 C 249.57 329.85 249.89 331.13 250.21 332.42 C 248.75 332.40 247.30 332.37 245.85 332.32 C 242.54 331.69 239.29 330.75 236.01 330.01 Z" fill="#b4dbe3" opacity="1.00" stroke="#b4dbe3" stroke-width="0.25"/>
<path d="M 252.61 328.54 C 259.61 328.60 266.61 328.51 273.61 328.57 C 273.92 330.10 274.23 331.63 274.55 333.16 C 266.93 334.02 259.21 334.12 251.59 333.23 C 251.93 331.66 252.27 330.10 252.61 328.54 Z" fill="#c0dfe0" opacity="1.00" stroke="#c0dfe0" stroke-width="0.25"/>
<path d="M 276.48 329.07 C 281.00 328.37 285.77 328.03 290.05 329.96 C 285.48 331.08 280.88 332.05 276.24 332.86 C 276.30 331.91 276.42 330.02 276.48 329.07 Z" fill="#c2e4e8" opacity="1.00" stroke="#c2e4e8" stroke-width="0.25"/>
<path d="M 442.76 338.67 C 447.21 335.13 451.58 331.35 456.57 328.57 C 456.25 334.77 455.97 341.11 454.34 347.12 C 453.64 348.19 452.99 349.29 452.36 350.39 C 452.21 349.77 451.91 348.53 451.76 347.91 C 451.84 347.58 451.99 346.92 452.07 346.59 C 453.01 342.42 453.40 338.16 453.56 333.90 C 449.87 336.35 446.17 338.83 443.00 341.94 C 444.22 342.53 445.52 343.20 446.76 343.81 C 445.44 343.79 444.09 343.86 442.79 343.97 C 434.75 357.64 428.17 372.16 420.44 386.03 C 420.48 386.54 420.55 387.55 420.59 388.06 C 420.24 388.40 419.55 389.08 419.20 389.42 C 418.96 389.48 418.48 389.60 418.24 389.67 C 417.65 389.79 416.46 390.04 415.87 390.17 C 417.06 387.38 418.44 384.68 419.80 381.98 C 423.39 375.41 426.65 368.67 430.25 362.12 C 434.48 354.34 438.04 346.16 442.76 338.67 Z" fill="#19172e" opacity="1.00" stroke="#19172e" stroke-width="0.25"/>
<path d="M 64.65 330.46 C 65.06 330.44 65.87 330.41 66.27 330.39 C 71.20 337.76 76.28 345.06 80.79 352.71 L 79.39 353.94 C 74.49 346.90 70.39 339.25 64.79 332.75 C 69.23 339.35 73.52 346.05 78.04 352.60 L 76.20 352.62 C 74.81 352.85 74.56 350.87 73.74 350.13 C 69.91 344.38 66.20 338.54 62.22 332.90 C 63.03 332.08 63.84 331.27 64.65 330.46 Z" fill="#21171b" opacity="1.00" stroke="#21171b" stroke-width="0.25"/>
<path d="M 64.79 332.75 C 70.39 339.25 74.49 346.90 79.39 353.94 C 79.51 354.15 79.75 354.58 79.88 354.80 C 79.26 354.06 78.65 353.33 78.04 352.60 C 73.52 346.05 69.23 339.35 64.79 332.75 Z" fill="#cbced3" opacity="1.00" stroke="#cbced3" stroke-width="0.25"/>
<path d="M 443.00 341.94 C 446.17 338.83 449.87 336.35 453.56 333.90 C 453.40 338.16 453.01 342.42 452.07 346.59 C 450.31 345.63 448.55 344.68 446.76 343.81 C 445.52 343.20 444.22 342.53 443.00 341.94 Z" fill="#e8c5d2" opacity="1.00" stroke="#e8c5d2" stroke-width="0.25"/>
<path d="M 243.97 337.64 C 244.50 337.54 245.56 337.36 246.08 337.27 C 244.57 346.25 243.54 355.31 241.98 364.29 C 241.54 364.23 240.65 364.10 240.20 364.03 C 241.14 355.19 242.89 346.46 243.97 337.64 Z" fill="#fbfeff" opacity="1.00" stroke="#fbfeff" stroke-width="0.25"/>
<path d="M 246.08 337.27 C 255.97 339.13 266.10 338.88 276.08 338.14 C 277.03 346.90 278.92 355.53 280.01 364.27 C 267.33 364.29 254.66 364.26 241.98 364.29 C 243.54 355.31 244.57 346.25 246.08 337.27 Z" fill="#cbced5" opacity="1.00" stroke="#cbced5" stroke-width="0.25"/>
<path d="M 442.79 343.97 C 444.09 343.86 445.44 343.79 446.76 343.81 C 448.55 344.68 450.31 345.63 452.07 346.59 C 451.99 346.92 451.84 347.58 451.76 347.91 C 451.91 348.53 452.21 349.77 452.36 350.39 C 450.48 353.88 448.67 357.40 446.81 360.90 C 445.81 362.85 444.79 364.79 443.74 366.72 C 441.87 370.19 440.07 373.70 438.18 377.16 C 437.35 378.69 436.54 380.23 435.73 381.77 C 432.52 388.39 428.68 394.68 425.29 401.20 C 426.55 405.51 423.07 408.69 421.39 412.30 C 417.70 419.32 413.97 426.32 410.25 433.33 C 405.70 441.24 402.13 449.71 397.18 457.38 C 396.34 457.10 395.52 456.81 394.70 456.52 C 392.42 455.70 390.27 454.61 388.18 453.42 C 387.63 453.00 386.52 452.17 385.96 451.76 C 386.03 449.37 386.10 446.98 386.06 444.60 C 390.96 434.72 396.08 424.93 401.16 415.13 C 402.00 413.36 402.88 411.61 403.76 409.86 C 406.24 405.21 408.87 400.61 410.80 395.70 C 411.39 395.67 412.58 395.63 413.17 395.61 C 413.95 393.74 414.58 391.75 415.87 390.17 C 416.46 390.04 417.65 389.79 418.24 389.67 C 417.24 392.10 416.19 394.50 415.18 396.93 C 417.76 397.92 420.10 400.51 422.96 400.35 C 424.43 398.23 425.53 395.89 426.77 393.63 C 424.22 392.26 421.68 390.89 419.20 389.42 C 419.55 389.08 420.24 388.40 420.59 388.06 C 420.95 388.18 421.66 388.41 422.02 388.53 C 423.95 389.45 425.81 390.68 427.97 391.01 C 435.07 378.54 441.37 365.56 448.27 352.96 C 448.69 351.32 450.36 349.38 449.28 347.79 C 447.20 346.37 444.84 345.43 442.79 343.97 Z" fill="#21171b" opacity="1.00" stroke="#21171b" stroke-width="0.25"/>
<path d="M 420.44 386.03 C 428.17 372.16 434.75 357.64 442.79 343.97 C 444.84 345.43 447.20 346.37 449.28 347.79 C 450.36 349.38 448.69 351.32 448.27 352.96 C 448.64 351.32 449.05 349.57 448.15 348.03 C 447.31 346.07 443.59 345.26 442.85 347.69 C 437.86 357.37 432.91 367.08 427.74 376.68 C 425.71 380.57 423.08 384.21 422.02 388.53 C 421.66 388.41 420.95 388.18 420.59 388.06 C 420.55 387.55 420.48 386.54 420.44 386.03 Z" fill="#fff1d1" opacity="1.00" stroke="#fff1d1" stroke-width="0.25"/>
<path d="M 442.85 347.69 C 443.59 345.26 447.31 346.07 448.15 348.03 C 449.05 349.57 448.64 351.32 448.27 352.96 C 441.37 365.56 435.07 378.54 427.97 391.01 C 425.81 390.68 423.95 389.45 422.02 388.53 C 423.08 384.21 425.71 380.57 427.74 376.68 C 432.91 367.08 437.86 357.37 442.85 347.69 Z" fill="#fcb431" opacity="1.00" stroke="#fcb431" stroke-width="0.25"/>
<path d="M 210.53 366.82 C 215.98 367.62 221.49 367.14 226.98 367.25 C 255.83 367.36 284.68 367.05 313.53 367.39 C 316.82 370.35 315.51 375.04 315.69 378.94 C 279.89 379.49 244.08 378.51 208.26 378.85 C 208.35 375.35 209.10 371.92 210.21 368.61 C 210.28 368.23 210.42 367.46 210.49 367.08 L 210.53 366.82 Z" fill="#cccfd4" opacity="1.00" stroke="#cccfd4" stroke-width="0.25"/>
<path d="M 206.49 370.48 C 207.65 369.16 208.85 367.82 210.49 367.08 C 210.42 367.46 210.28 368.23 210.21 368.61 C 209.10 371.92 208.35 375.35 208.26 378.85 C 207.82 378.85 206.95 378.83 206.51 378.82 C 206.54 376.04 206.53 373.26 206.49 370.48 Z" fill="#fcfdff" opacity="1.00" stroke="#fcfdff" stroke-width="0.25"/>
<path d="M 91.18 389.03 C 95.73 384.08 100.88 379.66 105.84 375.10 C 113.12 395.63 121.42 415.77 128.79 436.26 C 123.82 438.26 119.02 441.30 113.60 441.75 C 107.04 427.20 100.69 412.55 94.28 397.93 C 93.08 395.04 91.09 392.28 91.18 389.03 Z" fill="#d55975" opacity="1.00" stroke="#d55975" stroke-width="0.25"/>
<path d="M 136.58 379.51 C 158.43 378.59 180.35 379.73 202.21 378.91 L 203.30 379.68 C 203.74 380.06 204.18 380.45 204.61 380.86 L 205.57 381.73 C 183.25 381.81 160.92 381.84 138.59 381.68 C 138.52 383.27 138.46 384.87 138.42 386.48 L 139.05 386.98 C 140.57 388.47 142.82 388.38 144.74 388.95 L 145.27 389.52 C 142.42 389.27 139.57 389.28 136.72 389.21 C 136.10 386.01 136.16 382.73 136.58 379.51 Z" fill="#2a1e2d" opacity="1.00" stroke="#2a1e2d" stroke-width="0.25"/>
<path d="M 318.56 379.29 C 336.03 379.18 353.52 379.26 371.00 379.25 C 374.67 378.89 377.91 381.55 379.42 384.70 C 380.83 394.94 380.14 405.28 379.44 415.55 C 378.63 416.45 377.83 417.37 376.96 418.21 L 376.17 418.09 C 376.13 418.85 376.06 420.39 376.02 421.16 C 371.21 421.46 366.38 421.45 361.56 421.38 C 361.51 421.55 361.41 421.90 361.36 422.07 C 360.72 423.98 360.01 425.92 360.06 427.98 C 359.91 435.36 360.62 442.76 359.80 450.13 C 359.22 440.58 359.76 431.00 359.57 421.44 C 357.93 421.47 356.29 421.51 354.66 421.57 C 355.72 421.20 356.78 420.82 357.84 420.44 C 357.95 420.01 358.18 419.15 358.29 418.71 C 358.46 417.89 358.62 417.06 358.76 416.24 C 359.15 416.84 359.93 418.04 360.32 418.64 C 361.65 418.59 362.97 418.47 364.29 418.27 L 366.15 418.49 C 369.11 418.45 372.81 419.55 375.10 417.10 C 377.78 414.51 377.16 410.36 377.41 406.98 C 377.27 400.03 377.92 393.02 377.02 386.12 C 375.80 381.50 370.16 381.13 366.31 382.20 L 364.36 382.86 C 364.33 382.61 364.27 382.11 364.24 381.85 C 362.97 381.78 361.70 381.77 360.44 381.76 L 358.48 381.74 C 307.51 381.85 256.54 381.88 205.57 381.73 L 204.61 380.86 C 208.39 380.66 212.18 380.55 215.98 380.59 C 249.90 380.76 283.83 380.49 317.75 380.69 C 317.95 380.34 318.35 379.64 318.56 379.29 Z" fill="#251a2b" opacity="1.00" stroke="#251a2b" stroke-width="0.25"/>
<path d="M 83.14 380.93 C 85.44 381.10 88.12 384.26 85.00 385.56 C 82.93 384.87 83.10 382.66 83.14 380.93 Z" fill="#22395f" opacity="1.00" stroke="#22395f" stroke-width="0.25"/>
<path d="M 360.44 381.76 C 361.70 381.77 362.97 381.78 364.24 381.85 C 364.27 382.11 364.33 382.61 364.36 382.86 C 365.52 394.64 365.52 406.50 364.29 418.27 C 362.97 418.47 361.65 418.59 360.32 418.64 C 362.03 411.55 361.71 404.22 361.72 396.99 C 361.67 391.89 361.56 386.75 360.44 381.76 Z" fill="#f0b957" opacity="1.00" stroke="#f0b957" stroke-width="0.25"/>
<path d="M 138.59 381.68 C 160.92 381.84 183.25 381.81 205.57 381.73 C 256.54 381.88 307.51 381.85 358.48 381.74 C 360.02 393.15 360.19 404.81 358.76 416.24 C 358.62 417.06 358.46 417.89 358.29 418.71 C 284.71 418.73 211.12 418.76 137.54 418.73 C 137.49 417.04 137.45 415.34 137.40 413.66 C 141.23 414.31 145.13 414.29 149.01 414.20 C 176.00 414.13 202.99 414.26 229.98 414.11 C 235.73 414.47 240.00 409.29 240.82 404.01 C 242.23 397.55 240.05 389.07 233.10 386.86 C 230.11 386.33 227.06 386.30 224.04 386.31 C 195.50 386.37 166.95 386.16 138.42 386.48 C 138.46 384.87 138.52 383.27 138.59 381.68 Z" fill="#e4bd70" opacity="1.00" stroke="#e4bd70" stroke-width="0.25"/>
<path d="M 358.48 381.74 L 360.44 381.76 C 361.56 386.75 361.67 391.89 361.72 396.99 C 361.71 404.22 362.03 411.55 360.32 418.64 C 359.93 418.04 359.15 416.84 358.76 416.24 C 360.19 404.81 360.02 393.15 358.48 381.74 Z" fill="#21171b" opacity="1.00" stroke="#21171b" stroke-width="0.25"/>
<path d="M 366.31 382.20 C 370.16 381.13 375.80 381.50 377.02 386.12 C 377.92 393.02 377.27 400.03 377.41 406.98 C 377.16 410.36 377.78 414.51 375.10 417.10 C 372.81 419.55 369.11 418.45 366.15 418.49 C 366.76 415.34 367.35 412.18 367.43 408.97 C 367.67 400.04 367.90 391.03 366.31 382.20 Z" fill="#edb769" opacity="1.00" stroke="#edb769" stroke-width="0.25"/>
<path d="M 139.89 383.93 C 147.15 382.48 154.61 383.72 161.95 383.17 C 168.28 382.48 174.61 383.50 180.95 383.27 C 220.98 383.33 261.00 383.23 301.03 383.27 C 313.36 382.80 325.69 383.41 338.04 383.25 C 343.93 383.39 349.87 382.45 355.73 383.46 C 357.34 383.55 357.35 385.64 357.68 386.82 C 358.89 394.82 358.43 402.97 358.23 411.03 C 357.88 413.28 358.24 417.41 354.99 417.40 C 300.66 417.41 246.32 417.55 191.98 417.39 C 174.49 417.30 156.99 417.70 139.50 417.22 C 139.88 416.82 140.64 416.02 141.01 415.62 C 171.35 415.21 201.72 415.74 232.06 415.36 C 237.45 415.07 240.91 409.93 242.18 405.16 C 243.49 399.05 242.64 391.68 237.51 387.49 C 234.34 384.71 229.82 385.48 225.95 385.36 C 198.61 385.46 171.27 385.39 143.93 385.39 C 142.42 385.40 141.08 384.91 139.89 383.93 Z" fill="#ffb631" opacity="1.00" stroke="#ffb631" stroke-width="0.25"/>
<path d="M 364.36 382.86 L 366.31 382.20 C 367.90 391.03 367.67 400.04 367.43 408.97 C 367.35 412.18 366.76 415.34 366.15 418.49 L 364.29 418.27 C 365.52 406.50 365.52 394.64 364.36 382.86 Z" fill="#4e2e05" opacity="1.00" stroke="#4e2e05" stroke-width="0.25"/>
<path d="M 368.82 382.89 C 371.28 383.40 374.79 383.84 375.36 386.87 C 376.05 391.21 375.66 395.65 375.84 400.03 C 375.74 404.65 376.11 409.37 375.12 413.92 C 374.28 416.66 371.14 417.29 368.64 417.34 C 368.32 411.24 368.72 405.14 368.66 399.05 C 368.77 393.66 368.15 388.26 368.82 382.89 Z" fill="#ffb52e" opacity="1.00" stroke="#ffb52e" stroke-width="0.25"/>
<path d="M 138.42 386.48 C 166.95 386.16 195.50 386.37 224.04 386.31 C 227.06 386.30 230.11 386.33 233.10 386.86 C 201.75 386.94 170.40 386.60 139.05 386.98 L 138.42 386.48 Z" fill="#ab8559" opacity="1.00" stroke="#ab8559" stroke-width="0.25"/>
<path d="M 139.05 386.98 C 170.40 386.60 201.75 386.94 233.10 386.86 C 240.05 389.07 242.23 397.55 240.82 404.01 C 240.00 409.29 235.73 414.47 229.98 414.11 C 202.99 414.26 176.00 414.13 149.01 414.20 C 145.13 414.29 141.23 414.31 137.40 413.66 C 141.52 412.34 145.85 413.55 150.08 413.22 C 156.35 412.84 162.63 413.42 168.91 413.24 C 187.60 412.22 206.33 412.95 225.04 412.81 C 227.28 412.78 229.52 412.43 231.68 411.83 C 233.61 411.47 235.20 410.24 236.57 408.91 C 240.43 406.06 240.00 400.82 238.93 396.69 C 238.36 395.38 237.75 394.10 237.09 392.84 C 235.53 391.00 233.65 388.93 230.99 389.19 C 203.32 388.97 175.65 389.26 147.98 389.13 C 148.63 390.62 149.29 392.11 149.93 393.62 C 149.50 393.81 148.65 394.18 148.23 394.37 L 148.01 394.46 C 147.35 392.69 146.49 390.97 145.27 389.52 L 144.74 388.95 C 142.82 388.38 140.57 388.47 139.05 386.98 Z" fill="#43260b" opacity="1.00" stroke="#43260b" stroke-width="0.25"/>
<path d="M 72.16 396.15 C 71.80 392.48 75.55 389.75 78.79 389.04 C 78.70 389.61 78.53 390.74 78.45 391.30 C 76.47 393.06 74.42 394.75 72.16 396.15 Z" fill="#1f2649" opacity="1.00" stroke="#1f2649" stroke-width="0.25"/>
<path d="M 147.98 389.13 C 175.65 389.26 203.32 388.97 230.99 389.19 C 233.65 388.93 235.53 391.00 237.09 392.84 C 212.40 393.45 187.71 392.87 163.02 393.10 C 158.70 393.10 154.34 392.77 150.07 393.57 L 149.93 393.62 C 149.29 392.11 148.63 390.62 147.98 389.13 Z" fill="#d9dbe3" opacity="1.00" stroke="#d9dbe3" stroke-width="0.25"/>
<path d="M 418.24 389.67 C 418.48 389.60 418.96 389.48 419.20 389.42 C 421.68 390.89 424.22 392.26 426.77 393.63 C 425.53 395.89 424.43 398.23 422.96 400.35 C 420.10 400.51 417.76 397.92 415.18 396.93 C 416.19 394.50 417.24 392.10 418.24 389.67 Z" fill="#eec169" opacity="1.00" stroke="#eec169" stroke-width="0.25"/>
<path d="M 419.30 392.05 C 421.08 392.60 423.38 392.92 424.02 395.01 C 423.65 396.24 422.93 397.34 422.01 398.23 C 420.12 398.32 418.68 396.74 417.08 395.94 C 417.82 394.65 418.56 393.35 419.30 392.05 Z" fill="#ffb82c" opacity="1.00" stroke="#ffb82c" stroke-width="0.25"/>
<path d="M 150.07 393.57 C 154.34 392.77 158.70 393.10 163.02 393.10 C 187.71 392.87 212.40 393.45 237.09 392.84 C 237.75 394.10 238.36 395.38 238.93 396.69 C 235.42 396.92 231.81 396.81 228.44 397.97 C 231.82 398.77 235.30 398.51 238.73 398.49 C 238.70 399.16 238.64 400.51 238.61 401.18 C 228.17 401.15 217.74 401.17 207.31 401.18 C 207.32 401.57 207.35 402.33 207.36 402.71 C 217.89 402.64 228.43 402.71 238.96 402.68 C 238.19 403.88 238.39 406.87 236.17 406.31 C 227.87 406.33 219.58 406.26 211.28 406.31 C 211.30 406.67 211.34 407.38 211.36 407.73 C 219.72 407.69 228.09 407.67 236.46 407.77 L 236.57 408.91 C 235.20 410.24 233.61 411.47 231.68 411.83 C 203.54 411.51 175.38 411.77 147.24 411.72 C 148.15 410.40 149.05 409.09 149.96 407.78 C 156.97 407.75 163.98 407.83 170.99 407.84 C 172.96 407.87 174.92 407.57 176.80 406.98 C 168.15 405.46 159.26 406.50 150.51 406.34 C 150.61 405.44 150.79 403.65 150.89 402.76 C 160.08 402.36 169.40 403.55 178.50 402.09 C 175.88 400.79 172.92 401.08 170.10 401.06 C 163.87 401.15 157.65 401.01 151.43 401.17 C 151.44 399.79 151.46 398.42 151.47 397.05 C 151.12 396.18 150.42 394.44 150.07 393.57 Z" fill="#fefefe" opacity="1.00" stroke="#fefefe" stroke-width="0.25"/>
<path d="M 148.23 394.37 C 148.65 394.18 149.50 393.81 149.93 393.62 L 150.07 393.57 C 150.42 394.44 151.12 396.18 151.47 397.05 C 151.46 398.42 151.44 399.79 151.43 401.17 C 157.65 401.01 163.87 401.15 170.10 401.06 C 172.92 401.08 175.88 400.79 178.50 402.09 C 169.40 403.55 160.08 402.36 150.89 402.76 C 150.79 403.65 150.61 405.44 150.51 406.34 C 159.26 406.50 168.15 405.46 176.80 406.98 C 174.92 407.57 172.96 407.87 170.99 407.84 C 163.98 407.83 156.97 407.75 149.96 407.78 C 149.05 409.09 148.15 410.40 147.24 411.72 C 175.38 411.77 203.54 411.51 231.68 411.83 C 229.52 412.43 227.28 412.78 225.04 412.81 C 206.33 412.95 187.60 412.22 168.91 413.24 C 162.63 413.42 156.35 412.84 150.08 413.22 C 145.85 413.55 141.52 412.34 137.40 413.66 C 137.45 415.34 137.49 417.04 137.54 418.73 L 137.58 420.20 C 137.29 420.22 136.72 420.25 136.44 420.27 C 136.58 420.67 136.88 421.46 137.03 421.86 C 137.23 422.40 137.63 423.49 137.83 424.03 L 138.57 424.23 C 140.13 424.72 141.66 425.30 143.23 425.75 C 144.38 428.32 145.48 430.91 146.34 433.60 C 154.75 433.76 163.16 433.42 171.56 433.86 C 170.59 434.82 169.45 435.29 168.12 435.27 C 160.83 435.39 153.53 435.28 146.24 435.28 C 146.21 436.39 146.19 437.51 146.16 438.63 C 156.02 438.70 165.88 438.43 175.74 438.74 C 175.36 439.89 174.91 441.03 174.37 442.12 C 174.52 441.57 174.82 440.48 174.97 439.93 C 165.35 440.55 155.71 440.00 146.09 440.27 C 145.24 441.80 144.36 443.32 143.44 444.81 C 143.46 444.98 143.52 445.33 143.54 445.51 L 143.87 447.48 C 141.68 447.49 139.50 447.54 137.32 447.59 C 137.27 448.69 137.22 449.81 137.17 450.92 C 151.47 452.01 165.78 450.31 180.09 450.81 C 177.21 451.42 175.05 453.34 174.30 456.23 C 173.64 455.72 172.97 455.23 172.29 454.76 C 163.04 455.04 153.76 454.46 144.51 455.14 C 146.06 457.43 146.91 460.06 147.53 462.74 C 156.23 462.88 164.95 462.49 173.65 462.95 C 173.21 463.26 172.32 463.89 171.88 464.21 C 163.73 464.53 155.54 464.31 147.38 464.24 C 147.28 465.39 147.18 466.53 147.09 467.69 C 156.19 467.79 165.30 467.73 174.40 467.69 L 174.47 469.49 C 165.21 469.30 155.95 469.42 146.69 469.39 C 145.86 471.02 145.01 472.65 144.17 474.28 C 143.06 474.27 141.95 474.26 140.85 474.25 C 142.12 472.59 143.64 471.01 144.27 468.98 C 144.96 465.23 145.53 460.90 143.35 457.52 C 141.55 454.41 137.26 455.23 134.45 453.53 C 134.50 450.88 134.54 448.24 134.60 445.60 C 136.53 445.23 138.64 445.38 140.42 444.46 C 145.41 439.99 144.87 431.16 140.26 426.60 C 138.33 426.38 136.40 426.06 134.57 425.38 C 134.70 421.27 134.33 417.14 134.75 413.04 C 137.32 409.53 143.39 413.86 145.85 409.87 C 149.46 405.56 149.00 399.56 148.23 394.37 Z" fill="#312147" opacity="1.00" stroke="#312147" stroke-width="0.25"/>
<path d="M 151.71 396.86 C 163.97 396.93 176.23 396.82 188.49 396.87 L 188.49 398.68 C 176.19 398.45 163.88 398.64 151.57 398.54 L 151.71 396.86 Z" fill="#302d3d" opacity="1.00" stroke="#302d3d" stroke-width="0.25"/>
<path d="M 228.44 397.97 C 231.81 396.81 235.42 396.92 238.93 396.69 C 240.00 400.82 240.43 406.06 236.57 408.91 L 236.46 407.77 C 228.09 407.67 219.72 407.69 211.36 407.73 C 211.34 407.38 211.30 406.67 211.28 406.31 C 219.58 406.26 227.87 406.33 236.17 406.31 C 238.39 406.87 238.19 403.88 238.96 402.68 C 228.43 402.71 217.89 402.64 207.36 402.71 C 207.35 402.33 207.32 401.57 207.31 401.18 C 217.74 401.17 228.17 401.15 238.61 401.18 C 238.64 400.51 238.70 399.16 238.73 398.49 C 235.30 398.51 231.82 398.77 228.44 397.97 Z" fill="#19172e" opacity="1.00" stroke="#19172e" stroke-width="0.25"/>
<path d="M 62.15 402.92 C 64.04 400.99 65.97 399.10 67.93 397.26 C 68.32 397.71 69.10 398.62 69.49 399.07 C 67.47 401.06 65.37 402.97 63.20 404.79 C 62.94 404.32 62.41 403.39 62.15 402.92 Z" fill="#1f2649" opacity="1.00" stroke="#1f2649" stroke-width="0.25"/>
<path d="M 388.37 445.14 C 396.67 429.57 404.44 413.73 412.78 398.18 C 413.37 398.61 414.54 399.47 415.13 399.90 L 415.25 400.08 C 416.41 402.33 418.51 403.76 420.56 405.11 C 419.22 407.71 418.18 410.45 417.63 413.33 C 417.29 414.90 416.54 416.32 415.81 417.74 C 409.12 430.07 402.71 442.55 396.11 454.93 C 392.73 453.89 390.13 451.05 386.61 450.54 C 386.98 448.67 387.37 446.79 388.37 445.14 Z" fill="#fdb52f" opacity="1.00" stroke="#fdb52f" stroke-width="0.25"/>
<path d="M 415.25 400.08 C 417.99 400.97 420.44 402.51 422.92 403.94 C 421.49 407.24 419.87 410.50 417.63 413.33 C 418.18 410.45 419.22 407.71 420.56 405.11 C 418.51 403.76 416.41 402.33 415.25 400.08 Z" fill="#edb769" opacity="1.00" stroke="#edb769" stroke-width="0.25"/>
<path d="M 32.48 402.20 C 36.52 402.15 39.85 404.73 42.57 407.44 C 46.53 411.42 50.24 415.92 51.88 421.39 C 44.56 424.21 36.57 419.38 33.37 412.75 C 31.73 409.48 32.41 405.70 32.48 402.20 Z" fill="#577d9d" opacity="1.00" stroke="#577d9d" stroke-width="0.25"/>
<path d="M 376.17 418.09 L 376.96 418.21 C 378.33 418.47 379.69 418.83 381.05 419.17 C 380.05 419.59 376.52 418.58 377.58 420.60 C 378.41 421.12 379.26 421.62 380.13 422.09 C 374.22 421.47 368.29 421.52 362.36 421.44 C 360.74 430.78 362.30 440.31 361.46 449.73 L 361.41 450.40 C 361.46 440.96 361.53 431.51 361.36 422.07 C 361.41 421.90 361.51 421.55 361.56 421.38 C 366.38 421.45 371.21 421.46 376.02 421.16 C 376.06 420.39 376.13 418.85 376.17 418.09 Z" fill="#567d9e" opacity="1.00" stroke="#567d9e" stroke-width="0.25"/>
<path d="M 137.54 418.73 C 211.12 418.76 284.71 418.73 358.29 418.71 C 358.18 419.15 357.95 420.01 357.84 420.44 C 356.78 420.82 355.72 421.20 354.66 421.57 C 354.58 430.86 354.68 440.16 354.63 449.46 C 354.23 449.40 353.44 449.30 353.04 449.24 C 352.91 439.76 353.07 430.27 352.97 420.79 C 330.30 420.45 307.62 420.80 284.95 420.62 C 272.28 420.81 259.60 420.29 246.94 420.77 L 246.79 421.72 C 246.41 431.30 246.61 440.91 246.72 450.50 C 246.19 450.50 245.15 450.50 244.63 450.50 C 244.60 441.00 244.53 431.51 244.57 422.02 C 244.06 421.82 243.02 421.42 242.51 421.23 C 241.05 420.72 239.53 420.42 237.99 420.37 C 204.52 420.35 171.05 420.42 137.58 420.20 L 137.54 418.73 Z" fill="#302221" opacity="1.00" stroke="#302221" stroke-width="0.25"/>
<path d="M 136.44 420.27 C 136.72 420.25 137.29 420.22 137.58 420.20 C 171.05 420.42 204.52 420.35 237.99 420.37 C 239.53 420.42 241.05 420.72 242.51 421.23 C 242.14 430.95 242.17 440.71 242.43 450.44 C 242.98 450.46 244.08 450.48 244.63 450.50 C 245.15 450.50 246.19 450.50 246.72 450.50 C 276.12 450.46 305.52 450.28 334.92 450.25 C 340.78 450.15 346.67 450.56 352.49 449.67 C 352.39 440.27 352.59 430.87 352.49 421.47 C 317.25 421.40 282.02 421.66 246.79 421.72 L 246.94 420.77 C 259.60 420.29 272.28 420.81 284.95 420.62 C 307.62 420.80 330.30 420.45 352.97 420.79 C 353.07 430.27 352.91 439.76 353.04 449.24 C 353.44 449.30 354.23 449.40 354.63 449.46 C 356.35 449.67 358.07 449.90 359.80 450.13 C 359.67 459.52 359.44 468.93 359.92 478.32 C 359.83 478.60 359.65 479.16 359.56 479.45 C 359.12 470.52 359.48 461.57 359.45 452.64 C 346.95 452.85 334.44 452.41 321.95 453.20 C 306.47 453.32 290.99 453.28 275.51 453.44 C 275.27 461.88 275.58 470.32 275.30 478.76 C 274.61 478.69 273.94 478.64 273.26 478.62 C 273.36 470.27 273.33 461.92 273.33 453.58 C 272.45 453.54 271.58 453.50 270.70 453.47 C 270.51 461.92 270.80 470.39 270.52 478.84 L 270.47 479.56 C 270.20 479.04 269.68 478.00 269.41 477.48 C 269.74 469.86 269.98 462.17 269.05 454.57 C 269.02 454.23 268.97 453.55 268.94 453.21 C 264.04 453.01 259.13 453.00 254.22 453.16 C 254.19 461.72 254.62 470.30 253.81 478.84 L 252.42 477.44 C 252.11 470.59 252.39 463.74 252.28 456.89 C 252.34 455.29 251.63 453.81 250.97 452.41 C 249.29 456.04 249.76 460.08 249.74 463.96 C 249.77 468.93 249.71 473.90 249.75 478.87 C 249.20 478.74 248.11 478.48 247.56 478.35 C 247.77 470.10 247.53 461.85 247.77 453.61 C 223.69 453.55 199.61 453.72 175.55 454.15 C 181.10 460.69 180.57 472.91 171.72 476.28 C 171.83 475.76 172.04 474.74 172.15 474.23 C 173.60 472.41 175.71 470.95 176.32 468.59 C 177.31 464.45 177.08 459.68 174.30 456.23 C 175.05 453.34 177.21 451.42 180.09 450.81 C 200.01 450.82 219.93 450.61 239.84 450.61 C 239.89 440.98 239.86 431.35 239.91 421.72 C 214.61 421.92 189.30 421.54 164.01 422.13 C 155.02 422.00 146.02 422.19 137.03 421.86 C 136.88 421.46 136.58 420.67 136.44 420.27 Z" fill="#3e193f" opacity="1.00" stroke="#3e193f" stroke-width="0.25"/>
<path d="M 377.58 420.60 C 376.52 418.58 380.05 419.59 381.05 419.17 C 382.89 420.43 384.59 422.04 385.51 424.12 C 386.29 430.92 384.77 437.87 386.06 444.60 C 386.10 446.98 386.03 449.37 385.96 451.76 C 385.06 451.06 384.15 450.37 383.25 449.69 C 383.14 442.79 383.29 435.88 383.29 428.98 C 383.25 426.42 382.86 423.16 380.13 422.09 C 379.26 421.62 378.41 421.12 377.58 420.60 Z" fill="#372247" opacity="1.00" stroke="#372247" stroke-width="0.25"/>
<path d="M 137.03 421.86 C 146.02 422.19 155.02 422.00 164.01 422.13 C 189.30 421.54 214.61 421.92 239.91 421.72 C 239.86 431.35 239.89 440.98 239.84 450.61 C 219.93 450.61 200.01 450.82 180.09 450.81 C 165.78 450.31 151.47 452.01 137.17 450.92 C 137.22 449.81 137.27 448.69 137.32 447.59 C 139.50 447.54 141.68 447.49 143.87 447.48 C 153.18 447.24 162.57 448.03 171.83 447.07 C 179.67 443.09 180.07 430.79 173.61 425.33 C 171.11 423.66 167.88 423.90 165.01 423.85 C 156.21 424.36 147.39 424.19 138.57 424.23 L 137.83 424.03 C 137.63 423.49 137.23 422.40 137.03 421.86 Z" fill="#bc5f7d" opacity="1.00" stroke="#bc5f7d" stroke-width="0.25"/>
<path d="M 242.51 421.23 C 243.02 421.42 244.06 421.82 244.57 422.02 C 244.53 431.51 244.60 441.00 244.63 450.50 C 244.08 450.48 242.98 450.46 242.43 450.44 C 242.17 440.71 242.14 430.95 242.51 421.23 Z" fill="#efc86d" opacity="1.00" stroke="#efc86d" stroke-width="0.25"/>
<path d="M 246.79 421.72 C 282.02 421.66 317.25 421.40 352.49 421.47 C 352.59 430.87 352.39 440.27 352.49 449.67 C 346.67 450.56 340.78 450.15 334.92 450.25 C 305.52 450.28 276.12 450.46 246.72 450.50 C 246.61 440.91 246.41 431.30 246.79 421.72 Z" fill="#d75875" opacity="1.00" stroke="#d75875" stroke-width="0.25"/>
<path d="M 354.66 421.57 C 356.29 421.51 357.93 421.47 359.57 421.44 C 359.76 431.00 359.22 440.58 359.80 450.13 C 358.07 449.90 356.35 449.67 354.63 449.46 C 354.68 440.16 354.58 430.86 354.66 421.57 Z" fill="#f5b737" opacity="1.00" stroke="#f5b737" stroke-width="0.25"/>
<path d="M 361.46 449.73 C 362.30 440.31 360.74 430.78 362.36 421.44 C 368.29 421.52 374.22 421.47 380.13 422.09 C 382.86 423.16 383.25 426.42 383.29 428.98 C 383.29 435.88 383.14 442.79 383.25 449.69 C 375.99 449.87 368.73 449.70 361.46 449.73 Z" fill="#d45975" opacity="1.00" stroke="#d45975" stroke-width="0.25"/>
<path d="M 360.06 427.98 C 360.01 425.92 360.72 423.98 361.36 422.07 C 361.53 431.51 361.46 440.96 361.41 450.40 L 361.38 451.08 C 364.13 451.15 366.89 451.24 369.64 451.34 C 370.94 460.08 370.72 469.02 369.88 477.80 L 368.97 478.60 C 368.62 469.92 368.75 461.23 368.98 452.56 L 368.04 452.57 C 365.87 452.61 363.70 452.65 361.53 452.70 L 361.01 452.71 C 361.44 459.13 361.04 465.56 361.08 471.98 C 361.13 474.15 360.65 476.28 359.92 478.32 C 359.44 468.93 359.67 459.52 359.80 450.13 C 360.62 442.76 359.91 435.36 360.06 427.98 Z" fill="#3c1d18" opacity="1.00" stroke="#3c1d18" stroke-width="0.25"/>
<path d="M 138.57 424.23 C 147.39 424.19 156.21 424.36 165.01 423.85 C 167.88 423.90 171.11 423.66 173.61 425.33 C 180.07 430.79 179.67 443.09 171.83 447.07 C 162.57 448.03 153.18 447.24 143.87 447.48 L 143.54 445.51 C 152.05 445.19 160.58 445.57 169.09 445.36 C 171.31 445.41 173.14 443.82 174.37 442.12 C 174.91 441.03 175.36 439.89 175.74 438.74 C 175.68 435.03 176.37 430.52 173.23 427.79 C 171.66 426.04 169.18 425.81 166.98 425.81 C 159.07 425.78 151.14 426.09 143.23 425.75 C 141.66 425.30 140.13 424.72 138.57 424.23 Z" fill="#2b1b3b" opacity="1.00" stroke="#2b1b3b" stroke-width="0.25"/>
<path d="M 176.60 424.51 C 178.03 424.09 179.49 423.66 181.00 423.69 C 198.02 423.81 215.04 423.72 232.06 423.69 C 233.71 423.81 235.91 423.60 236.91 425.25 C 238.14 433.04 238.28 440.97 238.51 448.86 C 219.34 449.36 200.16 449.26 180.98 449.18 C 178.97 449.25 177.01 448.83 175.12 448.21 C 180.02 441.53 181.96 431.49 176.60 424.51 Z" fill="#d75875" opacity="1.00" stroke="#d75875" stroke-width="0.25"/>
<path d="M 143.23 425.75 C 151.14 426.09 159.07 425.78 166.98 425.81 C 169.18 425.81 171.66 426.04 173.23 427.79 C 176.37 430.52 175.68 435.03 175.74 438.74 C 165.88 438.43 156.02 438.70 146.16 438.63 C 146.19 437.51 146.21 436.39 146.24 435.28 C 153.53 435.28 160.83 435.39 168.12 435.27 C 169.45 435.29 170.59 434.82 171.56 433.86 C 163.16 433.42 154.75 433.76 146.34 433.60 C 145.48 430.91 144.38 428.32 143.23 425.75 Z" fill="#fefeff" opacity="1.00" stroke="#fefeff" stroke-width="0.25"/>
<path d="M 150.82 430.47 C 151.11 430.17 151.69 429.57 151.98 429.27 C 155.38 428.97 158.80 429.16 162.20 429.33 C 161.98 429.62 161.55 430.22 161.34 430.52 C 157.84 430.80 154.32 430.65 150.82 430.47 Z" fill="#19172e" opacity="1.00" stroke="#19172e" stroke-width="0.25"/>
<path d="M 146.09 440.27 C 155.71 440.00 165.35 440.55 174.97 439.93 C 174.82 440.48 174.52 441.57 174.37 442.12 C 173.14 443.82 171.31 445.41 169.09 445.36 C 160.58 445.57 152.05 445.19 143.54 445.51 C 143.52 445.33 143.46 444.98 143.44 444.81 C 144.36 443.32 145.24 441.80 146.09 440.27 Z" fill="#fefeff" opacity="1.00" stroke="#fefeff" stroke-width="0.25"/>
<path d="M 361.41 450.40 L 361.46 449.73 C 368.73 449.70 375.99 449.87 383.25 449.69 C 384.15 450.37 385.06 451.06 385.96 451.76 C 386.52 452.17 387.63 453.00 388.18 453.42 C 387.54 453.33 386.26 453.14 385.61 453.05 C 385.04 453.00 383.89 452.89 383.32 452.83 C 379.16 452.50 374.98 452.55 370.81 452.66 C 370.64 461.48 370.79 470.31 370.70 479.14 C 370.49 478.80 370.08 478.13 369.88 477.80 C 370.72 469.02 370.94 460.08 369.64 451.34 C 366.89 451.24 364.13 451.15 361.38 451.08 L 361.41 450.40 Z" fill="#3c1944" opacity="1.00" stroke="#3c1944" stroke-width="0.25"/>
<path d="M 254.22 453.16 C 259.13 453.00 264.04 453.01 268.94 453.21 C 268.97 453.55 269.02 454.23 269.05 454.57 C 268.46 462.55 268.66 470.55 268.94 478.54 C 268.83 478.80 268.60 479.33 268.49 479.59 C 263.83 479.59 259.16 479.62 254.50 479.54 C 254.33 479.36 253.98 479.02 253.81 478.84 C 254.62 470.30 254.19 461.72 254.22 453.16 Z" fill="#7e435e" opacity="1.00" stroke="#7e435e" stroke-width="0.25"/>
<path d="M 270.70 453.47 C 271.58 453.50 272.45 453.54 273.33 453.58 C 273.33 461.92 273.36 470.27 273.26 478.62 C 272.58 478.67 271.21 478.79 270.52 478.84 C 270.80 470.39 270.51 461.92 270.70 453.47 Z" fill="#efc86d" opacity="1.00" stroke="#efc86d" stroke-width="0.25"/>
<path d="M 275.51 453.44 C 290.99 453.28 306.47 453.32 321.95 453.20 C 334.44 452.41 346.95 452.85 359.45 452.64 C 359.48 461.57 359.12 470.52 359.56 479.45 C 333.38 479.10 307.18 479.47 281.00 479.28 C 279.09 479.19 277.19 478.96 275.30 478.76 C 275.58 470.32 275.27 461.88 275.51 453.44 Z" fill="#c36682" opacity="1.00" stroke="#c36682" stroke-width="0.25"/>
<path d="M 361.01 452.71 L 361.53 452.70 C 361.47 461.39 361.46 470.09 361.43 478.79 C 363.64 479.01 365.86 479.23 368.09 479.33 C 368.31 479.15 368.75 478.78 368.97 478.60 L 369.88 477.80 C 370.08 478.13 370.49 478.80 370.70 479.14 C 374.87 479.34 381.61 480.40 382.95 475.05 C 383.77 467.69 383.06 460.23 383.32 452.83 C 383.89 452.89 385.04 453.00 385.61 453.05 C 385.59 454.74 385.57 456.43 385.55 458.14 C 387.96 459.38 390.44 460.48 393.03 461.31 C 393.59 459.71 394.15 458.12 394.70 456.52 C 395.52 456.81 396.34 457.10 397.18 457.38 L 397.68 457.55 C 396.75 459.10 395.91 460.72 395.15 462.37 C 392.03 464.88 388.61 462.41 385.61 461.08 C 385.59 462.93 385.61 464.79 385.62 466.65 C 385.55 470.03 385.94 473.47 385.25 476.81 C 384.11 479.70 381.12 481.83 377.98 481.68 C 297.24 481.76 216.50 481.62 135.77 481.77 C 135.54 479.25 135.49 476.72 135.55 474.20 C 137.32 474.20 139.08 474.22 140.85 474.25 C 141.95 474.26 143.06 474.27 144.17 474.28 C 153.49 474.22 162.82 474.26 172.15 474.23 C 172.04 474.74 171.83 475.76 171.72 476.28 C 161.46 476.39 151.19 476.28 140.92 476.36 C 139.20 476.18 137.76 477.17 136.50 478.22 C 138.92 478.99 141.44 479.41 143.99 479.35 C 178.39 479.29 212.80 479.33 247.21 479.33 C 247.30 479.09 247.47 478.60 247.56 478.35 C 248.11 478.48 249.20 478.74 249.75 478.87 C 250.56 479.05 251.38 479.22 252.20 479.38 C 252.25 478.89 252.36 477.92 252.42 477.44 L 253.81 478.84 C 253.98 479.02 254.33 479.36 254.50 479.54 C 259.16 479.62 263.83 479.59 268.49 479.59 C 268.60 479.33 268.83 478.80 268.94 478.54 L 269.41 477.48 C 269.68 478.00 270.20 479.04 270.47 479.56 L 270.52 478.84 C 271.21 478.79 272.58 478.67 273.26 478.62 C 273.94 478.64 274.61 478.69 275.30 478.76 C 277.19 478.96 279.09 479.19 281.00 479.28 C 307.18 479.47 333.38 479.10 359.56 479.45 C 359.65 479.16 359.83 478.60 359.92 478.32 C 360.65 476.28 361.13 474.15 361.08 471.98 C 361.04 465.56 361.44 459.13 361.01 452.71 Z" fill="#2b1b3b" opacity="1.00" stroke="#2b1b3b" stroke-width="0.25"/>
<path d="M 361.53 452.70 C 363.70 452.65 365.87 452.61 368.04 452.57 C 368.47 461.49 368.46 470.42 368.09 479.33 C 365.86 479.23 363.64 479.01 361.43 478.79 C 361.46 470.09 361.47 461.39 361.53 452.70 Z" fill="#efb55b" opacity="1.00" stroke="#efb55b" stroke-width="0.25"/>
<path d="M 368.04 452.57 L 368.98 452.56 C 368.75 461.23 368.62 469.92 368.97 478.60 C 368.75 478.78 368.31 479.15 368.09 479.33 C 368.46 470.42 368.47 461.49 368.04 452.57 Z" fill="#9e7a50" opacity="1.00" stroke="#9e7a50" stroke-width="0.25"/>
<path d="M 370.81 452.66 C 374.98 452.55 379.16 452.50 383.32 452.83 C 383.06 460.23 383.77 467.69 382.95 475.05 C 381.61 480.40 374.87 479.34 370.70 479.14 C 370.79 470.31 370.64 461.48 370.81 452.66 Z" fill="#d35875" opacity="1.00" stroke="#d35875" stroke-width="0.25"/>
<path d="M 385.61 453.05 C 386.26 453.14 387.54 453.33 388.18 453.42 C 390.27 454.61 392.42 455.70 394.70 456.52 C 394.15 458.12 393.59 459.71 393.03 461.31 C 390.44 460.48 387.96 459.38 385.55 458.14 C 385.57 456.43 385.59 454.74 385.61 453.05 Z" fill="#e17867" opacity="1.00" stroke="#e17867" stroke-width="0.25"/>
<path d="M 175.55 454.15 C 199.61 453.72 223.69 453.55 247.77 453.61 C 247.53 461.85 247.77 470.10 247.56 478.35 C 247.47 478.60 247.30 479.09 247.21 479.33 C 212.80 479.33 178.39 479.29 143.99 479.35 C 141.44 479.41 138.92 478.99 136.50 478.22 C 137.76 477.17 139.20 476.18 140.92 476.36 C 151.19 476.28 161.46 476.39 171.72 476.28 C 180.57 472.91 181.10 460.69 175.55 454.15 Z" fill="#bc6688" opacity="1.00" stroke="#bc6688" stroke-width="0.25"/>
<path d="M 249.74 463.96 C 249.76 460.08 249.29 456.04 250.97 452.41 C 251.63 453.81 252.34 455.29 252.28 456.89 C 252.39 463.74 252.11 470.59 252.42 477.44 C 252.36 477.92 252.25 478.89 252.20 479.38 C 251.38 479.22 250.56 479.05 249.75 478.87 C 249.71 473.90 249.77 468.93 249.74 463.96 Z" fill="#edc165" opacity="1.00" stroke="#edc165" stroke-width="0.25"/>
<path d="M 254.72 453.98 C 259.11 453.76 263.50 453.75 267.89 453.99 C 268.66 462.07 268.41 470.21 267.97 478.30 C 263.63 478.72 259.27 478.61 254.93 478.37 C 254.52 470.25 254.53 462.11 254.72 453.98 Z" fill="#d35874" opacity="1.00" stroke="#d35874" stroke-width="0.25"/>
<path d="M 299.07 455.08 C 318.59 454.41 338.14 455.36 357.65 454.23 C 357.67 461.81 357.94 469.41 356.97 476.94 C 340.34 477.60 323.69 477.09 307.06 477.19 C 297.09 477.16 287.11 477.48 277.16 476.77 C 276.67 469.71 276.62 462.52 278.09 455.57 C 285.06 454.90 292.07 455.05 299.07 455.08 Z" fill="#d75773" opacity="1.00" stroke="#d75773" stroke-width="0.25"/>
<path d="M 363.51 454.21 C 364.73 454.51 366.92 454.08 366.95 455.97 C 367.29 462.90 366.93 469.86 366.94 476.81 C 365.73 476.81 364.53 476.81 363.33 476.82 C 362.28 469.31 363.14 461.74 363.51 454.21 Z" fill="#fbb42d" opacity="1.00" stroke="#fbb42d" stroke-width="0.25"/>
<path d="M 144.51 455.14 C 153.76 454.46 163.04 455.04 172.29 454.76 C 172.97 455.23 173.64 455.72 174.30 456.23 C 177.08 459.68 177.31 464.45 176.32 468.59 C 175.71 470.95 173.60 472.41 172.15 474.23 C 162.82 474.26 153.49 474.22 144.17 474.28 C 145.01 472.65 145.86 471.02 146.69 469.39 C 155.95 469.42 165.21 469.30 174.47 469.49 L 174.40 467.69 C 165.30 467.73 156.19 467.79 147.09 467.69 C 147.18 466.53 147.28 465.39 147.38 464.24 C 155.54 464.31 163.73 464.53 171.88 464.21 C 172.32 463.89 173.21 463.26 173.65 462.95 C 164.95 462.49 156.23 462.88 147.53 462.74 C 146.91 460.06 146.06 457.43 144.51 455.14 Z" fill="#fefeff" opacity="1.00" stroke="#fefeff" stroke-width="0.25"/>
<path d="M 180.04 455.84 C 201.92 455.32 223.83 455.85 245.71 455.42 C 246.89 458.55 245.40 461.80 245.95 465.01 C 246.57 469.02 245.76 473.03 245.57 477.05 C 237.06 477.78 228.51 477.26 219.98 477.37 C 205.30 477.22 190.60 477.73 175.94 477.07 C 177.70 474.41 179.93 471.85 180.41 468.59 C 180.98 464.35 180.51 460.07 180.04 455.84 Z" fill="#d75875" opacity="1.00" stroke="#d75875" stroke-width="0.25"/>
<path d="M 269.05 454.57 C 269.98 462.17 269.74 469.86 269.41 477.48 L 268.94 478.54 C 268.66 470.55 268.46 462.55 269.05 454.57 Z" fill="#0b1f24" opacity="1.00" stroke="#0b1f24" stroke-width="0.25"/>
<path d="M 153.68 458.37 C 157.17 458.10 160.69 458.24 164.18 458.52 C 163.69 459.32 162.98 459.71 162.06 459.67 C 159.02 459.83 155.98 459.80 152.95 459.68 C 153.13 459.35 153.50 458.70 153.68 458.37 Z" fill="#19172e" opacity="1.00" stroke="#19172e" stroke-width="0.25"/>
<path d="M 109.04 468.42 C 120.03 467.23 131.05 466.01 142.11 465.61 C 144.14 465.17 144.21 467.63 144.27 468.98 C 143.64 471.01 142.12 472.59 140.85 474.25 C 139.08 474.22 137.32 474.20 135.55 474.20 C 135.49 476.72 135.54 479.25 135.77 481.77 C 216.50 481.62 297.24 481.76 377.98 481.68 C 381.12 481.83 384.11 479.70 385.25 476.81 C 385.94 473.47 385.55 470.03 385.62 466.65 C 389.74 466.40 393.88 466.41 397.99 466.85 C 412.02 468.19 426.15 469.22 439.94 472.27 C 443.93 473.25 448.28 473.76 451.67 476.27 C 453.18 477.21 453.28 479.87 451.42 480.51 C 444.36 484.46 436.13 484.96 428.33 486.36 C 401.10 490.65 373.51 491.61 346.06 493.37 C 333.02 493.33 320.04 494.74 307.01 494.54 C 289.02 494.85 271.03 495.54 253.04 495.30 C 235.51 495.46 218.00 494.43 200.48 494.38 C 189.01 493.22 177.45 494.08 166.01 492.67 C 157.69 492.63 149.44 491.59 141.13 491.33 C 121.68 489.46 102.02 488.54 82.90 484.18 C 78.48 482.99 73.95 481.72 70.17 479.04 C 71.20 477.47 72.16 475.63 74.14 475.12 C 85.27 470.78 97.37 470.37 109.04 468.42 Z" fill="#c5e1e6" opacity="1.00" stroke="#c5e1e6" stroke-width="0.25"/>
</svg>