<?xml version="1.0" encoding="utf-8"?>
<svg xmlns="http://www.w3.org/2000/svg" height="512pt" version="1.1" viewBox="0 0 512 512" width="512pt">
<path d="M 0.00 0.00 L 512.00 0.00 L 512.00 512.00 L 0.00 512.00 L 0.00 0.00 Z" fill="transparent" opacity="1.00" stroke="transparent" stroke-width="0.25"/>
<path d="M 162.26 210.37 C 223.85 210.27 285.44 210.34 347.03 210.32 C 350.69 210.07 354.59 211.11 356.78 214.27 C 360.37 218.72 358.89 224.70 359.18 229.93 C 358.98 234.14 360.02 238.82 357.62 242.59 C 355.70 245.96 351.89 248.08 348.01 247.87 C 286.65 247.86 225.29 247.88 163.94 247.85 C 160.12 248.08 156.39 246.09 154.44 242.82 C 151.75 238.73 152.96 233.62 152.74 229.03 C 152.97 224.83 152.07 220.42 153.68 216.41 C 155.26 213.13 158.54 210.51 162.26 210.37 Z" fill="#1a1c28" opacity="1.00" stroke="#1a1c28" stroke-width="0.25"/>
<path d="M 160.44 212.50 C 161.07 212.42 162.34 212.25 162.98 212.16 C 224.99 212.20 287.01 212.19 349.02 212.20 C 353.55 212.15 357.42 216.50 357.35 220.96 C 357.45 226.31 357.40 231.67 357.35 237.03 C 357.54 242.00 352.84 246.43 347.90 246.21 C 286.93 246.28 225.96 246.20 164.99 246.24 C 160.48 246.56 155.87 243.61 154.70 239.17 C 154.29 233.12 154.60 227.03 154.50 220.96 C 154.21 217.13 157.15 213.95 160.44 212.50 Z" fill="#ffffff" opacity="1.00" stroke="#ffffff" stroke-width="0.25"/>
<path d="M 298.33 216.50 C 299.02 215.62 299.28 213.93 300.76 214.23 C 300.85 215.87 300.56 217.51 300.28 219.13 C 299.48 219.09 297.89 219.03 297.09 219.00 C 296.91 218.62 296.54 217.87 296.35 217.50 C 296.85 217.25 297.84 216.75 298.33 216.50 Z" fill="#e8e8e9" opacity="1.00" stroke="#e8e8e9" stroke-width="0.25"/>
<path d="M 202.81 239.76 C 203.28 231.44 201.72 222.92 203.57 214.73 C 204.55 220.43 203.96 226.22 204.14 231.96 C 204.10 234.92 204.41 237.96 203.63 240.85 C 203.11 242.10 201.82 241.20 200.89 241.15 C 201.37 240.80 202.33 240.11 202.81 239.76 Z" fill="#dadada" opacity="1.00" stroke="#dadada" stroke-width="0.25"/>
<path d="M 178.34 217.64 C 179.18 216.99 180.02 216.35 180.86 215.71 C 180.86 216.52 180.84 218.13 180.83 218.94 C 176.24 219.36 171.63 219.36 167.03 219.25 C 166.95 221.56 166.85 223.88 166.63 226.18 C 164.57 223.92 165.32 220.64 165.03 217.86 C 169.46 217.64 173.90 217.74 178.34 217.64 Z" fill="#e4e4e4" opacity="1.00" stroke="#e4e4e4" stroke-width="0.25"/>
<path d="M 283.20 222.47 C 282.71 220.21 282.82 217.93 283.60 215.76 C 284.75 217.97 285.47 220.69 283.20 222.47 Z" fill="#e6e6e8" opacity="1.00" stroke="#e6e6e8" stroke-width="0.25"/>
<path d="M 214.28 221.83 C 215.91 226.52 215.22 231.66 214.86 236.51 C 212.52 232.11 212.35 226.37 214.28 221.83 Z" fill="#e8e8e8" opacity="1.00" stroke="#e8e8e8" stroke-width="0.25"/>
<path d="M 299.31 221.81 C 300.34 226.14 300.08 230.62 300.08 235.03 C 300.04 236.98 300.09 239.04 298.98 240.75 C 298.56 234.46 298.14 228.04 299.31 221.81 Z" fill="#dedede" opacity="1.00" stroke="#dedede" stroke-width="0.25"/>
<path d="M 188.73 225.79 C 190.36 223.15 193.70 223.90 196.27 224.14 C 194.60 224.79 192.83 225.26 191.27 226.16 C 188.52 228.27 189.00 232.03 188.58 235.08 C 187.16 232.14 186.46 228.53 188.73 225.79 Z" fill="#e1e1e1" opacity="1.00" stroke="#e1e1e1" stroke-width="0.25"/>
<path d="M 227.26 223.33 C 228.66 224.90 228.39 227.05 228.45 228.99 C 228.39 232.35 228.50 235.71 228.27 239.07 C 228.18 240.30 227.54 241.19 226.33 241.73 C 227.45 235.65 226.81 229.46 227.26 223.33 Z" fill="#dedede" opacity="1.00" stroke="#dedede" stroke-width="0.25"/>
<path d="M 238.39 225.48 C 240.33 222.90 243.77 223.78 246.40 224.54 C 244.63 224.84 242.85 225.10 241.08 225.34 C 238.60 227.67 237.97 230.98 237.58 234.21 C 236.00 231.42 235.93 227.82 238.39 225.48 Z" fill="#e3e3e3" opacity="1.00" stroke="#e3e3e3" stroke-width="0.25"/>
<path d="M 250.27 224.24 C 253.58 223.26 251.50 227.99 249.08 226.89 C 246.78 226.89 249.03 224.25 250.27 224.24 Z" fill="#eaeaea" opacity="1.00" stroke="#eaeaea" stroke-width="0.25"/>
<path d="M 257.40 226.09 C 259.81 223.10 263.76 223.67 267.06 224.46 C 263.85 225.10 260.64 225.70 257.40 226.09 Z" fill="#dfdfdf" opacity="1.00" stroke="#dfdfdf" stroke-width="0.25"/>
<path d="M 271.38 223.73 C 273.73 229.56 273.43 236.16 272.12 242.20 C 271.55 242.00 270.40 241.59 269.83 241.39 C 271.92 235.72 270.44 229.59 271.38 223.73 Z" fill="#e7e7e7" opacity="1.00" stroke="#e7e7e7" stroke-width="0.25"/>
<path d="M 282.88 223.81 C 285.50 223.76 288.12 223.76 290.74 223.94 C 289.34 225.71 286.90 225.13 284.96 225.48 C 284.48 229.72 284.65 233.99 284.56 238.26 C 283.44 237.52 282.81 236.39 282.87 235.03 C 282.51 231.30 282.78 227.54 282.88 223.81 Z" fill="#e5e5e5" opacity="1.00" stroke="#e5e5e5" stroke-width="0.25"/>
<path d="M 310.23 225.24 C 312.23 222.83 315.55 224.15 318.18 224.47 C 316.24 224.83 314.30 225.15 312.36 225.44 C 309.80 228.42 309.80 232.37 309.69 236.09 C 307.49 232.84 306.98 228.01 310.23 225.24 Z" fill="#e4e4e4" opacity="1.00" stroke="#e4e4e4" stroke-width="0.25"/>
<path d="M 334.24 227.35 C 335.51 224.14 338.97 223.62 341.97 224.32 C 340.00 225.06 337.54 225.28 336.30 227.22 C 333.47 231.15 336.34 236.54 333.97 240.60 C 333.62 236.22 333.06 231.64 334.24 227.35 Z" fill="#dfdfdf" opacity="1.00" stroke="#dfdfdf" stroke-width="0.25"/>
<path d="M 324.38 226.83 C 327.32 231.42 325.59 238.21 320.91 240.94 C 318.16 242.82 314.50 242.39 311.52 241.35 C 314.94 240.42 319.40 241.05 321.70 237.76 C 324.47 234.82 323.79 230.51 324.38 226.83 Z" fill="#e2e2e2" opacity="1.00" stroke="#e2e2e2" stroke-width="0.25"/>
<path d="M 348.07 226.45 C 349.66 230.93 349.51 236.18 348.09 240.69 C 347.49 235.96 347.47 231.17 348.07 226.45 Z" fill="#dadada" opacity="1.00" stroke="#dadada" stroke-width="0.25"/>
<path d="M 177.47 228.42 C 179.22 228.12 179.74 228.64 179.02 229.98 C 175.50 230.76 171.88 230.05 168.33 230.44 C 165.27 231.17 168.56 236.95 165.28 236.89 C 165.32 234.40 164.16 231.07 166.23 229.18 C 169.96 228.71 173.74 228.86 177.47 228.42 Z" fill="#e4e4e4" opacity="1.00" stroke="#e4e4e4" stroke-width="0.25"/>
<path d="M 259.14 232.07 C 261.94 230.91 265.86 230.03 268.30 232.36 C 265.92 232.58 263.50 232.56 261.15 233.05 C 259.29 233.72 259.22 236.07 258.33 237.53 C 257.73 235.78 257.07 233.11 259.14 232.07 Z" fill="#e3e3e3" opacity="1.00" stroke="#e3e3e3" stroke-width="0.25"/>
<path d="M 239.67 241.59 C 244.16 240.76 248.71 239.81 252.21 236.64 C 251.55 242.57 244.17 242.85 239.67 241.59 Z" fill="#e6e5e5" opacity="1.00" stroke="#e6e5e5" stroke-width="0.25"/>
<path d="M 191.54 241.85 C 194.44 240.55 197.38 239.35 200.35 238.20 C 199.71 242.49 194.77 242.12 191.54 241.85 Z" fill="#e5e5e4" opacity="1.00" stroke="#e5e5e4" stroke-width="0.25"/>
<path d="M 215.48 241.81 C 218.49 240.53 221.52 239.32 224.52 238.00 C 223.85 242.43 218.83 242.09 215.48 241.81 Z" fill="#e2e1e1" opacity="1.00" stroke="#e2e1e1" stroke-width="0.25"/>
<path d="M 258.75 241.47 C 262.10 241.07 265.09 239.26 268.33 238.59 C 269.35 239.80 267.83 240.44 267.01 241.08 C 264.55 242.80 261.44 242.08 258.75 241.47 Z" fill="#e7e7e7" opacity="1.00" stroke="#e7e7e7" stroke-width="0.25"/>
<path d="M 290.74 238.61 C 291.17 239.24 291.61 239.88 292.05 240.51 C 289.57 243.03 285.86 242.11 282.75 241.70 C 285.37 240.55 288.10 239.71 290.74 238.61 Z" fill="#ededed" opacity="1.00" stroke="#ededed" stroke-width="0.25"/>
<path d="M 162.64 240.28 C 168.49 239.43 174.41 240.20 180.26 239.38 C 182.36 238.66 181.78 242.25 180.03 241.83 C 175.68 242.13 171.31 242.03 166.95 241.87 C 165.34 241.94 163.98 241.05 162.64 240.28 Z" fill="#ececeb" opacity="1.00" stroke="#ececeb" stroke-width="0.25"/>
<path d="M 272.63 263.57 C 272.97 262.35 273.33 261.13 273.68 259.92 C 273.98 261.35 274.29 262.78 274.59 264.22 C 271.42 265.10 267.28 266.06 266.75 269.97 C 265.29 273.35 268.08 278.05 265.17 280.68 C 265.02 275.89 264.11 270.68 266.30 266.22 C 267.40 263.75 270.38 263.92 272.63 263.57 Z" fill="#e2e2e3" opacity="1.00" stroke="#e2e2e3" stroke-width="0.25"/>
<path d="M 241.38 261.64 C 242.56 266.37 242.53 271.41 241.49 276.17 C 240.46 271.39 240.37 266.42 241.38 261.64 Z" fill="#dcdcdc" opacity="1.00" stroke="#dcdcdc" stroke-width="0.25"/>
<path d="M 254.91 280.79 C 255.02 274.44 254.26 267.94 255.63 261.69 C 256.18 267.42 256.37 273.22 255.99 278.95 C 255.72 279.41 255.18 280.33 254.91 280.79 Z" fill="#d6d6d7" opacity="1.00" stroke="#d6d6d7" stroke-width="0.25"/>
<path d="M 195.52 266.43 C 197.29 263.04 202.11 262.31 205.16 264.37 C 203.21 264.49 201.00 263.99 199.30 265.26 C 196.28 267.18 196.28 271.11 195.32 274.19 C 194.95 271.64 194.10 268.82 195.52 266.43 Z" fill="#e1e1e1" opacity="1.00" stroke="#e1e1e1" stroke-width="0.25"/>
<path d="M 216.96 265.84 C 218.53 263.24 221.81 262.93 224.55 263.15 C 222.68 264.40 220.48 265.17 218.78 266.65 C 216.93 269.04 217.19 272.26 216.53 275.07 C 215.95 272.05 214.91 268.56 216.96 265.84 Z" fill="#e2e2e2" opacity="1.00" stroke="#e2e2e2" stroke-width="0.25"/>
<path d="M 279.83 263.87 C 283.70 262.31 287.77 263.79 291.77 263.39 C 291.43 264.23 291.11 265.08 290.78 265.93 C 288.58 265.22 286.38 264.05 284.00 264.29 C 282.37 264.90 281.17 266.25 279.83 267.30 C 279.83 266.44 279.83 264.73 279.83 263.87 Z" fill="#e5e5e5" opacity="1.00" stroke="#e5e5e5" stroke-width="0.25"/>
<path d="M 298.82 269.57 C 298.37 264.56 303.76 261.64 308.09 263.39 C 304.01 263.77 301.32 266.66 298.82 269.57 Z" fill="#dedede" opacity="1.00" stroke="#dedede" stroke-width="0.25"/>
<path d="M 208.14 264.10 C 209.67 263.18 210.28 265.65 208.77 266.04 C 207.24 266.96 206.63 264.49 208.14 264.10 Z" fill="#dbdbdb" opacity="1.00" stroke="#dbdbdb" stroke-width="0.25"/>
<path d="M 232.37 265.76 C 234.22 269.75 234.57 275.00 231.33 278.40 C 228.44 282.24 222.93 282.55 218.87 280.54 C 221.53 280.23 224.24 280.19 226.86 279.54 C 228.87 278.48 230.36 276.54 231.43 274.58 C 232.08 271.69 232.01 268.69 232.37 265.76 Z" fill="#e6e6e6" opacity="1.00" stroke="#e6e6e6" stroke-width="0.25"/>
<path d="M 314.29 265.70 C 315.55 267.68 316.11 269.97 316.45 272.27 C 311.54 273.54 306.45 273.17 301.47 272.70 C 300.96 273.55 300.43 274.40 299.91 275.24 C 299.34 274.01 298.79 272.78 298.28 271.54 C 303.41 270.77 308.61 271.11 313.76 271.52 C 313.91 269.58 314.07 267.64 314.29 265.70 Z" fill="#e6e6e6" opacity="1.00" stroke="#e6e6e6" stroke-width="0.25"/>
<path d="M 124.65 271.72 C 127.77 270.05 130.61 267.83 133.92 266.56 C 136.50 266.45 136.82 269.88 137.73 271.66 C 139.05 271.44 140.84 269.63 141.88 271.15 C 145.25 274.09 143.32 279.00 141.32 282.17 C 142.11 286.30 142.59 290.57 144.26 294.47 C 145.69 298.00 145.87 302.45 143.49 305.62 C 141.96 307.32 139.58 307.76 137.58 308.68 C 137.06 311.43 136.48 314.19 136.51 317.00 C 145.30 317.66 151.25 324.67 157.90 329.54 C 159.71 325.24 162.42 320.75 167.41 319.85 C 167.39 319.38 167.36 318.43 167.35 317.96 L 168.42 317.89 C 170.30 317.56 172.14 317.03 174.03 316.79 C 176.31 316.93 178.36 318.06 180.48 318.82 L 180.52 320.30 C 180.92 326.33 180.42 332.36 180.18 338.39 C 183.91 338.40 187.64 338.45 191.37 338.67 C 190.70 342.30 189.73 345.87 188.95 349.48 C 185.38 350.14 181.66 349.79 178.17 350.85 L 176.92 351.76 C 176.76 351.88 176.45 352.13 176.30 352.25 C 178.08 344.62 178.47 336.77 179.09 328.99 C 179.24 326.36 179.48 323.70 179.06 321.09 C 177.51 318.48 173.78 317.63 171.17 319.14 C 169.30 319.90 169.59 322.31 169.15 323.93 C 168.83 327.71 167.41 331.24 166.43 334.87 C 167.95 336.54 169.73 337.99 171.09 339.82 C 160.84 335.05 152.83 326.73 143.36 320.72 C 136.62 317.33 128.67 318.05 121.76 315.12 C 119.74 314.07 118.17 312.31 116.12 311.32 C 112.10 310.64 107.34 311.28 104.56 314.58 C 101.05 318.46 101.25 324.04 100.45 328.90 C 99.45 334.89 99.17 340.95 98.62 346.99 C 98.56 347.51 98.44 348.56 98.38 349.08 C 94.71 349.36 90.77 351.08 90.41 355.25 C 90.21 354.55 89.80 353.15 89.60 352.45 L 89.71 351.91 L 90.02 350.62 C 90.70 350.15 91.38 349.70 92.08 349.26 C 93.64 348.22 95.50 347.85 97.25 347.27 C 97.10 340.10 98.29 333.03 99.30 325.96 C 99.44 321.33 100.20 316.20 103.88 312.97 C 107.46 309.33 112.81 309.00 117.61 309.28 C 117.08 308.06 116.57 306.85 116.07 305.64 C 116.56 305.62 117.55 305.57 118.05 305.55 C 118.52 307.65 118.84 309.78 119.19 311.91 C 119.85 311.35 120.51 310.79 121.17 310.24 C 124.34 310.23 127.63 310.73 130.72 309.82 C 134.15 307.14 135.78 302.88 137.72 299.11 C 136.95 294.50 137.13 289.79 137.77 285.18 C 138.78 280.78 143.39 277.24 141.40 272.35 C 139.66 272.69 137.92 273.08 136.18 273.44 C 135.61 271.81 135.04 270.18 134.46 268.56 C 126.80 271.03 120.37 276.03 113.52 280.09 L 113.53 278.49 C 116.52 275.21 120.92 273.92 124.65 271.72 Z" fill="#1a1c28" opacity="1.00" stroke="#1a1c28" stroke-width="0.25"/>
<path d="M 113.52 280.09 C 120.37 276.03 126.80 271.03 134.46 268.56 C 135.04 270.18 135.61 271.81 136.18 273.44 C 137.92 273.08 139.66 272.69 141.40 272.35 C 143.39 277.24 138.78 280.78 137.77 285.18 C 137.13 289.79 136.95 294.50 137.72 299.11 C 135.78 302.88 134.15 307.14 130.72 309.82 C 127.63 310.73 124.34 310.23 121.17 310.24 C 120.51 310.79 119.85 311.35 119.19 311.91 C 118.84 309.78 118.52 307.65 118.05 305.55 C 117.55 305.57 116.56 305.62 116.07 305.64 L 115.72 305.66 C 109.52 298.43 106.31 286.09 113.53 278.49 L 113.52 280.09 Z" fill="#26355e" opacity="1.00" stroke="#26355e" stroke-width="0.25"/>
<path d="M 291.47 272.60 C 292.74 274.66 293.26 277.52 291.45 279.45 C 288.09 282.79 282.30 282.54 278.44 280.21 C 281.95 280.21 285.47 280.17 288.97 279.88 C 290.24 277.62 290.90 275.11 291.47 272.60 Z" fill="#e5e5e5" opacity="1.00" stroke="#e5e5e5" stroke-width="0.25"/>
<path d="M 371.96 281.89 C 372.75 275.96 378.83 271.22 384.82 272.61 C 390.15 273.89 396.58 275.17 399.27 280.59 C 403.84 288.06 399.43 297.24 403.02 304.94 C 405.99 311.70 410.08 317.90 413.09 324.65 C 412.68 324.99 411.86 325.68 411.45 326.02 C 408.57 318.72 403.91 312.28 401.03 304.98 C 397.90 297.37 401.93 288.45 397.55 281.20 C 394.54 276.77 388.85 275.55 383.96 274.46 C 377.56 273.07 371.50 280.95 374.34 286.79 C 375.38 289.41 376.10 292.21 375.48 295.04 C 374.00 303.43 374.29 311.98 374.50 320.46 C 371.92 315.03 375.24 308.38 371.43 303.42 C 371.72 303.62 372.29 304.01 372.58 304.20 C 372.52 298.60 374.39 293.04 373.19 287.47 C 372.95 285.57 372.48 283.72 371.96 281.89 Z" fill="#45241d" opacity="1.00" stroke="#45241d" stroke-width="0.25"/>
<path d="M 374.34 286.79 C 371.50 280.95 377.56 273.07 383.96 274.46 C 388.85 275.55 394.54 276.77 397.55 281.20 C 401.93 288.45 397.90 297.37 401.03 304.98 C 403.91 312.28 408.57 318.72 411.45 326.02 C 411.60 330.73 409.22 336.06 404.32 337.34 C 395.37 340.21 384.71 339.44 376.85 334.11 C 375.54 329.67 375.62 324.95 374.50 320.46 C 374.29 311.98 374.00 303.43 375.48 295.04 C 376.10 292.21 375.38 289.41 374.34 286.79 Z" fill="#fd663b" opacity="1.00" stroke="#fd663b" stroke-width="0.25"/>
<path d="M 197.85 280.48 C 202.13 280.38 206.75 280.11 209.64 276.48 C 210.90 280.48 206.05 281.55 203.09 281.84 C 201.18 282.29 199.51 281.23 197.85 280.48 Z" fill="#e5e5e5" opacity="1.00" stroke="#e5e5e5" stroke-width="0.25"/>
<path d="M 241.75 280.55 C 245.48 280.48 249.07 279.58 251.99 277.18 C 252.25 281.98 244.92 283.02 241.75 280.55 Z" fill="#e6e6e7" opacity="1.00" stroke="#e6e6e7" stroke-width="0.25"/>
<path d="M 309.76 279.48 C 311.35 278.88 312.60 276.77 314.46 277.56 C 314.77 278.45 314.55 279.17 313.79 279.72 C 310.42 282.26 305.41 282.92 301.84 280.43 C 304.48 280.11 307.18 280.13 309.76 279.48 Z" fill="#eaeaea" opacity="1.00" stroke="#eaeaea" stroke-width="0.25"/>
<path d="M 247.84 284.89 C 253.29 283.79 258.42 278.71 264.17 281.88 C 267.28 284.45 271.98 284.09 274.53 287.44 C 277.57 290.97 277.63 295.96 276.33 300.22 C 278.08 301.64 278.63 303.64 278.16 305.91 C 277.40 305.07 276.66 304.22 275.92 303.37 C 275.30 305.61 273.58 307.68 273.85 310.10 C 274.64 308.44 275.36 306.75 276.02 305.03 C 276.55 305.80 277.08 306.58 277.60 307.36 C 276.79 308.82 275.96 310.28 275.10 311.71 C 274.49 311.71 273.26 311.71 272.65 311.71 C 271.90 314.85 266.77 316.03 268.23 319.54 C 263.78 319.88 259.32 319.41 254.88 319.10 C 251.82 317.56 248.80 315.38 247.14 312.29 C 246.10 312.07 245.06 311.87 244.03 311.68 C 242.16 308.57 239.86 303.83 242.69 300.68 C 240.90 295.06 242.23 287.78 247.84 284.89 Z" fill="#302835" opacity="1.00" stroke="#302835" stroke-width="0.25"/>
<path d="M 247.15 287.06 C 252.76 286.74 257.60 280.74 263.26 283.76 C 266.07 285.54 269.39 286.18 272.28 287.75 C 276.80 292.29 274.82 299.17 273.55 304.63 C 272.04 308.63 270.71 313.58 266.37 315.38 C 261.18 317.77 254.07 317.44 250.02 313.04 C 245.96 308.27 245.33 301.83 243.92 295.98 C 243.10 292.61 245.52 289.74 247.15 287.06 Z" fill="#7a4e41" opacity="1.00" stroke="#7a4e41" stroke-width="0.25"/>
<path d="M 368.66 294.01 C 370.23 290.10 370.82 285.92 371.96 281.89 C 372.48 283.72 372.95 285.57 373.19 287.47 C 371.42 292.39 367.45 298.60 371.43 303.42 C 375.24 308.38 371.92 315.03 374.50 320.46 C 375.62 324.95 375.54 329.67 376.85 334.11 C 384.71 339.44 395.37 340.21 404.32 337.34 C 409.22 336.06 411.60 330.73 411.45 326.02 C 411.86 325.68 412.68 324.99 413.09 324.65 C 414.85 332.08 414.44 339.77 414.28 347.34 C 413.70 342.58 413.69 337.78 413.82 333.00 C 413.30 333.41 412.78 333.82 412.27 334.23 C 402.40 343.72 386.39 342.58 375.47 335.62 C 373.45 330.29 373.70 324.39 372.64 318.83 C 370.51 319.48 368.11 319.77 366.43 321.35 C 358.69 328.77 351.94 337.28 343.56 344.00 C 344.53 342.10 345.58 340.24 346.61 338.37 C 344.52 338.70 341.91 338.60 340.68 340.69 C 336.55 345.80 339.66 356.11 346.99 355.85 C 351.82 356.51 356.03 353.71 359.64 350.89 C 360.21 350.93 361.35 351.01 361.92 351.06 C 362.98 351.98 364.58 352.68 365.89 351.79 L 365.93 351.15 C 365.98 350.32 366.07 348.68 366.12 347.85 C 365.49 347.76 364.24 347.58 363.61 347.49 C 366.82 344.99 369.67 342.02 373.16 339.90 C 371.85 343.28 367.46 345.02 367.86 349.02 C 367.95 357.15 367.19 365.28 367.66 373.41 C 367.29 373.82 366.56 374.64 366.19 375.05 L 365.80 374.19 C 365.58 372.72 365.61 371.25 365.88 369.79 C 366.31 366.95 366.38 364.08 366.30 361.22 C 351.89 360.75 337.48 361.13 323.07 361.00 C 313.14 360.74 303.20 361.05 293.27 361.07 C 292.89 362.13 292.52 363.20 292.17 364.28 C 292.16 362.81 292.13 361.34 292.09 359.87 C 292.50 359.83 293.31 359.76 293.71 359.73 C 309.71 359.15 325.74 359.64 341.74 359.45 C 349.80 359.52 357.86 359.51 365.91 359.45 C 365.88 357.36 365.85 355.27 365.81 353.19 C 362.78 353.24 359.54 353.05 356.99 354.98 C 352.60 358.06 346.76 358.66 341.84 356.52 C 340.74 355.46 339.72 354.32 338.81 353.11 L 338.09 352.11 L 337.23 350.90 C 326.48 350.44 315.72 350.86 304.97 350.59 C 301.08 350.65 297.06 350.24 293.34 351.62 C 293.32 350.81 293.31 350.00 293.32 349.20 C 295.66 349.15 298.01 349.11 300.35 349.13 C 299.93 342.75 301.24 336.45 301.59 330.10 C 301.75 327.67 301.92 325.19 302.88 322.92 C 307.26 322.16 311.78 324.30 316.15 322.75 C 317.12 323.09 318.08 323.47 319.03 323.90 C 320.50 328.82 320.65 334.07 322.19 338.99 C 326.56 339.48 330.98 339.15 335.38 339.21 C 334.68 336.74 335.91 334.66 337.35 332.76 C 338.57 332.10 339.77 331.41 340.96 330.70 C 343.38 330.62 345.80 330.61 348.21 330.89 C 349.56 331.57 350.13 333.11 351.15 334.17 C 358.52 328.87 362.62 318.69 372.33 317.05 C 372.36 313.33 372.43 309.61 372.45 305.90 C 367.33 304.44 367.02 298.20 368.66 294.01 Z" fill="#321d29" opacity="1.00" stroke="#321d29" stroke-width="0.25"/>
<path d="M 139.41 283.88 C 140.51 285.88 140.79 288.14 140.74 290.39 C 139.35 288.50 139.41 286.11 139.41 283.88 Z" fill="#fefbef" opacity="1.00" stroke="#fefbef" stroke-width="0.25"/>
<path d="M 175.43 291.41 C 178.31 287.04 184.05 285.40 188.97 286.88 C 195.33 285.39 201.31 291.77 199.91 297.95 C 198.34 303.25 200.04 309.12 196.91 314.02 C 196.68 313.56 196.21 312.65 195.98 312.19 L 195.80 311.67 C 197.05 308.35 198.18 304.50 196.08 301.25 C 195.76 303.84 195.72 306.45 195.66 309.05 C 192.40 312.20 188.53 314.91 183.78 314.74 C 183.30 316.13 182.82 317.51 182.35 318.91 C 184.73 318.92 187.11 318.93 189.50 318.95 C 189.86 317.02 190.25 315.09 190.64 313.17 C 191.51 313.36 193.23 313.73 194.10 313.92 C 194.56 314.16 195.50 314.63 195.97 314.86 C 192.45 314.33 191.21 316.65 191.23 319.53 C 195.16 320.12 199.69 320.24 202.63 323.32 C 206.17 326.93 208.35 331.58 211.09 335.78 C 213.15 334.12 215.24 331.46 218.24 332.58 C 220.60 333.83 218.83 336.35 218.24 338.15 C 220.55 338.88 222.92 339.45 225.35 339.68 C 225.58 341.08 225.81 342.46 226.07 343.86 C 224.14 346.62 220.87 347.58 217.92 348.80 C 220.75 349.03 223.59 349.12 226.44 349.23 C 226.39 349.62 226.29 350.41 226.25 350.80 C 221.58 350.68 216.84 350.40 212.31 351.72 C 211.19 351.71 210.08 351.70 208.97 351.68 C 206.03 350.88 202.98 350.64 199.95 350.75 C 192.69 350.92 185.42 350.47 178.17 350.85 C 181.66 349.79 185.38 350.14 188.95 349.48 C 191.73 349.08 194.54 349.07 197.34 349.05 C 197.60 343.88 196.87 338.00 200.24 333.64 C 200.35 336.45 198.79 339.70 200.93 342.07 C 202.85 344.70 204.84 347.47 207.63 349.24 C 209.97 350.71 212.55 349.25 214.75 348.29 C 215.73 343.24 211.45 339.81 209.17 335.84 C 206.09 331.58 204.14 326.19 199.64 323.16 C 193.64 320.60 186.93 320.69 180.52 320.30 L 180.48 318.82 C 180.99 316.76 181.75 314.78 182.45 312.79 C 180.66 309.57 177.77 307.30 174.91 305.09 C 174.20 305.98 173.49 306.88 172.79 307.78 C 172.70 306.69 172.54 304.49 172.45 303.40 C 169.06 305.59 170.57 311.12 166.49 312.45 C 167.12 314.26 167.77 316.08 168.42 317.89 L 167.35 317.96 C 165.28 317.40 165.17 314.63 164.72 312.90 C 164.06 310.92 166.30 310.14 167.34 308.97 C 168.13 306.63 169.02 304.32 170.54 302.36 C 171.82 302.40 173.09 302.43 174.36 302.46 C 173.93 298.79 173.16 294.67 175.43 291.41 Z" fill="#2c272b" opacity="1.00" stroke="#2c272b" stroke-width="0.25"/>
<path d="M 182.20 288.40 C 185.39 288.23 188.60 288.71 191.81 288.62 C 195.64 288.49 197.94 292.59 198.39 295.91 C 198.86 298.67 195.69 299.49 194.42 301.38 C 194.05 303.51 194.12 305.69 193.74 307.82 C 191.58 311.02 187.95 313.27 184.01 313.20 C 183.63 311.90 183.25 310.61 182.87 309.32 C 184.49 307.84 187.16 306.61 186.91 304.01 C 187.01 300.95 185.21 297.48 182.00 296.87 C 179.77 296.25 177.65 297.53 175.55 298.08 C 175.19 293.71 177.98 289.59 182.20 288.40 Z" fill="#764d43" opacity="1.00" stroke="#764d43" stroke-width="0.25"/>
<path d="M 371.43 303.42 C 367.45 298.60 371.42 292.39 373.19 287.47 C 374.39 293.04 372.52 298.60 372.58 304.20 C 372.29 304.01 371.72 303.62 371.43 303.42 Z" fill="#f8d4a6" opacity="1.00" stroke="#f8d4a6" stroke-width="0.25"/>
<path d="M 138.22 291.21 C 141.62 290.86 142.39 294.53 143.31 297.00 C 143.81 299.77 144.07 303.78 141.06 305.24 C 139.69 305.93 138.20 306.35 136.75 306.86 C 136.30 308.12 135.85 309.38 135.41 310.66 C 134.77 310.66 133.48 310.68 132.84 310.68 C 134.86 307.86 136.94 305.00 137.85 301.59 C 138.55 301.51 139.96 301.34 140.67 301.25 C 139.56 297.98 138.19 294.73 138.22 291.21 Z" fill="#fdd2a8" opacity="1.00" stroke="#fdd2a8" stroke-width="0.25"/>
<path d="M 175.94 303.85 C 176.25 301.43 177.39 298.88 179.97 298.21 C 184.39 298.19 186.78 304.74 182.96 307.21 C 180.35 306.93 178.24 304.99 175.94 303.85 Z" fill="#7a4e44" opacity="1.00" stroke="#7a4e44" stroke-width="0.25"/>
<path d="M 195.66 309.05 C 195.72 306.45 195.76 303.84 196.08 301.25 C 198.18 304.50 197.05 308.35 195.80 311.67 L 195.98 312.19 C 196.12 312.72 196.42 313.79 196.56 314.32 C 195.95 314.22 194.71 314.02 194.10 313.92 C 193.23 313.73 191.51 313.36 190.64 313.17 C 190.25 315.09 189.86 317.02 189.50 318.95 C 187.11 318.93 184.73 318.92 182.35 318.91 C 182.82 317.51 183.30 316.13 183.78 314.74 C 188.53 314.91 192.40 312.20 195.66 309.05 Z" fill="#f6cb9d" opacity="1.00" stroke="#f6cb9d" stroke-width="0.25"/>
<path d="M 243.56 302.89 C 244.38 305.28 245.11 307.71 245.76 310.16 C 243.85 308.23 243.33 305.50 243.56 302.89 Z" fill="#fefbef" opacity="1.00" stroke="#fefbef" stroke-width="0.25"/>
<path d="M 166.49 312.45 C 170.57 311.12 169.06 305.59 172.45 303.40 C 172.54 304.49 172.70 306.69 172.79 307.78 C 173.49 306.88 174.20 305.98 174.91 305.09 C 177.77 307.30 180.66 309.57 182.45 312.79 C 181.75 314.78 180.99 316.76 180.48 318.82 C 178.36 318.06 176.31 316.93 174.03 316.79 C 172.14 317.03 170.30 317.56 168.42 317.89 C 167.77 316.08 167.12 314.26 166.49 312.45 Z" fill="#fdcb9c" opacity="1.00" stroke="#fdcb9c" stroke-width="0.25"/>
<path d="M 104.56 314.58 C 107.34 311.28 112.10 310.64 116.12 311.32 C 118.17 312.31 119.74 314.07 121.76 315.12 C 128.67 318.05 136.62 317.33 143.36 320.72 C 152.83 326.73 160.84 335.05 171.09 339.82 C 169.73 337.99 167.95 336.54 166.43 334.87 C 167.41 331.24 168.83 327.71 169.15 323.93 C 169.59 322.31 169.30 319.90 171.17 319.14 C 173.78 317.63 177.51 318.48 179.06 321.09 C 179.48 323.70 179.24 326.36 179.09 328.99 C 178.47 336.77 178.08 344.62 176.30 352.25 L 176.22 352.59 C 172.35 356.73 166.22 356.93 161.31 354.63 C 154.02 351.26 147.11 347.06 139.54 344.32 C 141.29 346.62 144.26 347.68 146.03 349.86 C 146.26 353.69 145.69 357.52 145.86 361.36 C 146.26 364.41 147.13 367.38 147.87 370.37 C 147.94 370.82 148.08 371.71 148.14 372.16 C 149.09 376.31 148.43 381.20 144.30 383.37 C 143.04 374.11 142.56 364.71 140.46 355.59 C 139.59 351.12 135.44 348.22 131.10 347.74 C 120.35 346.18 109.44 346.64 98.62 346.99 C 99.17 340.95 99.45 334.89 100.45 328.90 C 101.25 324.04 101.05 318.46 104.56 314.58 Z" fill="#3a4b7e" opacity="1.00" stroke="#3a4b7e" stroke-width="0.25"/>
<path d="M 119.59 311.97 C 124.66 311.79 129.77 311.52 134.80 312.28 C 134.77 313.71 134.73 315.14 134.69 316.58 C 129.64 315.14 124.05 315.00 119.59 311.97 Z" fill="#fcfeff" opacity="1.00" stroke="#fcfeff" stroke-width="0.25"/>
<path d="M 251.49 318.46 C 252.13 318.64 253.42 318.99 254.06 319.17 C 253.47 319.87 252.87 320.56 252.27 321.25 C 248.59 319.97 250.71 325.15 252.77 322.13 C 258.12 322.61 263.50 322.31 268.85 322.73 C 268.70 321.93 268.39 320.34 268.23 319.54 C 270.23 319.65 270.60 321.56 271.13 323.11 C 277.10 324.20 283.92 325.03 288.15 329.88 C 292.35 335.32 292.84 342.60 293.32 349.20 C 293.31 350.00 293.32 350.81 293.34 351.62 L 293.45 353.20 C 293.57 355.37 293.63 357.55 293.71 359.73 C 293.31 359.76 292.50 359.83 292.09 359.87 C 291.85 354.49 292.67 349.02 291.36 343.73 C 290.06 338.41 289.33 331.97 284.30 328.74 C 279.79 326.17 274.51 325.62 269.49 324.73 C 258.58 323.77 247.22 323.94 236.86 327.92 C 232.41 329.57 230.55 334.40 229.66 338.69 C 228.34 345.67 227.39 352.84 228.06 359.96 C 227.63 359.91 226.76 359.80 226.33 359.75 C 226.23 357.57 226.19 355.38 225.89 353.21 L 225.26 352.16 C 225.50 351.82 226.00 351.14 226.25 350.80 C 226.29 350.41 226.39 349.62 226.44 349.23 C 227.23 342.57 227.41 335.21 231.60 329.63 C 235.76 325.04 242.35 324.30 248.11 323.20 C 248.65 321.23 249.80 319.61 251.49 318.46 Z" fill="#2a1e21" opacity="1.00" stroke="#2a1e21" stroke-width="0.25"/>
<path d="M 254.06 319.17 L 254.88 319.10 C 259.32 319.41 263.78 319.88 268.23 319.54 C 268.39 320.34 268.70 321.93 268.85 322.73 C 263.50 322.31 258.12 322.61 252.77 322.13 L 252.27 321.25 C 252.87 320.56 253.47 319.87 254.06 319.17 Z" fill="#e86a4e" opacity="1.00" stroke="#e86a4e" stroke-width="0.25"/>
<path d="M 366.43 321.35 C 368.11 319.77 370.51 319.48 372.64 318.83 C 373.70 324.39 373.45 330.29 375.47 335.62 C 386.39 342.58 402.40 343.72 412.27 334.23 C 412.59 338.62 412.62 343.02 412.52 347.42 C 404.01 346.93 395.48 346.44 386.97 347.25 C 382.13 347.65 376.14 347.49 373.02 351.94 C 368.75 358.30 370.66 366.63 367.66 373.41 C 367.19 365.28 367.95 357.15 367.86 349.02 C 367.46 345.02 371.85 343.28 373.16 339.90 C 369.67 342.02 366.82 344.99 363.61 347.49 C 362.25 348.57 360.96 349.75 359.64 350.89 C 356.03 353.71 351.82 356.51 346.99 355.85 C 339.66 356.11 336.55 345.80 340.68 340.69 C 341.91 338.60 344.52 338.70 346.61 338.37 C 345.58 340.24 344.53 342.10 343.56 344.00 C 351.94 337.28 358.69 328.77 366.43 321.35 Z" fill="#79afd7" opacity="1.00" stroke="#79afd7" stroke-width="0.25"/>
<path d="M 180.52 320.30 C 186.93 320.69 193.64 320.60 199.64 323.16 C 204.14 326.19 206.09 331.58 209.17 335.84 C 211.45 339.81 215.73 343.24 214.75 348.29 C 212.55 349.25 209.97 350.71 207.63 349.24 C 204.84 347.47 202.85 344.70 200.93 342.07 C 198.79 339.70 200.35 336.45 200.24 333.64 C 196.87 338.00 197.60 343.88 197.34 349.05 C 194.54 349.07 191.73 349.08 188.95 349.48 C 189.73 345.87 190.70 342.30 191.37 338.67 C 187.64 338.45 183.91 338.40 180.18 338.39 C 180.42 332.36 180.92 326.33 180.52 320.30 Z" fill="#fefbef" opacity="1.00" stroke="#fefbef" stroke-width="0.25"/>
<path d="M 252.77 322.13 C 250.71 325.15 248.59 319.97 252.27 321.25 L 252.77 322.13 Z" fill="#f5c49b" opacity="1.00" stroke="#f5c49b" stroke-width="0.25"/>
<path d="M 159.56 330.13 C 160.88 326.16 163.55 322.17 167.99 321.47 C 167.43 325.69 167.05 330.11 164.88 333.88 C 162.84 333.14 160.70 332.04 159.56 330.13 Z" fill="#fefef4" opacity="1.00" stroke="#fefef4" stroke-width="0.25"/>
<path d="M 236.86 327.92 C 247.22 323.94 258.58 323.77 269.49 324.73 C 274.51 325.62 279.79 326.17 284.30 328.74 C 289.33 331.97 290.06 338.41 291.36 343.73 C 291.67 349.76 292.17 355.89 291.19 361.88 C 290.87 364.47 288.81 366.17 286.87 367.65 C 286.28 363.06 287.12 358.13 285.09 353.82 C 283.42 350.41 279.61 348.78 275.99 348.50 C 265.06 347.18 253.97 347.42 243.03 348.62 C 238.95 348.86 235.26 352.06 234.48 356.08 C 233.67 360.11 233.71 364.24 233.38 368.32 C 230.55 366.34 228.28 363.53 228.06 359.96 C 227.39 352.84 228.34 345.67 229.66 338.69 C 230.55 334.40 232.41 329.57 236.86 327.92 Z" fill="#fc663c" opacity="1.00" stroke="#fc663c" stroke-width="0.25"/>
<path d="M 303.88 325.94 C 303.73 322.94 308.39 324.61 307.35 326.95 C 306.56 334.11 305.82 341.28 305.44 348.47 C 304.37 348.53 303.30 348.59 302.23 348.66 C 301.69 341.05 303.29 333.50 303.88 325.94 Z" fill="#e45043" opacity="1.00" stroke="#e45043" stroke-width="0.25"/>
<path d="M 309.58 325.42 C 311.20 323.28 312.59 325.88 312.12 327.56 C 311.76 330.99 311.25 334.40 311.02 337.83 C 310.63 341.29 310.55 344.77 310.15 348.23 C 309.49 348.30 308.16 348.44 307.50 348.51 C 307.65 340.80 308.28 333.01 309.58 325.42 Z" fill="#d85551" opacity="1.00" stroke="#d85551" stroke-width="0.25"/>
<path d="M 314.24 325.34 C 315.04 325.13 316.64 324.70 317.44 324.49 C 317.57 332.47 316.09 340.41 315.46 348.37 C 314.30 348.51 313.14 348.65 311.99 348.79 L 312.03 348.30 C 312.38 343.61 312.90 338.93 313.18 334.24 C 313.50 331.28 313.19 328.16 314.24 325.34 Z" fill="#e3473c" opacity="1.00" stroke="#e3473c" stroke-width="0.25"/>
<path d="M 312.12 327.56 C 312.61 329.76 313.09 331.98 313.18 334.24 C 312.90 338.93 312.38 343.61 312.03 348.30 C 310.19 345.17 311.46 341.28 311.02 337.83 C 311.25 334.40 311.76 330.99 312.12 327.56 Z" fill="#631013" opacity="1.00" stroke="#631013" stroke-width="0.25"/>
<path d="M 343.44 333.79 C 343.86 333.26 344.70 332.18 345.12 331.65 C 345.28 332.39 345.60 333.89 345.76 334.64 C 346.67 334.10 347.59 333.56 348.52 333.04 C 348.98 334.69 349.32 336.40 348.30 337.93 C 346.27 337.34 344.11 336.70 342.01 337.36 C 340.31 338.44 338.99 339.98 337.49 341.28 C 336.80 338.76 337.13 336.17 338.75 334.08 C 339.20 334.50 340.10 335.34 340.55 335.76 C 340.62 334.93 340.76 333.27 340.82 332.44 C 341.48 332.78 342.79 333.46 343.44 333.79 Z" fill="#f1c394" opacity="1.00" stroke="#f1c394" stroke-width="0.25"/>
<path d="M 412.27 334.23 C 412.78 333.82 413.30 333.41 413.82 333.00 C 413.69 337.78 413.70 342.58 414.28 347.34 C 416.18 347.79 418.17 348.17 419.83 349.28 C 420.79 349.87 421.75 350.46 422.72 351.06 L 420.96 351.58 C 420.88 351.57 420.71 351.56 420.62 351.55 C 417.81 350.51 414.99 349.37 411.96 349.24 C 401.55 348.51 391.05 348.45 380.68 349.70 C 376.79 350.00 373.37 352.84 372.77 356.76 C 370.18 369.30 369.54 382.14 367.81 394.80 C 363.84 388.86 370.35 381.16 366.19 375.05 C 366.56 374.64 367.29 373.82 367.66 373.41 C 370.66 366.63 368.75 358.30 373.02 351.94 C 376.14 347.49 382.13 347.65 386.97 347.25 C 395.48 346.44 404.01 346.93 412.52 347.42 C 412.62 343.02 412.59 338.62 412.27 334.23 Z" fill="#102c40" opacity="1.00" stroke="#102c40" stroke-width="0.25"/>
<path d="M 318.62 334.36 C 318.81 334.36 319.19 334.35 319.38 334.35 C 319.95 337.39 320.14 340.50 319.10 343.49 C 319.72 343.42 320.97 343.27 321.59 343.19 C 321.73 344.92 321.93 346.68 321.44 348.38 C 321.43 347.56 321.42 345.94 321.41 345.12 C 320.47 345.09 319.54 345.06 318.61 345.04 C 319.10 345.91 320.07 347.67 320.56 348.55 C 319.48 348.63 318.40 348.71 317.34 348.80 C 317.69 343.98 318.22 339.18 318.62 334.36 Z" fill="#fcfeff" opacity="1.00" stroke="#fcfeff" stroke-width="0.25"/>
<path d="M 212.12 336.96 C 213.92 335.87 215.65 334.37 217.89 334.34 C 217.06 335.65 216.20 336.95 215.33 338.24 C 217.26 339.34 219.51 340.12 220.86 342.01 C 221.96 341.78 223.06 341.54 224.16 341.26 C 222.92 342.49 221.81 343.85 221.28 345.55 C 219.68 346.10 218.07 346.65 216.48 347.23 C 217.41 343.08 213.91 340.22 212.12 336.96 Z" fill="#f5c49b" opacity="1.00" stroke="#f5c49b" stroke-width="0.25"/>
<path d="M 179.70 340.21 C 182.81 340.13 185.92 340.15 189.03 340.18 C 188.65 342.24 188.27 344.30 187.97 346.38 C 185.07 345.86 182.13 345.82 179.19 345.86 C 179.39 343.98 179.56 342.09 179.70 340.21 Z" fill="#fcfeff" opacity="1.00" stroke="#fcfeff" stroke-width="0.25"/>
<path d="M 322.48 341.28 C 326.65 340.78 330.87 340.82 335.07 340.98 C 337.12 341.40 336.69 344.38 337.57 345.83 C 332.93 345.96 328.28 345.88 323.64 345.81 C 323.26 344.29 322.87 342.78 322.48 341.28 Z" fill="#feffff" opacity="1.00" stroke="#feffff" stroke-width="0.25"/>
<path d="M 199.28 343.08 C 200.88 345.01 202.47 346.97 204.10 348.89 C 202.42 348.99 200.74 349.09 199.06 349.18 C 199.10 347.14 199.17 345.11 199.28 343.08 Z" fill="#fcfeff" opacity="1.00" stroke="#fcfeff" stroke-width="0.25"/>
<path d="M 139.54 344.32 C 147.11 347.06 154.02 351.26 161.31 354.63 C 166.22 356.93 172.35 356.73 176.22 352.59 L 176.11 354.17 C 175.02 355.61 173.79 357.16 171.93 357.60 C 166.63 359.06 161.21 356.97 156.58 354.46 C 153.89 352.81 150.67 353.27 147.69 353.30 C 147.64 355.39 147.57 357.48 147.51 359.58 C 168.67 359.31 189.84 359.55 211.01 359.46 C 216.11 359.51 221.24 359.21 226.33 359.75 C 226.76 359.80 227.63 359.91 228.06 359.96 C 228.28 363.53 230.55 366.34 233.38 368.32 C 233.71 364.24 233.67 360.11 234.48 356.08 C 235.26 352.06 238.95 348.86 243.03 348.62 C 253.97 347.42 265.06 347.18 275.99 348.50 C 279.61 348.78 283.42 350.41 285.09 353.82 C 287.12 358.13 286.28 363.06 286.87 367.65 C 288.81 366.17 290.87 364.47 291.19 361.88 C 292.17 355.89 291.67 349.76 291.36 343.73 C 292.67 349.02 291.85 354.49 292.09 359.87 C 292.13 361.34 292.16 362.81 292.17 364.28 C 291.80 365.57 291.42 366.85 291.05 368.14 C 312.70 368.27 334.36 368.22 356.01 368.26 C 359.15 368.38 362.70 367.55 365.43 369.53 C 339.15 369.65 312.86 369.49 286.57 369.60 C 286.09 368.26 285.52 366.96 285.03 365.64 C 284.45 361.17 285.34 355.69 281.65 352.32 C 278.33 349.88 273.92 350.05 270.00 349.69 C 260.68 349.48 251.23 349.03 242.03 350.72 C 238.86 351.12 236.54 353.86 236.15 356.94 C 235.12 362.99 235.45 369.16 234.95 375.26 C 234.69 373.56 234.33 371.89 233.92 370.23 L 233.31 370.04 C 227.09 368.80 220.65 370.10 214.37 369.31 C 219.03 367.40 224.12 368.27 229.01 368.16 C 228.13 365.89 227.26 363.63 226.39 361.36 C 199.55 361.10 172.70 361.28 145.86 361.36 C 145.69 357.52 146.26 353.69 146.03 349.86 C 144.26 347.68 141.29 346.62 139.54 344.32 Z" fill="#281f33" opacity="1.00" stroke="#281f33" stroke-width="0.25"/>
<path d="M 98.62 346.99 C 109.44 346.64 120.35 346.18 131.10 347.74 C 135.44 348.22 139.59 351.12 140.46 355.59 C 142.56 364.71 143.04 374.11 144.30 383.37 C 148.43 381.20 149.09 376.31 148.14 372.16 C 149.32 372.49 150.49 372.83 151.69 373.12 C 150.99 376.03 150.61 379.04 149.62 381.88 C 148.39 383.84 146.43 385.21 145.12 387.11 C 144.44 390.58 145.37 394.09 146.43 397.38 C 149.51 395.81 152.49 394.06 155.52 392.39 C 159.55 390.07 164.42 390.65 168.75 389.20 C 168.74 389.75 168.73 390.86 168.73 391.41 C 166.59 392.17 164.24 392.82 162.80 394.72 C 160.49 397.53 157.25 399.25 154.11 400.95 C 153.25 400.93 151.53 400.89 150.67 400.86 C 154.31 398.10 159.06 396.56 161.55 392.51 C 156.77 393.46 152.91 396.53 148.64 398.67 C 147.51 399.15 146.17 399.99 145.00 399.13 C 143.79 397.75 143.64 395.83 143.37 394.10 C 142.17 382.10 141.16 370.06 139.27 358.14 C 138.73 354.27 136.07 350.41 131.95 349.90 C 120.87 348.12 109.55 348.49 98.38 349.08 C 98.44 348.56 98.56 347.51 98.62 346.99 Z" fill="#172b49" opacity="1.00" stroke="#172b49" stroke-width="0.25"/>
<path d="M 177.83 348.45 C 180.87 347.03 184.33 347.69 187.57 347.54 C 185.07 349.97 180.97 348.42 177.83 348.45 Z" fill="#fcfeff" opacity="1.00" stroke="#fcfeff" stroke-width="0.25"/>
<path d="M 324.33 347.58 C 328.92 348.03 333.87 346.63 338.23 348.46 C 333.59 348.91 328.91 348.71 324.25 348.75 C 324.27 348.46 324.31 347.87 324.33 347.58 Z" fill="#fcfeff" opacity="1.00" stroke="#fcfeff" stroke-width="0.25"/>
<path d="M 359.64 350.89 C 360.96 349.75 362.25 348.57 363.61 347.49 C 364.24 347.58 365.49 347.76 366.12 347.85 C 366.07 348.68 365.98 350.32 365.93 351.15 C 364.62 350.66 363.28 350.63 361.92 351.06 C 361.35 351.01 360.21 350.93 359.64 350.89 Z" fill="#3b404b" opacity="1.00" stroke="#3b404b" stroke-width="0.25"/>
<path d="M 65.79 350.54 C 65.97 349.12 67.87 349.35 68.90 349.18 C 76.62 349.17 84.35 349.06 92.08 349.26 C 91.38 349.70 90.70 350.15 90.02 350.62 C 82.58 350.93 75.13 350.47 67.70 350.84 L 67.55 352.07 L 67.46 353.19 C 67.35 355.32 67.34 357.45 67.30 359.59 C 74.57 359.47 81.83 359.38 89.10 359.62 C 89.15 357.53 89.17 355.44 89.41 353.38 L 89.60 352.45 C 89.80 353.15 90.21 354.55 90.41 355.25 C 90.56 355.95 90.85 357.36 91.00 358.07 C 90.18 359.09 89.36 360.12 88.49 361.12 C 85.10 360.97 81.70 360.86 78.31 361.14 C 74.58 361.35 70.81 361.52 67.08 361.14 C 66.77 360.88 66.14 360.35 65.82 360.08 C 65.43 356.92 65.53 353.70 65.79 350.54 Z" fill="#2a1e21" opacity="1.00" stroke="#2a1e21" stroke-width="0.25"/>
<path d="M 98.38 349.08 C 109.55 348.49 120.87 348.12 131.95 349.90 C 136.07 350.41 138.73 354.27 139.27 358.14 C 141.16 370.06 142.17 382.10 143.37 394.10 C 143.64 395.83 143.79 397.75 145.00 399.13 C 146.17 399.99 147.51 399.15 148.64 398.67 C 152.91 396.53 156.77 393.46 161.55 392.51 C 159.06 396.56 154.31 398.10 150.67 400.86 L 149.95 401.27 C 145.87 404.10 140.78 404.29 135.99 404.02 C 125.62 403.54 115.22 403.60 104.87 402.84 C 101.64 402.63 98.21 401.26 96.48 398.39 C 95.08 395.80 95.03 392.77 94.65 389.92 C 93.56 379.29 92.37 368.67 91.00 358.07 C 90.85 357.36 90.56 355.95 90.41 355.25 C 90.77 351.08 94.71 349.36 98.38 349.08 Z" fill="#59c2b4" opacity="1.00" stroke="#59c2b4" stroke-width="0.25"/>
<path d="M 380.68 349.70 C 391.05 348.45 401.55 348.51 411.96 349.24 C 414.99 349.37 417.81 350.51 420.62 351.55 C 420.92 355.72 420.77 359.91 420.18 364.06 C 418.10 374.60 417.91 385.43 415.92 395.98 C 415.24 400.22 410.99 402.74 406.97 402.92 C 395.33 403.80 383.65 403.75 371.99 404.20 C 366.81 404.54 362.12 402.01 358.05 399.08 C 355.20 397.09 352.33 395.12 349.38 393.29 L 349.87 395.00 C 349.29 394.37 348.69 393.76 348.08 393.18 L 349.01 393.14 C 350.63 392.98 352.40 392.23 353.88 393.31 C 357.79 395.40 361.45 397.93 365.43 399.91 C 366.04 399.04 366.61 398.15 367.14 397.23 C 367.40 396.42 367.62 395.62 367.81 394.80 C 369.54 382.14 370.18 369.30 372.77 356.76 C 373.37 352.84 376.79 350.00 380.68 349.70 Z" fill="#58c2b4" opacity="1.00" stroke="#58c2b4" stroke-width="0.25"/>
<path d="M 419.83 349.28 C 428.43 349.12 437.04 348.98 445.64 349.35 C 446.70 352.82 446.30 356.49 446.24 360.07 C 445.75 360.39 444.79 361.03 444.31 361.35 C 440.79 361.25 437.28 361.36 433.77 361.25 C 429.88 361.08 425.99 361.03 422.11 360.73 L 421.49 359.59 C 421.04 361.07 420.55 362.55 420.18 364.06 C 420.77 359.91 420.92 355.72 420.62 351.55 C 420.71 351.56 420.88 351.57 420.96 351.58 L 422.71 351.72 L 422.67 353.21 C 422.62 355.30 422.57 357.40 422.50 359.50 C 429.84 359.46 437.19 359.46 444.54 359.54 C 444.57 357.41 444.61 355.28 444.65 353.15 C 444.15 353.16 443.13 353.18 442.62 353.20 L 443.71 352.06 C 443.90 351.86 444.28 351.46 444.47 351.26 C 437.22 351.11 429.97 351.32 422.72 351.06 C 421.75 350.46 420.79 349.87 419.83 349.28 Z" fill="#2a1e21" opacity="1.00" stroke="#2a1e21" stroke-width="0.25"/>
<path d="M 242.03 350.72 C 251.23 349.03 260.68 349.48 270.00 349.69 C 273.92 350.05 278.33 349.88 281.65 352.32 C 285.34 355.69 284.45 361.17 285.03 365.64 C 285.26 375.08 285.61 384.52 285.54 393.97 C 285.39 396.54 285.49 399.59 283.42 401.48 C 280.69 404.18 276.57 403.99 273.03 404.28 C 264.69 404.48 256.35 404.43 248.01 404.30 C 244.33 403.97 240.26 404.15 237.11 401.94 C 234.88 400.00 234.63 396.78 234.57 394.03 C 234.59 387.77 234.81 381.51 234.95 375.26 C 235.45 369.16 235.12 362.99 236.15 356.94 C 236.54 353.86 238.86 351.12 242.03 350.72 Z" fill="#59c2b4" opacity="1.00" stroke="#59c2b4" stroke-width="0.25"/>
<path d="M 67.70 350.84 C 75.13 350.47 82.58 350.93 90.02 350.62 L 89.71 351.91 C 82.33 352.22 74.94 351.76 67.55 352.07 L 67.70 350.84 Z" fill="#bd9e84" opacity="1.00" stroke="#bd9e84" stroke-width="0.25"/>
<path d="M 148.24 350.93 C 151.20 349.32 148.46 354.26 148.24 350.93 Z" fill="#99939d" opacity="1.00" stroke="#99939d" stroke-width="0.25"/>
<path d="M 178.17 350.85 C 185.42 350.47 192.69 350.92 199.95 350.75 C 202.98 350.64 206.03 350.88 208.97 351.68 C 198.30 352.28 187.59 351.98 176.92 351.76 L 178.17 350.85 Z" fill="#b0957e" opacity="1.00" stroke="#b0957e" stroke-width="0.25"/>
<path d="M 212.31 351.72 C 216.84 350.40 221.58 350.68 226.25 350.80 C 226.00 351.14 225.50 351.82 225.26 352.16 C 220.94 352.02 216.62 351.99 212.31 351.72 Z" fill="#a89483" opacity="1.00" stroke="#a89483" stroke-width="0.25"/>
<path d="M 293.34 351.62 C 297.06 350.24 301.08 350.65 304.97 350.59 C 315.72 350.86 326.48 350.44 337.23 350.90 L 338.09 352.11 C 323.18 351.64 308.23 352.52 293.34 351.62 Z" fill="#b59984" opacity="1.00" stroke="#b59984" stroke-width="0.25"/>
<path d="M 361.92 351.06 C 363.28 350.63 364.62 350.66 365.93 351.15 L 365.89 351.79 C 364.58 352.68 362.98 351.98 361.92 351.06 Z" fill="#998981" opacity="1.00" stroke="#998981" stroke-width="0.25"/>
<path d="M 422.72 351.06 C 429.97 351.32 437.22 351.11 444.47 351.26 C 444.28 351.46 443.90 351.86 443.71 352.06 C 436.71 351.77 429.70 352.12 422.71 351.72 L 420.96 351.58 L 422.72 351.06 Z" fill="#f8d4a6" opacity="1.00" stroke="#f8d4a6" stroke-width="0.25"/>
<path d="M 67.55 352.07 C 74.94 351.76 82.33 352.22 89.71 351.91 L 89.60 352.45 L 89.41 353.38 C 82.09 353.41 74.78 353.32 67.46 353.19 L 67.55 352.07 Z" fill="#4b2708" opacity="1.00" stroke="#4b2708" stroke-width="0.25"/>
<path d="M 176.30 352.25 C 176.45 352.13 176.76 351.88 176.92 351.76 C 187.59 351.98 198.30 352.28 208.97 351.68 C 210.08 351.70 211.19 351.71 212.31 351.72 C 216.62 351.99 220.94 352.02 225.26 352.16 L 225.89 353.21 C 211.28 353.41 196.67 353.26 182.05 353.27 C 180.04 353.28 177.99 353.40 176.11 354.17 L 176.22 352.59 L 176.30 352.25 Z" fill="#47290e" opacity="1.00" stroke="#47290e" stroke-width="0.25"/>
<path d="M 293.34 351.62 C 308.23 352.52 323.18 351.64 338.09 352.11 L 338.81 353.11 C 323.69 353.40 308.56 353.29 293.45 353.20 L 293.34 351.62 Z" fill="#46270b" opacity="1.00" stroke="#46270b" stroke-width="0.25"/>
<path d="M 422.71 351.72 C 429.70 352.12 436.71 351.77 443.71 352.06 L 442.62 353.20 C 435.97 353.43 429.32 353.32 422.67 353.21 L 422.71 351.72 Z" fill="#4a2808" opacity="1.00" stroke="#4a2808" stroke-width="0.25"/>
<path d="M 67.30 359.59 C 67.34 357.45 67.35 355.32 67.46 353.19 C 74.78 353.32 82.09 353.41 89.41 353.38 C 89.17 355.44 89.15 357.53 89.10 359.62 C 81.83 359.38 74.57 359.47 67.30 359.59 Z" fill="#f1c394" opacity="1.00" stroke="#f1c394" stroke-width="0.25"/>
<path d="M 147.69 353.30 C 150.67 353.27 153.89 352.81 156.58 354.46 C 161.21 356.97 166.63 359.06 171.93 357.60 C 173.79 357.16 175.02 355.61 176.11 354.17 C 177.99 353.40 180.04 353.28 182.05 353.27 C 196.67 353.26 211.28 353.41 225.89 353.21 C 226.19 355.38 226.23 357.57 226.33 359.75 C 221.24 359.21 216.11 359.51 211.01 359.46 C 189.84 359.55 168.67 359.31 147.51 359.58 C 147.57 357.48 147.64 355.39 147.69 353.30 Z" fill="#f1c394" opacity="1.00" stroke="#f1c394" stroke-width="0.25"/>
<path d="M 293.45 353.20 C 308.56 353.29 323.69 353.40 338.81 353.11 C 339.72 354.32 340.74 355.46 341.84 356.52 C 341.80 357.49 341.77 358.47 341.74 359.45 C 325.74 359.64 309.71 359.15 293.71 359.73 C 293.63 357.55 293.57 355.37 293.45 353.20 Z" fill="#fcba6c" opacity="1.00" stroke="#fcba6c" stroke-width="0.25"/>
<path d="M 356.99 354.98 C 359.54 353.05 362.78 353.24 365.81 353.19 C 365.85 355.27 365.88 357.36 365.91 359.45 C 357.86 359.51 349.80 359.52 341.74 359.45 C 341.77 358.47 341.80 357.49 341.84 356.52 C 346.76 358.66 352.60 358.06 356.99 354.98 Z" fill="#f8b469" opacity="1.00" stroke="#f8b469" stroke-width="0.25"/>
<path d="M 422.67 353.21 C 429.32 353.32 435.97 353.43 442.62 353.20 C 443.13 353.18 444.15 353.16 444.65 353.15 C 444.61 355.28 444.57 357.41 444.54 359.54 C 437.19 359.46 429.84 359.46 422.50 359.50 C 422.57 357.40 422.62 355.30 422.67 353.21 Z" fill="#f1c394" opacity="1.00" stroke="#f1c394" stroke-width="0.25"/>
<path d="M 68.97 357.86 C 69.44 356.58 68.97 354.10 71.05 354.33 C 76.28 354.29 81.63 354.23 86.77 355.24 C 88.64 355.82 87.45 357.92 85.97 357.99 C 80.32 358.41 74.62 358.24 68.97 357.86 Z" fill="#fdb65e" opacity="1.00" stroke="#fdb65e" stroke-width="0.25"/>
<path d="M 424.41 354.49 C 430.38 354.48 436.39 353.94 442.33 354.62 C 442.64 355.67 442.92 356.73 443.16 357.80 C 436.92 358.24 430.63 358.46 424.42 357.68 C 424.41 356.61 424.41 355.55 424.41 354.49 Z" fill="#ffb862" opacity="1.00" stroke="#ffb862" stroke-width="0.25"/>
<path d="M 149.17 356.14 C 151.55 352.68 155.97 355.68 158.26 357.78 C 155.44 357.76 150.29 359.79 149.17 356.14 Z" fill="#ffb759" opacity="1.00" stroke="#ffb759" stroke-width="0.25"/>
<path d="M 175.83 357.74 C 177.28 355.72 179.49 354.51 182.03 354.68 C 195.03 354.49 208.03 354.71 221.03 354.77 C 222.50 354.93 224.35 354.69 225.39 356.01 C 224.75 357.25 223.52 358.05 222.10 357.98 C 214.06 358.17 206.01 358.21 197.96 357.98 C 190.59 357.95 183.19 358.54 175.83 357.74 Z" fill="#fbb25d" opacity="1.00" stroke="#fbb25d" stroke-width="0.25"/>
<path d="M 88.49 361.12 C 89.36 360.12 90.18 359.09 91.00 358.07 C 92.37 368.67 93.56 379.29 94.65 389.92 C 95.03 392.77 95.08 395.80 96.48 398.39 C 98.21 401.26 101.64 402.63 104.87 402.84 C 115.22 403.60 125.62 403.54 135.99 404.02 C 140.78 404.29 145.87 404.10 149.95 401.27 L 151.28 402.42 C 144.77 407.75 135.97 405.33 128.30 405.66 C 128.52 413.73 128.06 421.82 128.47 429.88 C 131.47 432.57 135.30 434.11 138.63 436.34 C 139.03 436.60 139.84 437.13 140.24 437.39 C 140.36 437.47 140.62 437.64 140.75 437.72 C 143.40 439.79 146.89 439.42 150.05 439.44 C 155.14 439.23 160.52 439.72 165.23 437.38 C 164.25 438.08 163.38 439.17 162.08 439.24 C 155.46 440.05 148.74 440.00 142.09 439.55 C 143.41 441.46 144.40 443.88 143.48 446.19 C 142.09 448.08 139.43 447.79 137.44 447.26 C 136.23 446.24 136.17 444.43 135.53 443.08 C 131.59 440.47 127.86 437.53 123.84 435.04 C 119.61 436.98 115.75 439.64 111.51 441.59 C 108.79 442.49 108.20 445.58 106.14 447.23 C 104.12 447.95 102.11 447.22 100.35 446.23 C 99.95 441.99 102.99 438.48 105.98 435.88 C 110.63 433.48 115.59 431.68 120.58 430.09 C 121.80 421.95 120.83 413.66 121.21 405.46 C 114.67 405.06 108.06 405.28 101.59 404.17 C 97.23 403.30 94.05 399.45 93.52 395.12 C 92.38 386.60 91.69 378.03 90.59 369.50 C 88.54 369.49 86.48 369.46 84.43 369.40 L 85.37 368.50 C 87.04 368.20 88.71 368.00 90.39 367.78 C 90.17 365.46 90.14 362.95 88.49 361.12 Z" fill="#123036" opacity="1.00" stroke="#123036" stroke-width="0.25"/>
<path d="M 420.18 364.06 C 420.55 362.55 421.04 361.07 421.49 359.59 L 422.11 360.73 C 421.85 363.04 421.45 365.33 421.04 367.62 C 423.24 368.01 425.55 368.23 427.53 369.39 C 425.29 369.43 423.06 369.47 420.82 369.58 C 420.35 377.71 419.07 385.77 418.18 393.86 C 417.71 398.66 414.52 403.42 409.54 404.32 C 403.16 405.18 396.70 405.27 390.27 405.40 C 390.19 413.48 390.12 421.57 390.22 429.66 C 395.25 431.64 400.39 433.42 405.26 435.78 C 408.31 438.39 411.40 442.12 410.55 446.44 C 408.79 447.24 406.91 447.58 404.99 447.64 C 403.94 446.08 402.97 444.47 402.08 442.83 C 397.58 440.39 392.96 438.17 388.50 435.65 C 387.42 434.80 386.19 435.45 385.34 436.24 C 382.86 438.25 380.18 439.97 377.50 441.70 C 375.37 443.03 374.99 445.89 373.05 447.42 C 371.22 447.76 368.86 448.01 367.73 446.16 C 366.89 444.31 367.42 442.20 368.71 440.72 C 372.06 435.76 377.68 433.32 382.71 430.50 C 382.84 422.22 382.73 413.94 382.82 405.66 C 378.54 405.73 374.25 405.93 369.97 405.83 C 365.17 405.80 360.54 403.53 357.14 400.24 C 357.37 399.95 357.82 399.37 358.05 399.08 C 362.12 402.01 366.81 404.54 371.99 404.20 C 383.65 403.75 395.33 403.80 406.97 402.92 C 410.99 402.74 415.24 400.22 415.92 395.98 C 417.91 385.43 418.10 374.60 420.18 364.06 Z" fill="#0c2830" opacity="1.00" stroke="#0c2830" stroke-width="0.25"/>
<path d="M 78.31 361.14 C 81.70 360.86 85.10 360.97 88.49 361.12 C 90.14 362.95 90.17 365.46 90.39 367.78 C 88.71 368.00 87.04 368.20 85.37 368.50 L 84.43 369.40 C 83.38 370.27 83.77 371.76 83.63 372.95 C 83.65 393.00 83.70 413.05 83.63 433.09 C 84.18 436.14 80.62 435.24 78.75 435.28 C 78.18 433.91 78.34 432.40 78.29 430.97 C 78.36 407.69 78.33 384.42 78.31 361.14 Z" fill="#253357" opacity="1.00" stroke="#253357" stroke-width="0.25"/>
<path d="M 145.86 361.36 C 172.70 361.28 199.55 361.10 226.39 361.36 C 227.26 363.63 228.13 365.89 229.01 368.16 C 224.12 368.27 219.03 367.40 214.37 369.31 C 213.99 369.30 213.22 369.30 212.83 369.29 C 206.37 367.51 199.62 368.63 193.02 368.40 C 178.32 368.19 163.62 368.49 148.92 368.16 C 148.79 366.79 148.66 365.43 148.53 364.07 C 148.28 366.17 148.03 368.26 147.87 370.37 C 147.13 367.38 146.26 364.41 145.86 361.36 Z" fill="#22335e" opacity="1.00" stroke="#22335e" stroke-width="0.25"/>
<path d="M 293.27 361.07 C 303.20 361.05 313.14 360.74 323.07 361.00 C 337.48 361.13 351.89 360.75 366.30 361.22 C 366.38 364.08 366.31 366.95 365.88 369.79 L 365.43 369.53 C 362.70 367.55 359.15 368.38 356.01 368.26 C 334.36 368.22 312.70 368.27 291.05 368.14 C 291.42 366.85 291.80 365.57 292.17 364.28 C 292.52 363.20 292.89 362.13 293.27 361.07 Z" fill="#23335e" opacity="1.00" stroke="#23335e" stroke-width="0.25"/>
<path d="M 422.11 360.73 C 425.99 361.03 429.88 361.08 433.77 361.25 C 433.59 385.96 433.98 410.68 433.57 435.39 C 431.91 435.31 430.26 435.24 428.62 435.17 C 428.45 413.45 428.49 391.73 428.62 370.01 C 428.35 369.86 427.80 369.55 427.53 369.39 C 425.55 368.23 423.24 368.01 421.04 367.62 C 421.45 365.33 421.85 363.04 422.11 360.73 Z" fill="#2a365a" opacity="1.00" stroke="#2a365a" stroke-width="0.25"/>
<path d="M 148.53 364.07 C 148.66 365.43 148.79 366.79 148.92 368.16 C 163.62 368.49 178.32 368.19 193.02 368.40 C 199.62 368.63 206.37 367.51 212.83 369.29 C 215.03 371.04 217.42 373.05 217.93 375.98 C 220.79 389.41 216.32 402.79 215.17 416.14 C 218.20 418.43 223.95 418.52 224.57 422.97 C 224.37 423.58 223.96 424.80 223.76 425.40 C 222.49 425.11 221.23 424.83 219.95 424.58 C 220.83 424.37 222.59 423.95 223.47 423.74 C 221.40 420.49 217.36 419.87 214.50 417.61 C 213.16 415.28 214.05 412.48 214.31 409.99 C 215.90 401.31 217.40 392.56 217.31 383.70 C 213.86 383.50 210.39 383.44 206.93 383.56 C 205.57 394.33 206.69 405.19 205.89 415.99 C 205.91 418.52 205.04 421.34 206.17 423.70 C 210.10 424.64 214.18 424.29 218.18 424.60 C 213.78 425.40 209.30 425.31 204.87 424.97 C 202.40 422.56 204.56 419.02 204.62 416.10 C 205.30 405.07 203.71 393.91 205.69 382.96 C 198.12 382.38 190.51 382.71 182.93 382.34 C 180.56 382.27 178.26 381.57 176.15 380.54 C 179.50 380.85 182.87 381.26 186.24 381.02 C 196.50 380.40 206.80 381.05 216.97 382.50 C 216.63 379.80 216.86 376.86 215.52 374.40 C 213.39 371.89 210.57 369.16 207.00 369.50 C 187.58 369.66 168.15 369.26 148.75 369.72 C 149.54 370.86 150.60 371.47 151.93 371.55 C 158.40 372.25 165.18 372.45 171.06 375.56 C 172.24 376.96 173.37 378.41 174.49 379.86 C 174.68 384.97 174.76 390.20 173.14 395.12 C 169.99 404.43 165.32 413.12 160.77 421.79 C 159.62 424.44 157.64 426.83 157.44 429.80 C 154.51 431.44 151.69 429.83 149.48 427.82 C 147.99 426.61 146.50 425.39 144.95 424.27 C 143.65 424.69 142.37 425.19 141.14 425.77 C 141.44 425.38 142.04 424.60 142.34 424.21 C 142.26 422.51 142.26 420.77 143.36 419.38 C 146.75 414.11 149.16 408.32 151.80 402.66 C 151.67 402.60 151.41 402.48 151.28 402.42 L 149.95 401.27 L 150.67 400.86 C 151.53 400.89 153.25 400.93 154.11 400.95 C 151.60 407.56 148.37 413.86 145.04 420.09 C 144.67 421.00 143.61 422.29 145.04 422.88 C 148.20 425.01 151.46 427.04 154.87 428.75 C 156.47 426.94 157.63 424.79 158.69 422.64 C 162.82 413.75 167.82 405.24 171.11 395.97 C 172.43 391.59 173.51 386.78 171.92 382.32 C 172.07 381.49 172.22 380.66 172.38 379.84 C 167.64 373.37 158.74 374.24 151.69 373.12 C 150.49 372.83 149.32 372.49 148.14 372.16 C 148.08 371.71 147.94 370.82 147.87 370.37 C 148.03 368.26 148.28 366.17 148.53 364.07 Z" fill="#201f27" opacity="1.00" stroke="#201f27" stroke-width="0.25"/>
<path d="M 285.03 365.64 C 285.52 366.96 286.09 368.26 286.57 369.60 C 287.63 377.99 287.27 386.53 287.38 394.98 C 286.10 406.00 284.94 417.07 282.42 427.90 C 282.07 429.59 280.30 430.92 280.79 432.76 C 281.21 435.20 280.92 437.65 280.04 439.96 C 281.79 442.19 284.17 447.02 280.09 448.13 C 276.58 449.55 274.80 446.11 273.33 443.67 C 269.14 440.64 264.28 438.63 260.08 435.58 C 256.43 438.25 252.52 440.53 248.48 442.56 C 246.23 443.62 245.62 446.34 243.80 447.87 C 242.19 448.69 240.35 447.84 238.68 447.70 C 238.39 447.00 237.80 445.62 237.50 444.93 C 238.22 442.98 239.30 441.22 240.62 439.63 C 239.65 436.88 239.74 433.98 240.33 431.16 C 237.34 429.11 237.85 425.08 236.98 421.96 C 235.12 413.73 234.95 405.24 232.95 397.07 C 232.38 388.07 233.25 379.04 233.31 370.04 L 233.92 370.23 C 234.33 371.89 234.69 373.56 234.95 375.26 C 234.81 381.51 234.59 387.77 234.57 394.03 C 234.63 396.78 234.88 400.00 237.11 401.94 C 240.26 404.15 244.33 403.97 248.01 404.30 C 256.35 404.43 264.69 404.48 273.03 404.28 C 276.57 403.99 280.69 404.18 283.42 401.48 C 285.49 399.59 285.39 396.54 285.54 393.97 C 285.61 384.52 285.26 375.08 285.03 365.64 Z" fill="#1c2a3e" opacity="1.00" stroke="#1c2a3e" stroke-width="0.25"/>
<path d="M 148.75 369.72 C 168.15 369.26 187.58 369.66 207.00 369.50 C 210.57 369.16 213.39 371.89 215.52 374.40 C 216.86 376.86 216.63 379.80 216.97 382.50 C 206.80 381.05 196.50 380.40 186.24 381.02 C 182.87 381.26 179.50 380.85 176.15 380.54 C 175.10 378.36 174.08 375.25 171.06 375.56 C 165.18 372.45 158.40 372.25 151.93 371.55 C 150.60 371.47 149.54 370.86 148.75 369.72 Z" fill="#fdfcf0" opacity="1.00" stroke="#fdfcf0" stroke-width="0.25"/>
<path d="M 149.62 381.88 C 150.61 379.04 150.99 376.03 151.69 373.12 C 158.74 374.24 167.64 373.37 172.38 379.84 C 172.22 380.66 172.07 381.49 171.92 382.32 C 173.51 386.78 172.43 391.59 171.11 395.97 C 167.82 405.24 162.82 413.75 158.69 422.64 C 157.63 424.79 156.47 426.94 154.87 428.75 C 151.46 427.04 148.20 425.01 145.04 422.88 C 143.61 422.29 144.67 421.00 145.04 420.09 C 148.37 413.86 151.60 407.56 154.11 400.95 C 157.25 399.25 160.49 397.53 162.80 394.72 C 164.24 392.82 166.59 392.17 168.73 391.41 C 168.73 390.86 168.74 389.75 168.75 389.20 C 164.42 390.65 159.55 390.07 155.52 392.39 C 152.49 394.06 149.51 395.81 146.43 397.38 C 145.37 394.09 144.44 390.58 145.12 387.11 C 146.43 385.21 148.39 383.84 149.62 381.88 Z" fill="#273762" opacity="1.00" stroke="#273762" stroke-width="0.25"/>
<path d="M 335.98 380.06 C 336.99 376.04 341.09 373.59 345.05 373.43 C 351.86 373.21 358.67 373.67 365.48 373.52 C 365.28 373.98 364.88 374.91 364.68 375.37 C 357.85 374.78 350.92 374.41 344.09 375.17 C 339.45 375.70 335.88 380.31 336.75 384.96 C 339.42 386.91 342.40 388.41 345.40 389.80 C 347.76 390.96 350.50 390.34 352.96 391.07 C 356.33 392.52 359.12 395.05 362.50 396.48 C 364.11 397.51 365.69 396.02 367.21 395.53 C 367.19 395.95 367.16 396.80 367.14 397.23 C 366.61 398.15 366.04 399.04 365.43 399.91 C 361.45 397.93 357.79 395.40 353.88 393.31 C 352.40 392.23 350.63 392.98 349.01 393.14 L 348.08 393.18 C 344.58 391.41 341.20 389.41 337.73 387.61 L 336.68 388.03 C 336.27 388.21 335.43 388.57 335.01 388.75 C 335.55 385.87 335.45 382.92 335.98 380.06 Z" fill="#1a1c28" opacity="1.00" stroke="#1a1c28" stroke-width="0.25"/>
<path d="M 365.48 373.52 L 365.80 374.19 L 366.19 375.05 C 370.35 381.16 363.84 388.86 367.81 394.80 C 367.62 395.62 367.40 396.42 367.14 397.23 C 367.16 396.80 367.19 395.95 367.21 395.53 C 365.69 396.02 364.11 397.51 362.50 396.48 C 359.12 395.05 356.33 392.52 352.96 391.07 C 350.50 390.34 347.76 390.96 345.40 389.80 C 342.40 388.41 339.42 386.91 336.75 384.96 C 335.88 380.31 339.45 375.70 344.09 375.17 C 350.92 374.41 357.85 374.78 364.68 375.37 C 364.88 374.91 365.28 373.98 365.48 373.52 Z" fill="#263761" opacity="1.00" stroke="#263761" stroke-width="0.25"/>
<path d="M 206.93 383.56 C 210.39 383.44 213.86 383.50 217.31 383.70 C 217.40 392.56 215.90 401.31 214.31 409.99 C 214.05 412.48 213.16 415.28 214.50 417.61 C 217.36 419.87 221.40 420.49 223.47 423.74 C 222.59 423.95 220.83 424.37 219.95 424.58 C 221.23 424.83 222.49 425.11 223.76 425.40 L 224.30 425.53 C 217.89 426.70 211.24 426.04 204.87 424.97 C 209.30 425.31 213.78 425.40 218.18 424.60 C 214.18 424.29 210.10 424.64 206.17 423.70 C 205.04 421.34 205.91 418.52 205.89 415.99 C 206.69 405.19 205.57 394.33 206.93 383.56 Z" fill="#3c4a7f" opacity="1.00" stroke="#3c4a7f" stroke-width="0.25"/>
<path d="M 335.01 388.75 C 335.43 388.57 336.27 388.21 336.68 388.03 C 338.27 399.18 341.28 410.06 344.06 420.96 C 344.67 423.49 345.66 426.08 345.15 428.72 C 344.49 431.93 343.04 434.88 341.75 437.87 C 347.02 438.56 352.33 438.98 357.64 438.90 C 358.21 434.96 359.99 430.98 359.41 427.00 C 354.26 416.99 353.59 405.51 349.87 395.00 L 349.38 393.29 C 352.33 395.12 355.20 397.09 358.05 399.08 C 357.82 399.37 357.37 399.95 357.14 400.24 C 355.75 399.48 354.42 398.62 353.06 397.82 C 354.34 404.98 356.27 412.00 357.97 419.07 C 358.76 422.80 362.28 425.87 361.18 429.93 C 360.50 433.33 360.17 436.85 358.95 440.11 C 357.82 440.95 356.33 440.69 355.03 440.74 C 350.02 440.54 344.98 440.32 340.04 439.39 C 340.30 437.11 341.05 434.93 341.76 432.77 C 338.55 434.11 336.32 437.06 333.07 438.23 C 329.26 437.91 325.58 436.73 322.10 435.20 C 322.29 433.42 322.12 431.23 323.94 430.22 C 329.52 426.23 335.96 423.67 341.77 420.04 C 339.48 409.62 336.47 399.33 335.01 388.75 Z" fill="#2a1e21" opacity="1.00" stroke="#2a1e21" stroke-width="0.25"/>
<path d="M 336.68 388.03 L 337.73 387.61 C 341.20 389.41 344.58 391.41 348.08 393.18 C 348.69 393.76 349.29 394.37 349.87 395.00 C 353.59 405.51 354.26 416.99 359.41 427.00 C 359.99 430.98 358.21 434.96 357.64 438.90 C 352.33 438.98 347.02 438.56 341.75 437.87 C 343.04 434.88 344.49 431.93 345.15 428.72 C 345.66 426.08 344.67 423.49 344.06 420.96 C 341.28 410.06 338.27 399.18 336.68 388.03 Z" fill="#ffd2a6" opacity="1.00" stroke="#ffd2a6" stroke-width="0.25"/>
<path d="M 151.28 402.42 C 151.41 402.48 151.67 402.60 151.80 402.66 C 149.16 408.32 146.75 414.11 143.36 419.38 C 142.26 420.77 142.26 422.51 142.34 424.21 C 142.04 424.60 141.44 425.38 141.14 425.77 C 138.39 428.57 138.34 432.68 138.63 436.34 C 135.30 434.11 131.47 432.57 128.47 429.88 C 128.06 421.82 128.52 413.73 128.30 405.66 C 135.97 405.33 144.77 407.75 151.28 402.42 Z" fill="#fffeff" opacity="1.00" stroke="#fffeff" stroke-width="0.25"/>
<path d="M 236.30 404.32 C 241.60 405.68 247.05 406.33 252.52 406.32 C 252.89 412.62 254.59 418.79 254.65 425.12 C 254.76 426.54 253.31 427.56 252.04 427.75 C 248.83 428.34 245.54 428.70 242.27 428.48 C 240.25 428.48 239.91 426.15 239.47 424.66 C 238.00 417.95 237.03 411.14 236.30 404.32 Z" fill="#273661" opacity="1.00" stroke="#273661" stroke-width="0.25"/>
<path d="M 268.93 406.17 C 273.97 406.06 279.15 406.17 283.95 404.40 C 283.91 407.94 283.56 411.47 282.82 414.94 C 281.90 419.38 281.76 424.01 280.15 428.29 C 277.60 428.92 274.92 428.55 272.32 428.43 C 270.13 428.16 266.68 428.11 267.01 425.03 C 267.34 418.73 267.82 412.39 268.93 406.17 Z" fill="#263761" opacity="1.00" stroke="#263761" stroke-width="0.25"/>
<path d="M 384.49 405.55 C 385.87 405.49 387.26 405.44 388.65 405.39 C 388.60 413.89 388.37 422.40 388.64 430.91 C 393.18 432.28 397.54 434.16 401.89 436.03 C 405.79 437.56 408.68 441.28 409.35 445.41 C 408.50 445.47 406.79 445.57 405.94 445.63 C 404.32 443.76 403.39 441.10 400.88 440.22 C 396.12 438.23 391.93 435.05 387.14 433.19 C 383.38 435.28 380.24 438.41 376.48 440.56 C 373.76 441.94 373.31 447.12 369.48 445.63 C 368.15 443.31 370.31 441.25 371.75 439.68 C 374.87 436.26 379.19 434.43 383.12 432.15 C 384.83 431.46 384.32 429.39 384.50 427.96 C 384.47 420.49 384.47 413.02 384.49 405.55 Z" fill="#5eb3af" opacity="1.00" stroke="#5eb3af" stroke-width="0.25"/>
<path d="M 122.77 405.47 C 124.13 405.52 125.50 405.59 126.86 405.66 C 127.00 414.10 126.37 422.57 126.92 430.99 C 131.93 435.35 139.64 437.22 142.27 443.97 C 142.34 446.25 139.98 445.56 138.49 445.81 C 137.43 443.54 136.40 441.04 133.99 439.88 C 130.47 437.88 127.54 434.98 123.97 433.09 C 119.44 434.97 115.42 437.92 110.91 439.89 C 108.55 440.77 107.16 442.87 105.76 444.83 C 104.91 446.43 102.95 445.20 101.63 445.22 C 102.91 441.92 104.58 438.35 107.98 436.79 C 111.86 434.89 115.88 433.26 120.00 431.97 C 120.97 431.50 122.70 431.53 122.60 430.04 C 123.06 421.86 122.72 413.66 122.77 405.47 Z" fill="#56b2ad" opacity="1.00" stroke="#56b2ad" stroke-width="0.25"/>
<path d="M 255.62 414.08 C 255.51 411.36 253.72 408.14 255.50 405.70 C 255.75 408.48 255.69 411.28 255.62 414.08 Z" fill="#fcfeff" opacity="1.00" stroke="#fcfeff" stroke-width="0.25"/>
<path d="M 257.75 406.10 C 259.08 406.14 260.42 406.19 261.75 406.24 C 261.80 414.69 261.43 423.16 261.85 431.60 C 267.24 433.77 272.54 436.32 277.30 439.68 C 279.19 441.15 281.24 443.70 280.26 446.22 C 276.60 448.19 276.07 442.95 273.53 441.58 C 268.89 439.06 264.47 436.18 260.01 433.36 C 255.79 436.51 251.19 439.06 246.61 441.63 C 244.23 443.09 243.50 447.78 239.93 446.22 C 238.86 443.86 240.86 441.92 242.34 440.37 C 246.67 436.33 252.38 434.33 257.63 431.82 C 257.76 423.24 257.60 414.67 257.75 406.10 Z" fill="#59b3ac" opacity="1.00" stroke="#59b3ac" stroke-width="0.25"/>
<path d="M 263.42 406.26 C 264.49 406.25 265.56 406.25 266.64 406.26 C 265.86 412.17 265.42 418.11 264.80 424.04 C 264.56 425.85 265.15 427.61 265.51 429.38 C 264.96 429.52 263.88 429.81 263.34 429.96 C 263.28 422.06 263.30 414.16 263.42 406.26 Z" fill="#feffff" opacity="1.00" stroke="#feffff" stroke-width="0.25"/>
<path d="M 327.22 430.19 C 332.18 427.26 337.29 424.60 342.48 422.11 C 343.03 424.34 344.20 426.72 343.18 429.01 C 342.19 431.41 339.37 432.03 337.44 433.46 C 335.40 434.51 333.52 436.70 330.99 436.03 C 328.63 435.64 326.19 435.14 324.14 433.84 C 323.92 431.91 325.95 431.15 327.22 430.19 Z" fill="#f55133" opacity="1.00" stroke="#f55133" stroke-width="0.25"/>
<path d="M 141.14 425.77 C 142.37 425.19 143.65 424.69 144.95 424.27 C 144.32 424.86 143.08 426.03 142.45 426.62 C 144.65 427.69 147.05 428.12 149.48 427.82 C 151.69 429.83 154.51 431.44 157.44 429.80 L 158.92 429.37 C 160.73 430.27 162.54 431.17 164.34 432.07 C 164.87 433.79 165.38 435.55 165.23 437.38 C 160.52 439.72 155.14 439.23 150.05 439.44 C 146.89 439.42 143.40 439.79 140.75 437.72 C 147.48 437.75 154.27 438.45 160.97 437.48 C 162.40 437.51 163.14 436.24 163.43 435.02 C 162.83 433.37 161.29 432.42 159.95 431.43 C 157.46 431.52 155.05 432.17 152.60 432.53 C 151.78 431.70 150.97 430.87 150.16 430.05 C 147.19 429.83 144.25 429.33 141.41 428.48 C 140.71 431.40 140.31 434.38 140.24 437.39 C 139.84 437.13 139.03 436.60 138.63 436.34 C 138.34 432.68 138.39 428.57 141.14 425.77 Z" fill="#45241d" opacity="1.00" stroke="#45241d" stroke-width="0.25"/>
<path d="M 142.45 426.62 C 143.08 426.03 144.32 424.86 144.95 424.27 C 146.50 425.39 147.99 426.61 149.48 427.82 C 147.05 428.12 144.65 427.69 142.45 426.62 Z" fill="#a75754" opacity="1.00" stroke="#a75754" stroke-width="0.25"/>
<path d="M 140.24 437.39 C 140.31 434.38 140.71 431.40 141.41 428.48 C 144.25 429.33 147.19 429.83 150.16 430.05 C 150.97 430.87 151.78 431.70 152.60 432.53 C 149.36 431.63 146.11 430.75 142.81 430.15 C 142.51 432.16 142.22 434.17 141.93 436.19 C 148.08 437.35 154.35 436.72 160.56 436.51 C 160.84 436.08 161.40 435.24 161.68 434.82 C 161.10 433.69 160.52 432.55 159.95 431.43 C 161.29 432.42 162.83 433.37 163.43 435.02 C 163.14 436.24 162.40 437.51 160.97 437.48 C 154.27 438.45 147.48 437.75 140.75 437.72 C 140.62 437.64 140.36 437.47 140.24 437.39 Z" fill="#d85551" opacity="1.00" stroke="#d85551" stroke-width="0.25"/>
<path d="M 244.00 430.85 C 247.24 430.04 252.03 427.78 254.13 431.63 C 250.13 433.51 246.16 435.48 242.05 437.13 C 242.12 435.00 241.15 431.57 244.00 430.85 Z" fill="#2a3864" opacity="1.00" stroke="#2a3864" stroke-width="0.25"/>
<path d="M 268.15 429.30 C 271.37 429.94 274.65 430.29 277.79 431.27 C 279.70 432.67 279.23 435.57 278.37 437.46 C 274.13 436.12 270.43 433.28 266.25 431.68 C 266.88 430.88 267.51 430.09 268.15 429.30 Z" fill="#2c3a65" opacity="1.00" stroke="#2c3a65" stroke-width="0.25"/>
<path d="M 142.81 430.15 C 146.11 430.75 149.36 431.63 152.60 432.53 C 155.05 432.17 157.46 431.52 159.95 431.43 C 160.52 432.55 161.10 433.69 161.68 434.82 C 161.40 435.24 160.84 436.08 160.56 436.51 C 154.35 436.72 148.08 437.35 141.93 436.19 C 142.22 434.17 142.51 432.16 142.81 430.15 Z" fill="#f64f33" opacity="1.00" stroke="#f64f33" stroke-width="0.25"/>
</svg>